<?xml version="1.0" encoding="UTF-8" standalone="no"?>
<!-- Created with Inkscape (http://www.inkscape.org/) -->

<svg
   width="1400"
   height="560"
   viewBox="0 0 370.41668 148.16667"
   version="1.1"
   id="svg5"
   xml:space="preserve"
   inkscape:version="1.2.2 (732a01da63, 2022-12-09)"
   sodipodi:docname="marqueePromo.svg"
   xmlns:inkscape="http://www.inkscape.org/namespaces/inkscape"
   xmlns:sodipodi="http://sodipodi.sourceforge.net/DTD/sodipodi-0.dtd"
   xmlns:xlink="http://www.w3.org/1999/xlink"
   xmlns="http://www.w3.org/2000/svg"
   xmlns:svg="http://www.w3.org/2000/svg"><sodipodi:namedview
     id="namedview7"
     pagecolor="#0b2b1a"
     bordercolor="#ffffff"
     borderopacity="1"
     inkscape:showpageshadow="2"
     inkscape:pageopacity="1"
     inkscape:pagecheckerboard="true"
     inkscape:deskcolor="#6e6e6e"
     inkscape:document-units="px"
     showgrid="false"
     inkscape:zoom="0.99500025"
     inkscape:cx="944.22087"
     inkscape:cy="90.452239"
     inkscape:window-width="2560"
     inkscape:window-height="1377"
     inkscape:window-x="-8"
     inkscape:window-y="-8"
     inkscape:window-maximized="1"
     inkscape:current-layer="layer1"
     showborder="false" /><defs
     id="defs2"><inkscape:path-effect
       effect="fillet_chamfer"
       id="path-effect10146"
       is_visible="true"
       lpeversion="1"
       nodesatellites_param="F,0,0,1,0,0.2,0,1 @ F,0,0,1,0,0.2,0,1 @ F,0,0,1,0,0.2,0,1 @ F,0,0,1,0,0.2,0,1"
       unit="px"
       method="auto"
       mode="F"
       radius="0.2"
       chamfer_steps="1"
       flexible="false"
       use_knot_distance="true"
       apply_no_radius="true"
       apply_with_radius="true"
       only_selected="false"
       hide_knots="false" /><linearGradient
       inkscape:collect="always"
       id="linearGradient21869"><stop
         style="stop-color:#3ab464;stop-opacity:1;"
         offset="0"
         id="stop21865" /><stop
         style="stop-color:#3ab464;stop-opacity:0;"
         offset="1"
         id="stop21867" /></linearGradient><inkscape:path-effect
       effect="powerclip"
       id="path-effect10199"
       is_visible="true"
       lpeversion="1"
       inverse="true"
       flatten="false"
       hide_clip="false"
       message="Use fill-rule evenodd on &lt;b&gt;fill and stroke&lt;/b&gt; dialog if no flatten result after convert clip to paths." /><linearGradient
       id="A"
       x2="0.5"
       x1="0.5"
       y2="1"
       y1="0"><stop
         stop-color="#111d2e"
         offset="0%"
         id="stop4" /><stop
         stop-color="#051839"
         offset="21.2%"
         id="stop6" /><stop
         stop-color="#0a1b48"
         offset="40.7%"
         id="stop8" /><stop
         stop-color="#132e62"
         offset="58.1%"
         id="stop10" /><stop
         stop-color="#144b7e"
         offset="73.8%"
         id="stop12" /><stop
         stop-color="#136497"
         offset="87.3%"
         id="stop14" /><stop
         stop-color="#1387b8"
         offset="100%"
         id="stop16" /></linearGradient><mask
       maskUnits="userSpaceOnUse"
       id="mask13017"><g
         id="g13023"
         style="display:inline"
         inkscape:label="Logo Mask"><rect
           style="opacity:1;fill:#000000;fill-opacity:1;stroke-width:0.284631;stroke-dasharray:none;stroke-opacity:0.560311"
           id="rect13019"
           width="22.191282"
           height="19.855356"
           x="-3.2258003"
           y="-1.4738569"
           inkscape:label="Background Mask Back" /><ellipse
           style="display:inline;fill:#ffffff;fill-opacity:1;stroke-width:0.668848;stroke-dasharray:none;stroke-opacity:0.560311"
           id="ellipse13021"
           cx="8.598958"
           cy="-8.598958"
           rx="8.4575005"
           ry="8.4665003"
           inkscape:label="Background Mask Circle"
           transform="rotate(90)" /></g></mask><mask
       maskUnits="userSpaceOnUse"
       id="mask13030"><g
         id="g13040"
         inkscape:label="Chain2Mask"><rect
           style="display:inline;opacity:1;fill:#ffffff;fill-opacity:1;stroke-width:0.264999;stroke-dasharray:none;stroke-opacity:0.560311"
           id="rect13032"
           width="14.961039"
           height="8.8153334"
           x="-9.7052097"
           y="-20.161251" /><path
           style="display:inline;opacity:1;fill:#000000;fill-opacity:0.993289;stroke-width:0.264999;stroke-dasharray:none;stroke-opacity:0.560311"
           d="m -5.7366273,-17.185448 c 1.4493993,0.89661 3.7105543,2.389242 4.2323569,2.595008 0.52180271,0.205766 2.17503357,0.747397 3.4313096,0.167141 0.0022,-0.19307 -0.8326406,-0.653373 -1.77600598,-1.174424 -1.0625146,-0.58686 -2.26830552,-1.239578 -2.67781422,-1.460507 -0.7730956,-0.417083 -2.977871,-0.39749 -3.2098463,-0.127218 z"
           id="path13034"
           sodipodi:nodetypes="czcssc"
           inkscape:label="Chain2Inner" /><path
           style="display:none;opacity:1;fill:#000000;fill-opacity:0.993289;stroke-width:0.323888;stroke-dasharray:none;stroke-opacity:0.560311"
           d="m -2.0439337,-17.269154 c -0.1967177,-0.459652 -0.6021836,-0.666191 -1.0070291,-0.773662 -0.4048455,-0.10747 -0.7924901,-0.0062 -1.2107084,0.136387 0.7099191,0.02356 1.4914488,0.126334 2.2177375,0.637275 z"
           id="path13036"
           sodipodi:nodetypes="czcc"
           inkscape:label="Chain2Glint1" /><path
           style="display:none;opacity:1;fill:#000000;fill-opacity:0.993289;stroke-width:0.264999;stroke-dasharray:none;stroke-opacity:0.560311"
           d="m -3.5316951,-14.488292 c 1.1431485,0.789802 2.4295234,1.064201 3.55950372,1.112345 -1.04777062,0.274276 -1.45708112,0.304422 -2.08747832,0.10801 -0.6303972,-0.196412 -1.2780446,-0.854916 -1.4720254,-1.220355 z"
           id="path13038"
           sodipodi:nodetypes="cczc"
           inkscape:label="Chain2Glint2" /></g></mask><linearGradient
       inkscape:collect="always"
       xlink:href="#linearGradient21869"
       id="linearGradient21871"
       x1="79.901253"
       y1="44.876968"
       x2="79.901253"
       y2="-21.932354"
       gradientUnits="userSpaceOnUse"
       gradientTransform="matrix(10.11949,0,0,4.3612896,-797.7808,90.119041)" /><filter
       inkscape:collect="always"
       style="color-interpolation-filters:sRGB"
       id="filter24672"
       x="-0.18762586"
       y="-1.788825"
       width="1.3752517"
       height="4.5776499"><feGaussianBlur
         inkscape:collect="always"
         stdDeviation="8.4141111"
         id="feGaussianBlur24674" /></filter><filter
       inkscape:collect="always"
       style="color-interpolation-filters:sRGB"
       id="filter1325"
       x="-0.18328184"
       y="-2.3110466"
       width="1.3665637"
       height="5.6220933"><feGaussianBlur
         inkscape:collect="always"
         stdDeviation="10.571532"
         id="feGaussianBlur1327" /></filter><inkscape:path-effect
       effect="fillet_chamfer"
       id="path-effect2587"
       is_visible="true"
       lpeversion="1"
       nodesatellites_param="F,0,0,1,0,0.21166667,0,1 @ F,0,0,1,0,0.21166667,0,1 @ F,0,0,1,0,0.21166667,0,1 @ F,0,0,1,0,0.21166667,0,1"
       unit="px"
       method="auto"
       mode="F"
       radius="0.4"
       chamfer_steps="1"
       flexible="false"
       use_knot_distance="true"
       apply_no_radius="true"
       apply_with_radius="true"
       only_selected="false"
       hide_knots="false" /><inkscape:path-effect
       effect="fillet_chamfer"
       id="path-effect2587-5"
       is_visible="true"
       lpeversion="1"
       nodesatellites_param="F,0,0,1,0,0.21166667,0,1 @ F,0,0,1,0,0.21166667,0,1 @ F,0,0,1,0,0.21166667,0,1 @ F,0,0,1,0,0.21166667,0,1"
       unit="px"
       method="auto"
       mode="F"
       radius="0.8"
       chamfer_steps="1"
       flexible="false"
       use_knot_distance="true"
       apply_no_radius="true"
       apply_with_radius="true"
       only_selected="false"
       hide_knots="false" /><inkscape:path-effect
       effect="fillet_chamfer"
       id="path-effect2587-5-8"
       is_visible="true"
       lpeversion="1"
       nodesatellites_param="F,0,0,1,0,0.21166667,0,1 @ F,0,0,1,0,0.21166667,0,1 @ F,0,0,1,0,0.21166667,0,1 @ F,0,0,1,0,0.21166667,0,1"
       unit="px"
       method="auto"
       mode="F"
       radius="0.8"
       chamfer_steps="1"
       flexible="false"
       use_knot_distance="true"
       apply_no_radius="true"
       apply_with_radius="true"
       only_selected="false"
       hide_knots="false" /><inkscape:path-effect
       effect="fillet_chamfer"
       id="path-effect2587-5-8-8"
       is_visible="true"
       lpeversion="1"
       nodesatellites_param="F,0,0,1,0,0.21166667,0,1 @ F,0,0,1,0,0.21166667,0,1 @ F,0,0,1,0,0.21166667,0,1 @ F,0,0,1,0,0.21166667,0,1"
       unit="px"
       method="auto"
       mode="F"
       radius="0.8"
       chamfer_steps="1"
       flexible="false"
       use_knot_distance="true"
       apply_no_radius="true"
       apply_with_radius="true"
       only_selected="false"
       hide_knots="false" /><inkscape:path-effect
       effect="fillet_chamfer"
       id="path-effect2587-5-8-8-8"
       is_visible="true"
       lpeversion="1"
       nodesatellites_param="F,0,0,1,0,0.21166667,0,1 @ F,0,0,1,0,0.21166667,0,1 @ F,0,0,1,0,0.21166667,0,1 @ F,0,0,1,0,0.21166667,0,1"
       unit="px"
       method="auto"
       mode="F"
       radius="0.8"
       chamfer_steps="1"
       flexible="false"
       use_knot_distance="true"
       apply_no_radius="true"
       apply_with_radius="true"
       only_selected="false"
       hide_knots="false" /><inkscape:path-effect
       effect="fillet_chamfer"
       id="path-effect2587-5-8-8-8-9"
       is_visible="true"
       lpeversion="1"
       nodesatellites_param="F,0,0,1,0,0.21166667,0,1 @ F,0,0,1,0,0.21166667,0,1 @ F,0,0,1,0,0.21166667,0,1 @ F,0,0,1,0,0.21166667,0,1"
       unit="px"
       method="auto"
       mode="F"
       radius="0.8"
       chamfer_steps="1"
       flexible="false"
       use_knot_distance="true"
       apply_no_radius="true"
       apply_with_radius="true"
       only_selected="false"
       hide_knots="false" /><inkscape:path-effect
       effect="fillet_chamfer"
       id="path-effect2587-5-8-8-8-9-6"
       is_visible="true"
       lpeversion="1"
       nodesatellites_param="F,0,0,1,0,0.21166667,0,1 @ F,0,0,1,0,0.21166667,0,1 @ F,0,0,1,0,0.21166667,0,1 @ F,0,0,1,0,0.21166667,0,1"
       unit="px"
       method="auto"
       mode="F"
       radius="0.8"
       chamfer_steps="1"
       flexible="false"
       use_knot_distance="true"
       apply_no_radius="true"
       apply_with_radius="true"
       only_selected="false"
       hide_knots="false" /><inkscape:path-effect
       effect="fillet_chamfer"
       id="path-effect2587-5-8-8-8-9-6-7"
       is_visible="true"
       lpeversion="1"
       nodesatellites_param="F,0,0,1,0,0.21166667,0,1 @ F,0,0,1,0,0.21166667,0,1 @ F,0,0,1,0,0.21166667,0,1 @ F,0,0,1,0,0.21166667,0,1"
       unit="px"
       method="auto"
       mode="F"
       radius="0.8"
       chamfer_steps="1"
       flexible="false"
       use_knot_distance="true"
       apply_no_radius="true"
       apply_with_radius="true"
       only_selected="false"
       hide_knots="false" /><inkscape:path-effect
       effect="fillet_chamfer"
       id="path-effect2587-3"
       is_visible="true"
       lpeversion="1"
       nodesatellites_param="F,0,0,1,0,0.21166667,0,1 @ F,0,0,1,0,0.21166667,0,1 @ F,0,0,1,0,0.21166667,0,1 @ F,0,0,1,0,0.21166667,0,1"
       unit="px"
       method="auto"
       mode="F"
       radius="0.8"
       chamfer_steps="1"
       flexible="false"
       use_knot_distance="true"
       apply_no_radius="true"
       apply_with_radius="true"
       only_selected="false"
       hide_knots="false" /><inkscape:path-effect
       effect="fillet_chamfer"
       id="path-effect2587-5-5"
       is_visible="true"
       lpeversion="1"
       nodesatellites_param="F,0,0,1,0,0.21166667,0,1 @ F,0,0,1,0,0.21166667,0,1 @ F,0,0,1,0,0.21166667,0,1 @ F,0,0,1,0,0.21166667,0,1"
       unit="px"
       method="auto"
       mode="F"
       radius="0.8"
       chamfer_steps="1"
       flexible="false"
       use_knot_distance="true"
       apply_no_radius="true"
       apply_with_radius="true"
       only_selected="false"
       hide_knots="false" /><inkscape:path-effect
       effect="fillet_chamfer"
       id="path-effect2587-5-8-5"
       is_visible="true"
       lpeversion="1"
       nodesatellites_param="F,0,0,1,0,0.21166667,0,1 @ F,0,0,1,0,0.21166667,0,1 @ F,0,0,1,0,0.21166667,0,1 @ F,0,0,1,0,0.21166667,0,1"
       unit="px"
       method="auto"
       mode="F"
       radius="0.8"
       chamfer_steps="1"
       flexible="false"
       use_knot_distance="true"
       apply_no_radius="true"
       apply_with_radius="true"
       only_selected="false"
       hide_knots="false" /><inkscape:path-effect
       effect="fillet_chamfer"
       id="path-effect2587-5-8-8-5"
       is_visible="true"
       lpeversion="1"
       nodesatellites_param="F,0,0,1,0,0.21166667,0,1 @ F,0,0,1,0,0.21166667,0,1 @ F,0,0,1,0,0.21166667,0,1 @ F,0,0,1,0,0.21166667,0,1"
       unit="px"
       method="auto"
       mode="F"
       radius="0.8"
       chamfer_steps="1"
       flexible="false"
       use_knot_distance="true"
       apply_no_radius="true"
       apply_with_radius="true"
       only_selected="false"
       hide_knots="false" /><inkscape:path-effect
       effect="fillet_chamfer"
       id="path-effect2587-5-8-8-8-7"
       is_visible="true"
       lpeversion="1"
       nodesatellites_param="F,0,0,1,0,0.21166667,0,1 @ F,0,0,1,0,0.21166667,0,1 @ F,0,0,1,0,0.21166667,0,1 @ F,0,0,1,0,0.21166667,0,1"
       unit="px"
       method="auto"
       mode="F"
       radius="0.8"
       chamfer_steps="1"
       flexible="false"
       use_knot_distance="true"
       apply_no_radius="true"
       apply_with_radius="true"
       only_selected="false"
       hide_knots="false" /><inkscape:path-effect
       effect="fillet_chamfer"
       id="path-effect2587-5-8-8-8-9-65"
       is_visible="true"
       lpeversion="1"
       nodesatellites_param="F,0,0,1,0,0.21166667,0,1 @ F,0,0,1,0,0.21166667,0,1 @ F,0,0,1,0,0.21166667,0,1 @ F,0,0,1,0,0.21166667,0,1"
       unit="px"
       method="auto"
       mode="F"
       radius="0.8"
       chamfer_steps="1"
       flexible="false"
       use_knot_distance="true"
       apply_no_radius="true"
       apply_with_radius="true"
       only_selected="false"
       hide_knots="false" /><inkscape:path-effect
       effect="fillet_chamfer"
       id="path-effect2587-5-8-8-8-9-6-8"
       is_visible="true"
       lpeversion="1"
       nodesatellites_param="F,0,0,1,0,0.21166667,0,1 @ F,0,0,1,0,0.21166667,0,1 @ F,0,0,1,0,0.21166667,0,1 @ F,0,0,1,0,0.21166667,0,1"
       unit="px"
       method="auto"
       mode="F"
       radius="0.8"
       chamfer_steps="1"
       flexible="false"
       use_knot_distance="true"
       apply_no_radius="true"
       apply_with_radius="true"
       only_selected="false"
       hide_knots="false" /><inkscape:path-effect
       effect="fillet_chamfer"
       id="path-effect2587-5-8-8-8-9-6-7-4"
       is_visible="true"
       lpeversion="1"
       nodesatellites_param="F,0,0,1,0,0.21166667,0,1 @ F,0,0,1,0,0.21166667,0,1 @ F,0,0,1,0,0.21166667,0,1 @ F,0,0,1,0,0.21166667,0,1"
       unit="px"
       method="auto"
       mode="F"
       radius="0.8"
       chamfer_steps="1"
       flexible="false"
       use_knot_distance="true"
       apply_no_radius="true"
       apply_with_radius="true"
       only_selected="false"
       hide_knots="false" /><filter
       inkscape:collect="always"
       style="color-interpolation-filters:sRGB"
       id="filter27312"
       x="-0.33951059"
       y="-0.33974708"
       width="1.6790212"
       height="1.6794942"><feGaussianBlur
         inkscape:collect="always"
         stdDeviation="2.3703301"
         id="feGaussianBlur27314" /></filter><inkscape:path-effect
       effect="fillet_chamfer"
       id="path-effect2587-5-8-85"
       is_visible="true"
       lpeversion="1"
       nodesatellites_param="F,0,0,1,0,0.21166667,0,1 @ F,0,0,1,0,0.21166667,0,1 @ F,0,0,1,0,0.21166667,0,1 @ F,0,0,1,0,0.21166667,0,1"
       unit="px"
       method="auto"
       mode="F"
       radius="0.8"
       chamfer_steps="1"
       flexible="false"
       use_knot_distance="true"
       apply_no_radius="true"
       apply_with_radius="true"
       only_selected="false"
       hide_knots="false" /><inkscape:path-effect
       effect="fillet_chamfer"
       id="path-effect2587-5-6"
       is_visible="true"
       lpeversion="1"
       nodesatellites_param="F,0,0,1,0,0.21166667,0,1 @ F,0,0,1,0,0.21166667,0,1 @ F,0,0,1,0,0.21166667,0,1 @ F,0,0,1,0,0.21166667,0,1"
       unit="px"
       method="auto"
       mode="F"
       radius="0.8"
       chamfer_steps="1"
       flexible="true"
       use_knot_distance="true"
       apply_no_radius="true"
       apply_with_radius="true"
       only_selected="false"
       hide_knots="false" /><inkscape:path-effect
       effect="fillet_chamfer"
       id="path-effect2587-5-1"
       is_visible="true"
       lpeversion="1"
       nodesatellites_param="F,0,0,1,0,0.21166667,0,1 @ F,0,0,1,0,0.21166667,0,1 @ F,0,0,1,0,0.21166667,0,1 @ F,0,0,1,0,0.21166667,0,1"
       unit="px"
       method="auto"
       mode="F"
       radius="0.8"
       chamfer_steps="1"
       flexible="false"
       use_knot_distance="true"
       apply_no_radius="true"
       apply_with_radius="true"
       only_selected="false"
       hide_knots="false" /><inkscape:path-effect
       effect="fillet_chamfer"
       id="path-effect2587-5-1-1"
       is_visible="true"
       lpeversion="1"
       nodesatellites_param="F,0,0,1,0,0.21166667,0,1 @ F,0,0,1,0,0.21166667,0,1 @ F,0,0,1,0,0.21166667,0,1 @ F,0,0,1,0,0.21166667,0,1"
       unit="px"
       method="auto"
       mode="F"
       radius="0.8"
       chamfer_steps="1"
       flexible="false"
       use_knot_distance="true"
       apply_no_radius="true"
       apply_with_radius="true"
       only_selected="false"
       hide_knots="false" /></defs><g
     inkscape:label="Layer 1"
     inkscape:groupmode="layer"
     id="layer1"><rect
       style="font-variation-settings:normal;display:inline;opacity:1;vector-effect:none;fill:url(#linearGradient21871);fill-opacity:1;stroke:none;stroke-width:2.12866;stroke-linecap:butt;stroke-linejoin:miter;stroke-miterlimit:4;stroke-dasharray:none;stroke-dashoffset:0;stroke-opacity:1;-inkscape-stroke:none;paint-order:markers stroke fill;stop-color:#000000;stop-opacity:1"
       id="rect20200"
       width="374.72034"
       height="290.5275"
       x="-2.8532026"
       y="-4.9483724"
       inkscape:label="background gradient" /><text
       xml:space="preserve"
       style="font-style:normal;font-variant:normal;font-weight:bold;font-stretch:normal;font-size:11.2889px;line-height:normal;font-family:sans-serif;-inkscape-font-specification:'sans-serif Bold';font-variant-ligatures:normal;font-variant-position:normal;font-variant-caps:normal;font-variant-numeric:normal;font-variant-alternates:normal;font-variant-east-asian:normal;font-feature-settings:normal;font-variation-settings:normal;text-indent:0;text-align:start;text-decoration-line:none;text-decoration-style:solid;text-decoration-color:#000000;letter-spacing:normal;word-spacing:normal;text-transform:none;writing-mode:lr-tb;direction:ltr;text-orientation:mixed;dominant-baseline:auto;baseline-shift:baseline;white-space:normal;display:inline;vector-effect:none;fill:#ffffff;fill-opacity:1;stroke:none;stroke-width:0.55;stroke-linecap:butt;stroke-linejoin:miter;stroke-miterlimit:4;stroke-dasharray:none;stroke-dashoffset:0;stroke-opacity:1;-inkscape-stroke:none;paint-order:markers stroke fill;filter:url(#filter24672);stop-color:#000000"
       x="174.94695"
       y="79.586487"
       id="text1151-1"
       transform="matrix(1.9460683,0,0,1.9460683,-205.31449,-72.559036)"
       inkscape:label="title glow"><tspan
         id="tspan1149-3"
         style="font-style:normal;font-variant:normal;font-weight:bold;font-stretch:normal;font-size:11.2889px;line-height:normal;font-family:sans-serif;-inkscape-font-specification:'sans-serif Bold';font-variant-ligatures:normal;font-variant-position:normal;font-variant-caps:normal;font-variant-numeric:normal;font-variant-alternates:normal;font-variant-east-asian:normal;font-feature-settings:normal;font-variation-settings:normal;text-indent:0;text-align:start;text-decoration-line:none;text-decoration-style:solid;text-decoration-color:#000000;letter-spacing:normal;word-spacing:normal;text-transform:none;writing-mode:lr-tb;direction:ltr;text-orientation:mixed;dominant-baseline:auto;baseline-shift:baseline;white-space:normal;vector-effect:none;fill:#ffffff;fill-opacity:1;stroke:none;stroke-width:0.55;stroke-linecap:butt;stroke-linejoin:miter;stroke-miterlimit:4;stroke-dasharray:none;stroke-dashoffset:0;stroke-opacity:1;-inkscape-stroke:none;paint-order:markers stroke fill;stop-color:#000000;stop-opacity:1"
         x="0"
         y="0"
         sodipodi:role="line">Better Video Player</tspan></text><text
       xml:space="preserve"
       style="font-style:normal;font-variant:normal;font-weight:bold;font-stretch:normal;font-size:21.969px;line-height:normal;font-family:sans-serif;-inkscape-font-specification:'sans-serif Bold';font-variant-ligatures:normal;font-variant-position:normal;font-variant-caps:normal;font-variant-numeric:normal;font-variant-alternates:normal;font-variant-east-asian:normal;font-feature-settings:normal;font-variation-settings:normal;text-indent:0;text-align:start;text-decoration-line:none;text-decoration-style:solid;text-decoration-color:#000000;letter-spacing:normal;word-spacing:normal;text-transform:none;writing-mode:lr-tb;direction:ltr;text-orientation:mixed;dominant-baseline:auto;baseline-shift:baseline;white-space:normal;display:inline;opacity:1;vector-effect:none;fill:#ffffff;fill-opacity:1;stroke:none;stroke-width:1.07034;stroke-linecap:butt;stroke-linejoin:miter;stroke-miterlimit:4;stroke-dasharray:none;stroke-dashoffset:0;stroke-opacity:1;-inkscape-stroke:none;paint-order:markers stroke fill;stop-color:#000000;stop-opacity:1"
       x="135.14424"
       y="82.321709"
       id="text1151"
       inkscape:label="title"><tspan
         id="tspan1149"
         style="font-style:normal;font-variant:normal;font-weight:bold;font-stretch:normal;font-size:21.969px;line-height:normal;font-family:sans-serif;-inkscape-font-specification:'sans-serif Bold';font-variant-ligatures:normal;font-variant-position:normal;font-variant-caps:normal;font-variant-numeric:normal;font-variant-alternates:normal;font-variant-east-asian:normal;font-feature-settings:normal;font-variation-settings:normal;text-indent:0;text-align:start;text-decoration-line:none;text-decoration-style:solid;text-decoration-color:#000000;letter-spacing:normal;word-spacing:normal;text-transform:none;writing-mode:lr-tb;direction:ltr;text-orientation:mixed;dominant-baseline:auto;baseline-shift:baseline;white-space:normal;vector-effect:none;fill:#ffffff;fill-opacity:1;stroke:none;stroke-width:1.07034;stroke-linecap:butt;stroke-linejoin:miter;stroke-miterlimit:4;stroke-dasharray:none;stroke-dashoffset:0;stroke-opacity:1;-inkscape-stroke:none;paint-order:markers stroke fill;stop-color:#000000;stop-opacity:1"
         x="0"
         y="0"
         sodipodi:role="line">Better Video Player</tspan></text><text
       xml:space="preserve"
       style="font-style:normal;font-variant:normal;font-weight:bold;font-stretch:normal;font-size:14.1111px;line-height:normal;font-family:sans-serif;-inkscape-font-specification:'sans-serif Bold';font-variant-ligatures:normal;font-variant-position:normal;font-variant-caps:normal;font-variant-numeric:normal;font-variant-alternates:normal;font-variant-east-asian:normal;font-feature-settings:normal;font-variation-settings:normal;text-indent:0;text-align:start;text-decoration-line:none;text-decoration-style:solid;text-decoration-color:#000000;letter-spacing:normal;word-spacing:normal;text-transform:none;writing-mode:lr-tb;direction:ltr;text-orientation:mixed;dominant-baseline:auto;baseline-shift:baseline;white-space:pre;inline-size:307.912;display:inline;vector-effect:none;fill:#ffffff;fill-opacity:1;stroke:none;stroke-width:1.07034;stroke-linecap:butt;stroke-linejoin:miter;stroke-miterlimit:4;stroke-dasharray:none;stroke-dashoffset:0;stroke-opacity:1;-inkscape-stroke:none;paint-order:markers stroke fill;stop-color:#000000"
       x="213.228"
       y="89.200874"
       id="text1151-4"
       transform="matrix(0.68810029,0,0,0.68810029,46.624378,39.800606)"
       inkscape:label="subtitle"><tspan
         x="213.228"
         y="89.200874"
         id="tspan18083">New video features!</tspan></text><text
       xml:space="preserve"
       style="font-style:normal;font-variant:normal;font-weight:bold;font-stretch:normal;font-size:14.1111px;line-height:normal;font-family:sans-serif;-inkscape-font-specification:'sans-serif Bold';font-variant-ligatures:normal;font-variant-position:normal;font-variant-caps:normal;font-variant-numeric:normal;font-variant-alternates:normal;font-variant-east-asian:normal;font-feature-settings:normal;font-variation-settings:normal;text-indent:0;text-align:start;text-decoration-line:none;text-decoration-style:solid;text-decoration-color:#000000;letter-spacing:normal;word-spacing:normal;text-transform:none;writing-mode:lr-tb;direction:ltr;text-orientation:mixed;dominant-baseline:auto;baseline-shift:baseline;white-space:pre;inline-size:307.912;display:inline;mix-blend-mode:normal;vector-effect:none;fill:#ffffff;fill-opacity:1;stroke:none;stroke-width:1.07034;stroke-linecap:butt;stroke-linejoin:miter;stroke-miterlimit:4;stroke-dasharray:none;stroke-dashoffset:0;stroke-opacity:1;-inkscape-stroke:none;paint-order:markers stroke fill;filter:url(#filter1325);stop-color:#000000"
       x="213.228"
       y="89.200874"
       id="text1151-4-1"
       transform="matrix(0.68810029,0,0,0.68810029,46.624377,39.800606)"
       inkscape:label="subtitle glow"><tspan
         x="213.228"
         y="89.200874"
         id="tspan18085">New video features!</tspan></text><rect
       style="font-variation-settings:normal;display:inline;vector-effect:none;fill:#eff4f8;fill-opacity:1;stroke:none;stroke-width:3.03589;stroke-linecap:butt;stroke-linejoin:miter;stroke-miterlimit:4;stroke-dasharray:none;stroke-dashoffset:0;stroke-opacity:1;-inkscape-stroke:none;paint-order:markers stroke fill;stop-color:#000000"
       id="rect20075-7-22-7-0-77-0"
       width="416.49557"
       height="170.00127"
       x="-34.500305"
       y="126.24329"
       ry="0"
       inkscape:label="reels back bottom" /><path
       id="rect10201-5"
       style="fill:#001000;fill-opacity:1;stroke-width:1.16979;-inkscape-stroke:none;paint-order:markers stroke fill;stop-color:#000000"
       inkscape:label="film bottom"
       d="M -6.1996218 -124.95568 L -6.1996218 -156.52843 L 370.5991 -156.52843 L 370.5991 -124.95568 L -6.1996218 -124.95568 z M 13.479281 -129.33474 L 19.179192 -129.33474 A 2.4273286 2.4273286 0 0 0 21.606434 -131.76199 L 21.606434 -141.95465 A 2.4273286 2.4273286 0 0 0 19.179192 -144.38189 L 13.479281 -144.38189 A 2.4273286 2.4273286 0 0 0 11.052039 -141.95465 L 11.052039 -131.76199 A 2.4273286 2.4273286 0 0 0 13.479281 -129.33474 z M 34.589104 -129.33474 L 40.289015 -129.33474 A 2.4273286 2.4273286 0 0 0 42.716257 -131.76199 L 42.716257 -141.95465 A 2.4273286 2.4273286 0 0 0 40.289015 -144.38189 L 34.589104 -144.38189 A 2.4273286 2.4273286 0 0 0 32.161862 -141.95465 L 32.161862 -131.76199 A 2.4273286 2.4273286 0 0 0 34.589104 -129.33474 z M 55.698927 -129.33474 L 61.398838 -129.33474 A 2.4273286 2.4273286 0 0 0 63.82608 -131.76199 L 63.82608 -141.95465 A 2.4273286 2.4273286 0 0 0 61.398838 -144.38189 L 55.698927 -144.38189 A 2.4273286 2.4273286 0 0 0 53.271685 -141.95465 L 53.271685 -131.76199 A 2.4273286 2.4273286 0 0 0 55.698927 -129.33474 z M 76.808751 -129.33474 L 82.508661 -129.33474 A 2.4273286 2.4273286 0 0 0 84.935903 -131.76199 L 84.935903 -141.95465 A 2.4273286 2.4273286 0 0 0 82.508661 -144.38189 L 76.808751 -144.38189 A 2.4273286 2.4273286 0 0 0 74.381509 -141.95465 L 74.381509 -131.76199 A 2.4273286 2.4273286 0 0 0 76.808751 -129.33474 z M 97.918574 -129.33474 L 103.61848 -129.33474 A 2.4273286 2.4273286 0 0 0 106.04573 -131.76199 L 106.04573 -141.95465 A 2.4273286 2.4273286 0 0 0 103.61848 -144.38189 L 97.918574 -144.38189 A 2.4273286 2.4273286 0 0 0 95.491332 -141.95465 L 95.491332 -131.76199 A 2.4273286 2.4273286 0 0 0 97.918574 -129.33474 z M 119.02891 -129.33474 L 124.72831 -129.33474 A 2.4273286 2.4273286 0 0 0 127.15607 -131.76199 L 127.15607 -141.95465 A 2.4273286 2.4273286 0 0 0 124.72831 -144.38189 L 119.02891 -144.38189 A 2.4273286 2.4273286 0 0 0 116.60115 -141.95465 L 116.60115 -131.76199 A 2.4273286 2.4273286 0 0 0 119.02891 -129.33474 z M 140.13874 -129.33474 L 145.83865 -129.33474 A 2.4273286 2.4273286 0 0 0 148.26589 -131.76199 L 148.26589 -141.95465 A 2.4273286 2.4273286 0 0 0 145.83865 -144.38189 L 140.13874 -144.38189 A 2.4273286 2.4273286 0 0 0 137.71149 -141.95465 L 137.71149 -131.76199 A 2.4273286 2.4273286 0 0 0 140.13874 -129.33474 z M 161.24856 -129.33474 L 166.94847 -129.33474 A 2.4273286 2.4273286 0 0 0 169.37571 -131.76199 L 169.37571 -141.95465 A 2.4273286 2.4273286 0 0 0 166.94847 -144.38189 L 161.24856 -144.38189 A 2.4273286 2.4273286 0 0 0 158.82132 -141.95465 L 158.82132 -131.76199 A 2.4273286 2.4273286 0 0 0 161.24856 -129.33474 z M 182.35838 -129.33474 L 188.05829 -129.33474 A 2.4273286 2.4273286 0 0 0 190.48554 -131.76199 L 190.48554 -141.95465 A 2.4273286 2.4273286 0 0 0 188.05829 -144.38189 L 182.35838 -144.38189 A 2.4273286 2.4273286 0 0 0 179.93114 -141.95465 L 179.93114 -131.76199 A 2.4273286 2.4273286 0 0 0 182.35838 -129.33474 z M 203.46821 -129.33474 L 209.16812 -129.33474 A 2.4273286 2.4273286 0 0 0 211.59536 -131.76199 L 211.59536 -141.95465 A 2.4273286 2.4273286 0 0 0 209.16812 -144.38189 L 203.46821 -144.38189 A 2.4273286 2.4273286 0 0 0 201.04096 -141.95465 L 201.04096 -131.76199 A 2.4273286 2.4273286 0 0 0 203.46821 -129.33474 z M 224.57803 -129.33474 L 230.27794 -129.33474 A 2.4273286 2.4273286 0 0 0 232.70518 -131.76199 L 232.70518 -141.95465 A 2.4273286 2.4273286 0 0 0 230.27794 -144.38189 L 224.57803 -144.38189 A 2.4273286 2.4273286 0 0 0 222.15079 -141.95465 L 222.15079 -131.76199 A 2.4273286 2.4273286 0 0 0 224.57803 -129.33474 z M 245.68837 -129.33474 L 251.38776 -129.33474 A 2.4273286 2.4273286 0 0 0 253.81552 -131.76199 L 253.81552 -141.95465 A 2.4273286 2.4273286 0 0 0 251.38776 -144.38189 L 245.68837 -144.38189 A 2.4273286 2.4273286 0 0 0 243.26061 -141.95465 L 243.26061 -131.76199 A 2.4273286 2.4273286 0 0 0 245.68837 -129.33474 z M 266.79819 -129.33474 L 272.4981 -129.33474 A 2.4273286 2.4273286 0 0 0 274.92535 -131.76199 L 274.92535 -141.95465 A 2.4273286 2.4273286 0 0 0 272.4981 -144.38189 L 266.79819 -144.38189 A 2.4273286 2.4273286 0 0 0 264.37095 -141.95465 L 264.37095 -131.76199 A 2.4273286 2.4273286 0 0 0 266.79819 -129.33474 z M 287.90802 -129.33474 L 293.60793 -129.33474 A 2.4273286 2.4273286 0 0 0 296.03517 -131.76199 L 296.03517 -141.95465 A 2.4273286 2.4273286 0 0 0 293.60793 -144.38189 L 287.90802 -144.38189 A 2.4273286 2.4273286 0 0 0 285.48077 -141.95465 L 285.48077 -131.76199 A 2.4273286 2.4273286 0 0 0 287.90802 -129.33474 z M 309.01784 -129.33474 L 314.71775 -129.33474 A 2.4273286 2.4273286 0 0 0 317.14499 -131.76199 L 317.14499 -141.95465 A 2.4273286 2.4273286 0 0 0 314.71775 -144.38189 L 309.01784 -144.38189 A 2.4273286 2.4273286 0 0 0 306.5906 -141.95465 L 306.5906 -131.76199 A 2.4273286 2.4273286 0 0 0 309.01784 -129.33474 z M 330.12766 -129.33474 L 335.82757 -129.33474 A 2.4273286 2.4273286 0 0 0 338.25482 -131.76199 L 338.25482 -141.95465 A 2.4273286 2.4273286 0 0 0 335.82757 -144.38189 L 330.12766 -144.38189 A 2.4273286 2.4273286 0 0 0 327.70042 -141.95465 L 327.70042 -131.76199 A 2.4273286 2.4273286 0 0 0 330.12766 -129.33474 z M 351.23749 -129.33474 L 356.9374 -129.33474 A 2.4273286 2.4273286 0 0 0 359.36464 -131.76199 L 359.36464 -141.95465 A 2.4273286 2.4273286 0 0 0 356.9374 -144.38189 L 351.23749 -144.38189 A 2.4273286 2.4273286 0 0 0 348.81024 -141.95465 L 348.81024 -131.76199 A 2.4273286 2.4273286 0 0 0 351.23749 -129.33474 z "
       transform="scale(1,-1)" /><rect
       style="font-variation-settings:normal;display:inline;vector-effect:none;fill:#f0f4f9;fill-opacity:1;stroke:none;stroke-width:3.03589;stroke-linecap:butt;stroke-linejoin:miter;stroke-miterlimit:4;stroke-dasharray:none;stroke-dashoffset:0;stroke-opacity:1;-inkscape-stroke:none;paint-order:markers stroke fill;stop-color:#000000"
       id="rect20075-7-22-7-0-77"
       width="416.49557"
       height="170.00127"
       x="-28.490717"
       y="-148.81972"
       ry="0"
       inkscape:label="reels back top" /><path
       id="rect10201"
       style="display:inline;fill:#001000;fill-opacity:1;stroke-width:1.16979;-inkscape-stroke:none;paint-order:markers stroke fill;stop-color:#000000"
       inkscape:label="film top"
       d="M -2.9476238,-8.2785647 V 23.294186 H 373.85058 V -8.2785647 Z M 13.479281,4.3976645 h 5.699911 a 2.4273286,2.4273286 0 0 1 2.427242,2.4272421 V 17.017566 a 2.4273286,2.4273286 0 0 1 -2.427242,2.427243 H 13.479281 A 2.4273286,2.4273286 0 0 1 11.052039,17.017566 V 6.8249066 a 2.4273286,2.4273286 0 0 1 2.427242,-2.4272421 z m 21.109823,0 h 5.699911 a 2.4273286,2.4273286 0 0 1 2.427242,2.4272421 V 17.017566 a 2.4273286,2.4273286 0 0 1 -2.427242,2.427243 H 34.589104 A 2.4273286,2.4273286 0 0 1 32.161862,17.017566 V 6.8249066 a 2.4273286,2.4273286 0 0 1 2.427242,-2.4272421 z m 21.109823,0 h 5.699911 A 2.4273286,2.4273286 0 0 1 63.82608,6.8249066 V 17.017566 a 2.4273286,2.4273286 0 0 1 -2.427242,2.427243 H 55.698927 A 2.4273286,2.4273286 0 0 1 53.271685,17.017566 V 6.8249066 a 2.4273286,2.4273286 0 0 1 2.427242,-2.4272421 z m 21.109824,0 h 5.69991 a 2.4273286,2.4273286 0 0 1 2.427242,2.4272421 V 17.017566 a 2.4273286,2.4273286 0 0 1 -2.427242,2.427243 h -5.69991 A 2.4273286,2.4273286 0 0 1 74.381509,17.017566 V 6.8249066 a 2.4273286,2.4273286 0 0 1 2.427242,-2.4272421 z m 21.109823,0 h 5.699906 a 2.4273286,2.4273286 0 0 1 2.42725,2.4272421 V 17.017566 a 2.4273286,2.4273286 0 0 1 -2.42725,2.427243 H 97.918574 A 2.4273286,2.4273286 0 0 1 95.491332,17.017566 V 6.8249066 a 2.4273286,2.4273286 0 0 1 2.427242,-2.4272421 z m 21.110336,0 h 5.6994 a 2.4273286,2.4273286 0 0 1 2.42776,2.4272421 V 17.017566 a 2.4273286,2.4273286 0 0 1 -2.42776,2.427243 h -5.6994 a 2.4273286,2.4273286 0 0 1 -2.42776,-2.427243 V 6.8249066 a 2.4273286,2.4273286 0 0 1 2.42776,-2.4272421 z m 21.10983,0 h 5.69991 a 2.4273286,2.4273286 0 0 1 2.42724,2.4272421 V 17.017566 a 2.4273286,2.4273286 0 0 1 -2.42724,2.427243 h -5.69991 a 2.4273286,2.4273286 0 0 1 -2.42725,-2.427243 V 6.8249066 a 2.4273286,2.4273286 0 0 1 2.42725,-2.4272421 z m 21.10982,0 h 5.69991 a 2.4273286,2.4273286 0 0 1 2.42724,2.4272421 V 17.017566 a 2.4273286,2.4273286 0 0 1 -2.42724,2.427243 h -5.69991 a 2.4273286,2.4273286 0 0 1 -2.42724,-2.427243 V 6.8249066 a 2.4273286,2.4273286 0 0 1 2.42724,-2.4272421 z m 21.10982,0 h 5.69991 a 2.4273286,2.4273286 0 0 1 2.42725,2.4272421 V 17.017566 a 2.4273286,2.4273286 0 0 1 -2.42725,2.427243 h -5.69991 a 2.4273286,2.4273286 0 0 1 -2.42724,-2.427243 V 6.8249066 a 2.4273286,2.4273286 0 0 1 2.42724,-2.4272421 z m 21.10983,0 h 5.69991 a 2.4273286,2.4273286 0 0 1 2.42724,2.4272421 V 17.017566 a 2.4273286,2.4273286 0 0 1 -2.42724,2.427243 h -5.69991 a 2.4273286,2.4273286 0 0 1 -2.42725,-2.427243 V 6.8249066 a 2.4273286,2.4273286 0 0 1 2.42725,-2.4272421 z m 21.10982,0 h 5.69991 a 2.4273286,2.4273286 0 0 1 2.42724,2.4272421 V 17.017566 a 2.4273286,2.4273286 0 0 1 -2.42724,2.427243 h -5.69991 a 2.4273286,2.4273286 0 0 1 -2.42724,-2.427243 V 6.8249066 a 2.4273286,2.4273286 0 0 1 2.42724,-2.4272421 z m 21.11034,0 h 5.69939 a 2.4273286,2.4273286 0 0 1 2.42776,2.4272421 V 17.017566 a 2.4273286,2.4273286 0 0 1 -2.42776,2.427243 h -5.69939 a 2.4273286,2.4273286 0 0 1 -2.42776,-2.427243 V 6.8249066 a 2.4273286,2.4273286 0 0 1 2.42776,-2.4272421 z m 21.10982,0 h 5.69991 a 2.4273286,2.4273286 0 0 1 2.42725,2.4272421 V 17.017566 a 2.4273286,2.4273286 0 0 1 -2.42725,2.427243 h -5.69991 a 2.4273286,2.4273286 0 0 1 -2.42724,-2.427243 V 6.8249066 a 2.4273286,2.4273286 0 0 1 2.42724,-2.4272421 z m 21.10983,0 h 5.69991 a 2.4273286,2.4273286 0 0 1 2.42724,2.4272421 V 17.017566 a 2.4273286,2.4273286 0 0 1 -2.42724,2.427243 h -5.69991 a 2.4273286,2.4273286 0 0 1 -2.42725,-2.427243 V 6.8249066 a 2.4273286,2.4273286 0 0 1 2.42725,-2.4272421 z m 21.10982,0 h 5.69991 a 2.4273286,2.4273286 0 0 1 2.42724,2.4272421 V 17.017566 a 2.4273286,2.4273286 0 0 1 -2.42724,2.427243 h -5.69991 A 2.4273286,2.4273286 0 0 1 306.5906,17.017566 V 6.8249066 a 2.4273286,2.4273286 0 0 1 2.42724,-2.4272421 z m 21.10982,0 h 5.69991 a 2.4273286,2.4273286 0 0 1 2.42725,2.4272421 V 17.017566 a 2.4273286,2.4273286 0 0 1 -2.42725,2.427243 h -5.69991 a 2.4273286,2.4273286 0 0 1 -2.42724,-2.427243 V 6.8249066 a 2.4273286,2.4273286 0 0 1 2.42724,-2.4272421 z m 21.10983,0 h 5.69991 a 2.4273286,2.4273286 0 0 1 2.42724,2.4272421 V 17.017566 a 2.4273286,2.4273286 0 0 1 -2.42724,2.427243 h -5.69991 a 2.4273286,2.4273286 0 0 1 -2.42725,-2.427243 V 6.8249066 a 2.4273286,2.4273286 0 0 1 2.42725,-2.4272421 z" /><path
       id="rect9781-9-60"
       style="fill:#ffffff;fill-opacity:1;stroke-width:6.67516;-inkscape-stroke:none;paint-order:markers stroke fill;stop-color:#000000"
       d="m 715.01463,45.081496 a 2.4273286,2.4273286 0 0 0 -2.42724,2.427242 v 10.19266 a 2.4273286,2.4273286 0 0 0 2.42724,2.427242 h 5.69991 a 2.4273286,2.4273286 0 0 0 2.42724,-2.427242 v -10.19266 a 2.4273286,2.4273286 0 0 0 -2.42724,-2.427242 z m 21.10982,0 a 2.4273286,2.4273286 0 0 0 -2.42724,2.427242 v 10.19266 a 2.4273286,2.4273286 0 0 0 2.42724,2.427242 h 5.69991 a 2.4273286,2.4273286 0 0 0 2.42724,-2.427242 v -10.19266 a 2.4273286,2.4273286 0 0 0 -2.42724,-2.427242 z m 21.10982,0 a 2.4273286,2.4273286 0 0 0 -2.42724,2.427242 v 10.19266 a 2.4273286,2.4273286 0 0 0 2.42724,2.427242 h 5.69991 a 2.4273286,2.4273286 0 0 0 2.42724,-2.427242 v -10.19266 a 2.4273286,2.4273286 0 0 0 -2.42724,-2.427242 z m 21.10983,0 a 2.4273286,2.4273286 0 0 0 -2.42725,2.427242 v 10.19266 a 2.4273286,2.4273286 0 0 0 2.42725,2.427242 h 5.69991 a 2.4273286,2.4273286 0 0 0 2.42724,-2.427242 v -10.19266 a 2.4273286,2.4273286 0 0 0 -2.42724,-2.427242 z m 21.10982,0 a 2.4273286,2.4273286 0 0 0 -2.42724,2.427242 v 10.19266 a 2.4273286,2.4273286 0 0 0 2.42724,2.427242 h 5.69991 a 2.4273286,2.4273286 0 0 0 2.42724,-2.427242 v -10.19266 a 2.4273286,2.4273286 0 0 0 -2.42724,-2.427242 z m 21.11034,0 a 2.4273286,2.4273286 0 0 0 -2.42776,2.427242 v 10.19266 a 2.4273286,2.4273286 0 0 0 2.42776,2.427242 h 5.69939 a 2.4273286,2.4273286 0 0 0 2.42776,-2.427242 v -10.19266 a 2.4273286,2.4273286 0 0 0 -2.42776,-2.427242 z m 21.10982,0 a 2.4273286,2.4273286 0 0 0 -2.42724,2.427242 v 10.19266 a 2.4273286,2.4273286 0 0 0 2.42724,2.427242 h 5.69991 a 2.4273286,2.4273286 0 0 0 2.42724,-2.427242 v -10.19266 a 2.4273286,2.4273286 0 0 0 -2.42724,-2.427242 z m 21.10982,0 a 2.4273286,2.4273286 0 0 0 -2.42724,2.427242 v 10.19266 a 2.4273286,2.4273286 0 0 0 2.42724,2.427242 h 5.69991 a 2.4273286,2.4273286 0 0 0 2.42725,-2.427242 v -10.19266 a 2.4273286,2.4273286 0 0 0 -2.42725,-2.427242 z m 21.10983,0 a 2.4273286,2.4273286 0 0 0 -2.42725,2.427242 v 10.19266 a 2.4273286,2.4273286 0 0 0 2.42725,2.427242 h 5.69991 a 2.4273286,2.4273286 0 0 0 2.42724,-2.427242 v -10.19266 a 2.4273286,2.4273286 0 0 0 -2.42724,-2.427242 z m 21.10982,0 a 2.4273286,2.4273286 0 0 0 -2.42724,2.427242 v 10.19266 a 2.4273286,2.4273286 0 0 0 2.42724,2.427242 h 5.69991 a 2.4273286,2.4273286 0 0 0 2.42724,-2.427242 v -10.19266 a 2.4273286,2.4273286 0 0 0 -2.42724,-2.427242 z m 21.10982,0 a 2.4273286,2.4273286 0 0 0 -2.42724,2.427242 v 10.19266 a 2.4273286,2.4273286 0 0 0 2.42724,2.427242 h 5.69991 a 2.4273286,2.4273286 0 0 0 2.42725,-2.427242 v -10.19266 a 2.4273286,2.4273286 0 0 0 -2.42725,-2.427242 z m 21.11034,0 a 2.4273286,2.4273286 0 0 0 -2.42776,2.427242 v 10.19266 a 2.4273286,2.4273286 0 0 0 2.42776,2.427242 h 5.6994 a 2.4273286,2.4273286 0 0 0 2.42776,-2.427242 v -10.19266 a 2.4273286,2.4273286 0 0 0 -2.42776,-2.427242 z m 21.10983,0 a 2.4273286,2.4273286 0 0 0 -2.42725,2.427242 v 10.19266 a 2.4273286,2.4273286 0 0 0 2.42725,2.427242 h 5.69991 a 2.4273286,2.4273286 0 0 0 2.42724,-2.427242 v -10.19266 a 2.4273286,2.4273286 0 0 0 -2.42724,-2.427242 z m 21.10982,0 a 2.4273286,2.4273286 0 0 0 -2.42724,2.427242 v 10.19266 a 2.4273286,2.4273286 0 0 0 2.42724,2.427242 h 5.69991 a 2.4273286,2.4273286 0 0 0 2.42724,-2.427242 v -10.19266 a 2.4273286,2.4273286 0 0 0 -2.42724,-2.427242 z m 21.10984,0 a 2.4273286,2.4273286 0 0 0 -2.4273,2.427242 v 10.19266 a 2.4273286,2.4273286 0 0 0 2.4273,2.427242 h 5.6999 a 2.4273286,2.4273286 0 0 0 2.4272,-2.427242 v -10.19266 a 2.4273286,2.4273286 0 0 0 -2.4272,-2.427242 z m 21.1098,0 a 2.4273286,2.4273286 0 0 0 -2.4272,2.427242 v 10.19266 a 2.4273286,2.4273286 0 0 0 2.4272,2.427242 h 5.6999 a 2.4273286,2.4273286 0 0 0 2.4273,-2.427242 v -10.19266 a 2.4273286,2.4273286 0 0 0 -2.4273,-2.427242 z m 21.1098,0 a 2.4273286,2.4273286 0 0 0 -2.4272,2.427242 v 10.19266 a 2.4273286,2.4273286 0 0 0 2.4272,2.427242 h 5.6999 a 2.4273286,2.4273286 0 0 0 2.4273,-2.427242 v -10.19266 a 2.4273286,2.4273286 0 0 0 -2.4273,-2.427242 z"
       inkscape:label="reels ref" /><path
       id="rect9781-1-5-8-6"
       d="m 780.65368,-28.147383 h 5.69976 a 2.4273286,2.4273286 0 0 1 2.42733,2.427332 v 10.192532 a 2.4273286,2.4273286 0 0 1 -2.42733,2.427332 h -5.69976 a 2.4273286,2.4273286 0 0 1 -2.42734,-2.427332 v -10.192532 a 2.4273286,2.4273286 0 0 1 2.42734,-2.427332 z"
       style="display:inline;fill:#ffffff;fill-opacity:1;stroke-width:6.67516;-inkscape-stroke:none;paint-order:markers stroke fill;stop-color:#000000"
       inkscape:label="reel ref" /><rect
       style="font-variation-settings:normal;display:inline;vector-effect:none;fill:#ffffff;fill-opacity:1;stroke:none;stroke-width:5.31417;stroke-linecap:butt;stroke-linejoin:miter;stroke-miterlimit:4;stroke-dasharray:none;stroke-dashoffset:0;stroke-opacity:1;-inkscape-stroke:none;paint-order:markers stroke fill;stop-color:#000000"
       id="rect20075-7-22"
       width="977.61548"
       height="221.91899"
       x="-303.07605"
       y="148.16667"
       ry="0"
       inkscape:label="border bottom" /><rect
       style="font-variation-settings:normal;display:inline;vector-effect:none;fill:#ffffff;fill-opacity:1;stroke:none;stroke-width:5.14399;stroke-linecap:butt;stroke-linejoin:miter;stroke-miterlimit:4;stroke-dasharray:none;stroke-dashoffset:0;stroke-opacity:1;-inkscape-stroke:none;paint-order:markers stroke fill;stop-color:#000000"
       id="rect20075-7-22-7"
       width="976.47028"
       height="208.17606"
       x="-303.79028"
       y="-208.17606"
       ry="0"
       inkscape:label="border top" /><rect
       style="font-variation-settings:normal;display:inline;vector-effect:none;fill:#ffffff;fill-opacity:1;stroke:none;stroke-width:2.58807;stroke-linecap:butt;stroke-linejoin:miter;stroke-miterlimit:4;stroke-dasharray:none;stroke-dashoffset:0;stroke-opacity:1;-inkscape-stroke:none;paint-order:markers stroke fill;stop-color:#000000"
       id="rect20075-7-22-7-0"
       width="302.68488"
       height="170.00127"
       x="370.41669"
       y="-7.0061889"
       ry="0"
       inkscape:label="border right" /><rect
       style="font-variation-settings:normal;display:inline;vector-effect:none;fill:#ffffff;fill-opacity:1;stroke:none;stroke-width:2.79484;stroke-linecap:butt;stroke-linejoin:miter;stroke-miterlimit:4;stroke-dasharray:none;stroke-dashoffset:0;stroke-opacity:1;-inkscape-stroke:none;paint-order:markers stroke fill;stop-color:#000000"
       id="rect20075-7-22-7-0-7"
       width="302.68488"
       height="198.25063"
       x="-302.68488"
       y="-11.865053"
       ry="0"
       inkscape:label="border left" /><g
       inkscape:label="Logo"
       id="layer1-8"
       style="display:inline"
       transform="matrix(6.1745287,0,0,6.1745287,19.9266,20.699756)"><path
         id="path426-7"
         style="display:inline;fill:#e8ffe7;fill-opacity:0.501901;stroke-width:0.55;-inkscape-stroke:none;paint-order:markers stroke fill;filter:url(#filter27312);stop-color:#000000"
         class="UnoptimicedTransforms"
         inkscape:label="glow"
         d="m 16.75627,0.08197055 c 0,0 -8.3285506,1.83585135 -16.46411099,2.01124675 0,0 -0.0539145,9.8992897 0.42116293,14.7329507 C 7.0057018,16.634611 12.626829,15.59359 17.046175,14.725521 16.641877,10.20076 16.637618,3.3560525 16.75627,0.08197055 Z M 15.578048,1.0834598 a 0.19713364,0.22526404 41.33357 0 1 0.186035,0.1860352 l -0.0021,0.7968505 A 0.19713364,0.22526404 41.33357 0 1 15.55166,2.3056074 l -0.447001,0.058394 A 0.19713364,0.22526404 41.33357 0 1 14.894885,2.1800337 l 0.0021,-0.7968506 a 0.19713364,0.22526404 41.33357 0 1 0.210323,-0.2392619 l 0.447518,-0.058911 a 0.19713364,0.22526404 41.33357 0 1 0.02326,-0.00155 z m -1.97404,0.3627686 a 0.19361708,0.22829364 41.275533 0 1 0.181901,0.1829345 l -0.01344,0.7968506 A 0.19361708,0.22829364 41.275533 0 1 13.559566,2.668376 L 13.109465,2.735039 A 0.19361708,0.22829364 41.275533 0 1 12.903792,2.5546878 l 0.01344,-0.7968506 A 0.19361708,0.22829364 41.275533 0 1 13.130135,1.514958 l 0.450102,-0.066663 a 0.19361708,0.22829364 41.275533 0 1 0.02377,-0.00207 z m -1.985409,0.3358968 a 0.19565852,0.22654647 41.043775 0 1 0.185002,0.1839681 l -0.0031,0.7968506 a 0.19565852,0.22654647 41.043775 0 1 -0.210323,0.2418457 l -0.450618,0.064595 a 0.19565852,0.22654647 41.043775 0 1 -0.208773,-0.181901 l 0.0031,-0.7973674 A 0.19565852,0.22654647 41.043775 0 1 11.14421,1.8487878 l 0.451135,-0.064596 a 0.19565852,0.22654647 41.043775 0 1 0.02325,-0.00207 z M 9.637325,2.0895999 A 0.2007022,0.22209049 41.971244 0 1 9.8243937,2.280286 l 0.00207,0.7984009 A 0.2007022,0.22209049 41.971244 0 1 9.6166545,3.3117476 L 9.1717204,3.3582564 A 0.2007022,0.22209049 41.971244 0 1 8.9608805,3.1680871 L 8.9588135,2.370203 A 0.2007022,0.22209049 41.971244 0 1 9.1691366,2.1366255 l 0.4444173,-0.045992 a 0.2007022,0.22209049 41.971244 0 1 0.023771,-0.00103 z M 7.6839559,2.352633 a 0.20212879,0.22079291 41.554561 0 1 0.1901693,0.190686 l 0.012919,0.7978841 A 0.20212879,0.22079291 41.554561 0 1 7.6798218,3.5747806 L 7.236438,3.6212894 A 0.20212879,0.22079291 41.554561 0 1 7.0224976,3.4316369 L 7.0095784,2.6337528 A 0.20212879,0.22079291 41.554561 0 1 7.2168009,2.4001753 l 0.4433838,-0.046509 a 0.20212879,0.22079291 41.554561 0 1 0.023771,-0.00103 z M 5.6980306,2.5722578 a 0.20575943,0.21741347 43.678275 0 1 0.2108398,0.2010213 l -0.00362,0.7968506 A 0.20575943,0.21741347 43.678275 0 1 5.692863,3.7928552 L 5.2489624,3.815076 A 0.20575943,0.21741347 43.678275 0 1 5.0386393,3.6140547 l 0.00362,-0.7973674 A 0.20575943,0.21741347 43.678275 0 1 5.25413,2.5944787 Z M 3.7348429,2.7391727 a 0.21049762,0.2128293 44.322414 0 1 0.2129069,0.208256 l 0.00517,0.8123535 A 0.21049762,0.2128293 44.322414 0 1 3.7425944,3.975273 l -0.4408,0.00775 A 0.21049762,0.2128293 44.322414 0 1 3.0888875,3.7747684 L 3.0837199,2.9624149 A 0.21049762,0.2128293 44.322414 0 1 3.294043,2.7469242 Z m -1.9585368,0.098702 a 0.20773122,0.21553027 43.329185 0 1 0.2139405,0.2015381 l 0.00827,0.7978841 A 0.20773122,0.21553027 43.329185 0 1 1.7892253,4.0595055 L 1.346875,4.0801761 A 0.20773122,0.21553027 43.329185 0 1 1.1334513,3.878638 L 1.1246663,3.0807539 A 0.20773122,0.21553027 43.329185 0 1 1.3339559,2.859062 Z M 15.825061,12.898759 a 0.20027518,0.22247564 37.954768 0 1 0.199471,0.17725 l 0.05633,0.793234 a 0.20027518,0.22247564 37.954768 0 1 -0.193786,0.248047 l -0.442351,0.07855 a 0.20027518,0.22247564 37.954768 0 1 -0.223242,-0.17415 l -0.05581,-0.793233 a 0.20027518,0.22247564 37.954768 0 1 0.19327,-0.248047 l 0.44235,-0.07855 a 0.20027518,0.22247564 37.954768 0 1 0.02377,-0.0031 z m -1.970939,0.380856 a 0.20254898,0.22040751 38.893404 0 1 0.199471,0.181901 l 0.05168,0.797884 a 0.20254898,0.22040751 38.893404 0 1 -0.195853,0.242362 l -0.439767,0.06615 a 0.20254898,0.22040751 38.893404 0 1 -0.222725,-0.179834 l -0.05168,-0.797884 a 0.20254898,0.22040751 38.893404 0 1 0.195854,-0.242363 l 0.439767,-0.06615 a 0.20254898,0.22040751 38.893404 0 1 0.02325,-0.0021 z m -1.986442,0.341064 a 0.20598162,0.21720297 39.029813 0 1 0.200504,0.185518 l 0.06253,0.799952 a 0.20598162,0.21720297 39.029813 0 1 -0.193787,0.238228 l -0.439766,0.05788 a 0.20598162,0.21720297 39.029813 0 1 -0.225826,-0.183452 l -0.06253,-0.799951 a 0.20598162,0.21720297 39.029813 0 1 0.19327,-0.238228 l 0.439767,-0.05788 a 0.20598162,0.21720297 39.029813 0 1 0.02584,-0.0021 z m -1.9621543,0.31936 a 0.20805597,0.2152168 39.942246 0 1 0.2005043,0.19017 l 0.05633,0.790132 a 0.20805597,0.2152168 39.942246 0 1 -0.1953373,0.233578 l -0.4387329,0.04599 A 0.20805597,0.2152168 39.942246 0 1 9.3029785,15.011292 l -0.056844,-0.79065 a 0.20805597,0.2152168 39.942246 0 1 0.195337,-0.23306 l 0.4387329,-0.04651 a 0.20805597,0.2152168 39.942246 0 1 0.025321,-10e-4 z m -1.9337321,0.271302 a 0.2070445,0.21619004 40.237153 0 1 0.1979208,0.190169 l 0.049093,0.798918 a 0.2070445,0.21619004 40.237153 0 1 -0.197404,0.23306 l -0.4392497,0.04651 A 0.2070445,0.21619004 40.237153 0 1 7.3589111,15.290861 L 7.3093021,14.491944 A 0.2070445,0.21619004 40.237153 0 1 7.506706,14.258366 l 0.4397665,-0.04599 a 0.2070445,0.21619004 40.237153 0 1 0.025321,-0.001 z m -1.9885091,0.236161 a 0.21220333,0.21112865 39.968158 0 1 0.2046387,0.19327 l 0.071313,0.786515 a 0.21220333,0.21112865 39.968158 0 1 -0.1917195,0.22841 l -0.4387329,0.03772 A 0.21220333,0.21112865 39.968158 0 1 5.3988241,15.500668 l -0.071313,-0.786516 a 0.21220333,0.21112865 39.968158 0 1 0.1922363,-0.228926 l 0.4382161,-0.03721 a 0.21220333,0.21112865 39.968158 0 1 0.025321,-5.17e-4 z m -1.9781738,0.174666 a 0.21351465,0.20980242 40.427156 0 1 0.2299601,0.195854 l 0.069763,0.787032 A 0.21351465,0.20980242 40.427156 0 1 4.1120809,15.83088 l -0.4408,0.03152 A 0.21351465,0.20980242 40.427156 0 1 3.4413208,15.666549 L 3.3715576,14.879517 A 0.21351465,0.20980242 40.427156 0 1 3.5637939,14.653691 Z M 2.033138,14.737407 a 0.21680152,0.20640412 40.854938 0 1 0.2320272,0.201021 l 0.078031,0.799951 a 0.21680152,0.20640412 40.854938 0 1 -0.1912028,0.220659 l -0.4387329,0.02119 A 0.21680152,0.20640412 40.854938 0 1 1.4812337,15.77972 l -0.077515,-0.800468 a 0.21680152,0.20640412 40.854938 0 1 0.190686,-0.220658 z"
         transform="matrix(0.86043373,0,0,0.86043373,1.1403609,1.3247918)" /><path
         id="path426"
         style="display:inline;fill:#001000;fill-opacity:1;stroke-width:0.55;-inkscape-stroke:none;paint-order:markers stroke fill;stop-color:#000000"
         class="UnoptimicedTransforms"
         inkscape:label="reel"
         d="m 16.75627,0.08197055 c 0,0 -8.3285506,1.83585135 -16.46411099,2.01124675 0,0 -0.0539145,9.8992897 0.42116293,14.7329507 C 7.0057018,16.634611 12.626829,15.59359 17.046175,14.725521 16.641877,10.20076 16.637618,3.3560525 16.75627,0.08197055 Z M 15.578048,1.0834598 a 0.19713364,0.22526404 41.33357 0 1 0.186035,0.1860352 l -0.0021,0.7968505 A 0.19713364,0.22526404 41.33357 0 1 15.55166,2.3056074 l -0.447001,0.058394 A 0.19713364,0.22526404 41.33357 0 1 14.894885,2.1800337 l 0.0021,-0.7968506 a 0.19713364,0.22526404 41.33357 0 1 0.210323,-0.2392619 l 0.447518,-0.058911 a 0.19713364,0.22526404 41.33357 0 1 0.02326,-0.00155 z m -1.97404,0.3627686 a 0.19361708,0.22829364 41.275533 0 1 0.181901,0.1829345 l -0.01344,0.7968506 A 0.19361708,0.22829364 41.275533 0 1 13.559566,2.668376 L 13.109465,2.735039 A 0.19361708,0.22829364 41.275533 0 1 12.903792,2.5546878 l 0.01344,-0.7968506 A 0.19361708,0.22829364 41.275533 0 1 13.130135,1.514958 l 0.450102,-0.066663 a 0.19361708,0.22829364 41.275533 0 1 0.02377,-0.00207 z m -1.985409,0.3358968 a 0.19565852,0.22654647 41.043775 0 1 0.185002,0.1839681 l -0.0031,0.7968506 a 0.19565852,0.22654647 41.043775 0 1 -0.210323,0.2418457 l -0.450618,0.064595 a 0.19565852,0.22654647 41.043775 0 1 -0.208773,-0.181901 l 0.0031,-0.7973674 A 0.19565852,0.22654647 41.043775 0 1 11.14421,1.8487878 l 0.451135,-0.064596 a 0.19565852,0.22654647 41.043775 0 1 0.02325,-0.00207 z M 9.637325,2.0895999 A 0.2007022,0.22209049 41.971244 0 1 9.8243937,2.280286 l 0.00207,0.7984009 A 0.2007022,0.22209049 41.971244 0 1 9.6166545,3.3117476 L 9.1717204,3.3582564 A 0.2007022,0.22209049 41.971244 0 1 8.9608805,3.1680871 L 8.9588135,2.370203 A 0.2007022,0.22209049 41.971244 0 1 9.1691366,2.1366255 l 0.4444173,-0.045992 a 0.2007022,0.22209049 41.971244 0 1 0.023771,-0.00103 z M 7.6839559,2.352633 a 0.20212879,0.22079291 41.554561 0 1 0.1901693,0.190686 l 0.012919,0.7978841 A 0.20212879,0.22079291 41.554561 0 1 7.6798218,3.5747806 L 7.236438,3.6212894 A 0.20212879,0.22079291 41.554561 0 1 7.0224976,3.4316369 L 7.0095784,2.6337528 A 0.20212879,0.22079291 41.554561 0 1 7.2168009,2.4001753 l 0.4433838,-0.046509 a 0.20212879,0.22079291 41.554561 0 1 0.023771,-0.00103 z M 5.6980306,2.5722578 a 0.20575943,0.21741347 43.678275 0 1 0.2108398,0.2010213 l -0.00362,0.7968506 A 0.20575943,0.21741347 43.678275 0 1 5.692863,3.7928552 L 5.2489624,3.815076 A 0.20575943,0.21741347 43.678275 0 1 5.0386393,3.6140547 l 0.00362,-0.7973674 A 0.20575943,0.21741347 43.678275 0 1 5.25413,2.5944787 Z M 3.7348429,2.7391727 a 0.21049762,0.2128293 44.322414 0 1 0.2129069,0.208256 l 0.00517,0.8123535 A 0.21049762,0.2128293 44.322414 0 1 3.7425944,3.975273 l -0.4408,0.00775 A 0.21049762,0.2128293 44.322414 0 1 3.0888875,3.7747684 L 3.0837199,2.9624149 A 0.21049762,0.2128293 44.322414 0 1 3.294043,2.7469242 Z m -1.9585368,0.098702 a 0.20773122,0.21553027 43.329185 0 1 0.2139405,0.2015381 l 0.00827,0.7978841 A 0.20773122,0.21553027 43.329185 0 1 1.7892253,4.0595055 L 1.346875,4.0801761 A 0.20773122,0.21553027 43.329185 0 1 1.1334513,3.878638 L 1.1246663,3.0807539 A 0.20773122,0.21553027 43.329185 0 1 1.3339559,2.859062 Z M 15.825061,12.898759 a 0.20027518,0.22247564 37.954768 0 1 0.199471,0.17725 l 0.05633,0.793234 a 0.20027518,0.22247564 37.954768 0 1 -0.193786,0.248047 l -0.442351,0.07855 a 0.20027518,0.22247564 37.954768 0 1 -0.223242,-0.17415 l -0.05581,-0.793233 a 0.20027518,0.22247564 37.954768 0 1 0.19327,-0.248047 l 0.44235,-0.07855 a 0.20027518,0.22247564 37.954768 0 1 0.02377,-0.0031 z m -1.970939,0.380856 a 0.20254898,0.22040751 38.893404 0 1 0.199471,0.181901 l 0.05168,0.797884 a 0.20254898,0.22040751 38.893404 0 1 -0.195853,0.242362 l -0.439767,0.06615 a 0.20254898,0.22040751 38.893404 0 1 -0.222725,-0.179834 l -0.05168,-0.797884 a 0.20254898,0.22040751 38.893404 0 1 0.195854,-0.242363 l 0.439767,-0.06615 a 0.20254898,0.22040751 38.893404 0 1 0.02325,-0.0021 z m -1.986442,0.341064 a 0.20598162,0.21720297 39.029813 0 1 0.200504,0.185518 l 0.06253,0.799952 a 0.20598162,0.21720297 39.029813 0 1 -0.193787,0.238228 l -0.439766,0.05788 a 0.20598162,0.21720297 39.029813 0 1 -0.225826,-0.183452 l -0.06253,-0.799951 a 0.20598162,0.21720297 39.029813 0 1 0.19327,-0.238228 l 0.439767,-0.05788 a 0.20598162,0.21720297 39.029813 0 1 0.02584,-0.0021 z m -1.9621543,0.31936 a 0.20805597,0.2152168 39.942246 0 1 0.2005043,0.19017 l 0.05633,0.790132 a 0.20805597,0.2152168 39.942246 0 1 -0.1953373,0.233578 l -0.4387329,0.04599 A 0.20805597,0.2152168 39.942246 0 1 9.3029785,15.011292 l -0.056844,-0.79065 a 0.20805597,0.2152168 39.942246 0 1 0.195337,-0.23306 l 0.4387329,-0.04651 a 0.20805597,0.2152168 39.942246 0 1 0.025321,-10e-4 z m -1.9337321,0.271302 a 0.2070445,0.21619004 40.237153 0 1 0.1979208,0.190169 l 0.049093,0.798918 a 0.2070445,0.21619004 40.237153 0 1 -0.197404,0.23306 l -0.4392497,0.04651 A 0.2070445,0.21619004 40.237153 0 1 7.3589111,15.290861 L 7.3093021,14.491944 A 0.2070445,0.21619004 40.237153 0 1 7.506706,14.258366 l 0.4397665,-0.04599 a 0.2070445,0.21619004 40.237153 0 1 0.025321,-0.001 z m -1.9885091,0.236161 a 0.21220333,0.21112865 39.968158 0 1 0.2046387,0.19327 l 0.071313,0.786515 a 0.21220333,0.21112865 39.968158 0 1 -0.1917195,0.22841 l -0.4387329,0.03772 A 0.21220333,0.21112865 39.968158 0 1 5.3988241,15.500668 l -0.071313,-0.786516 a 0.21220333,0.21112865 39.968158 0 1 0.1922363,-0.228926 l 0.4382161,-0.03721 a 0.21220333,0.21112865 39.968158 0 1 0.025321,-5.17e-4 z m -1.9781738,0.174666 a 0.21351465,0.20980242 40.427156 0 1 0.2299601,0.195854 l 0.069763,0.787032 A 0.21351465,0.20980242 40.427156 0 1 4.1120809,15.83088 l -0.4408,0.03152 A 0.21351465,0.20980242 40.427156 0 1 3.4413208,15.666549 L 3.3715576,14.879517 A 0.21351465,0.20980242 40.427156 0 1 3.5637939,14.653691 Z M 2.033138,14.737407 a 0.21680152,0.20640412 40.854938 0 1 0.2320272,0.201021 l 0.078031,0.799951 a 0.21680152,0.20640412 40.854938 0 1 -0.1912028,0.220659 l -0.4387329,0.02119 A 0.21680152,0.20640412 40.854938 0 1 1.4812337,15.77972 l -0.077515,-0.800468 a 0.21680152,0.20640412 40.854938 0 1 0.190686,-0.220658 z"
         transform="matrix(0.86043373,0,0,0.86043373,1.1403605,1.3247918)" /><path
         style="fill:#6cab62;fill-opacity:0.534682;stroke:none;stroke-width:0.473239;-inkscape-stroke:none;paint-order:markers stroke fill;stop-color:#000000"
         d="M 1.9087013,5.0740083 C 8.1666974,4.9029698 14.953818,3.4104914 14.953818,3.4104914 c 0,0 0.0365,5.9386174 0.187412,8.6852946 C 6.0460074,13.936965 2.091946,13.810829 2.091946,13.810829 1.8806631,8.3476586 1.9087013,5.0740083 1.9087013,5.0740083 Z"
         id="path852"
         sodipodi:nodetypes="ccccc"
         inkscape:label="background" /><path
         style="display:inline;fill:#121c25;fill-opacity:0.525773;stroke:none;stroke-width:0.473239;-inkscape-stroke:none;paint-order:markers stroke fill;stop-color:#000000"
         d="M 7.5620359,12.784255 9.7959147,12.442769 9.4971157,10.080834 11.859051,9.7820341 11.560252,7.6477558 9.1840877,7.9323263 8.9564313,5.5134768 6.7581241,5.7909331 7.0071234,8.2738109 4.8443874,8.544153 5.0151297,10.479234 7.2205513,10.166205 Z"
         id="path3225-7"
         inkscape:label="plus drop shadow"
         sodipodi:nodetypes="ccccccccccccc" /><path
         style="fill:#6cb562;fill-opacity:1;stroke:none;stroke-width:0.473239;-inkscape-stroke:none;paint-order:markers stroke fill;stop-color:#000000"
         d="M 8.1600801,12.2523 10.393958,11.910815 10.095159,9.5488796 12.457095,9.2500805 12.158295,7.1158018 9.7821323,7.4003724 9.5544755,4.9815229 7.3561683,5.2589791 7.6051676,7.7418569 5.4424316,8.012199 5.6131739,9.9472791 7.8185955,9.6342507 Z"
         id="path3225"
         inkscape:label="plus"
         sodipodi:nodetypes="ccccccccccccc" /></g></g></svg>
