<?xml version="1.0" encoding="UTF-8" standalone="no"?>
<!-- Created with Inkscape (http://www.inkscape.org/) -->

<svg
   width="440"
   height="280"
   viewBox="0 0 116.41667 74.083334"
   version="1.1"
   id="svg5"
   xml:space="preserve"
   inkscape:version="1.2.2 (732a01da63, 2022-12-09)"
   sodipodi:docname="smallPromo.svg"
   inkscape:export-filename="smallPromo.png"
   inkscape:export-xdpi="96"
   inkscape:export-ydpi="96"
   xmlns:inkscape="http://www.inkscape.org/namespaces/inkscape"
   xmlns:sodipodi="http://sodipodi.sourceforge.net/DTD/sodipodi-0.dtd"
   xmlns:xlink="http://www.w3.org/1999/xlink"
   xmlns="http://www.w3.org/2000/svg"
   xmlns:svg="http://www.w3.org/2000/svg"><sodipodi:namedview
     id="namedview7"
     pagecolor="#0b2b1a"
     bordercolor="#ffffff"
     borderopacity="1"
     inkscape:showpageshadow="2"
     inkscape:pageopacity="1"
     inkscape:pagecheckerboard="true"
     inkscape:deskcolor="#6e6e6e"
     inkscape:document-units="px"
     showgrid="false"
     inkscape:zoom="1.4142136"
     inkscape:cx="77.781746"
     inkscape:cy="38.890873"
     inkscape:window-width="2560"
     inkscape:window-height="1377"
     inkscape:window-x="-8"
     inkscape:window-y="-8"
     inkscape:window-maximized="1"
     inkscape:current-layer="layer1"
     showborder="false" /><defs
     id="defs2"><linearGradient
       inkscape:collect="always"
       id="linearGradient21869"><stop
         style="stop-color:#3ab464;stop-opacity:1;"
         offset="0"
         id="stop21865" /><stop
         style="stop-color:#3ab464;stop-opacity:0;"
         offset="1"
         id="stop21867" /></linearGradient><inkscape:path-effect
       effect="powerclip"
       id="path-effect10199"
       is_visible="true"
       lpeversion="1"
       inverse="true"
       flatten="false"
       hide_clip="false"
       message="Use fill-rule evenodd on &lt;b&gt;fill and stroke&lt;/b&gt; dialog if no flatten result after convert clip to paths." /><linearGradient
       id="A"
       x2="0.5"
       x1="0.5"
       y2="1"
       y1="0"><stop
         stop-color="#111d2e"
         offset="0%"
         id="stop4" /><stop
         stop-color="#051839"
         offset="21.2%"
         id="stop6" /><stop
         stop-color="#0a1b48"
         offset="40.7%"
         id="stop8" /><stop
         stop-color="#132e62"
         offset="58.1%"
         id="stop10" /><stop
         stop-color="#144b7e"
         offset="73.8%"
         id="stop12" /><stop
         stop-color="#136497"
         offset="87.3%"
         id="stop14" /><stop
         stop-color="#1387b8"
         offset="100%"
         id="stop16" /></linearGradient><mask
       maskUnits="userSpaceOnUse"
       id="mask13017"><g
         id="g13023"
         style="display:inline"
         inkscape:label="Logo Mask"><rect
           style="opacity:1;fill:#000000;fill-opacity:1;stroke-width:0.284631;stroke-dasharray:none;stroke-opacity:0.560311"
           id="rect13019"
           width="22.191282"
           height="19.855356"
           x="-3.2258003"
           y="-1.4738569"
           inkscape:label="Background Mask Back" /><ellipse
           style="display:inline;fill:#ffffff;fill-opacity:1;stroke-width:0.668848;stroke-dasharray:none;stroke-opacity:0.560311"
           id="ellipse13021"
           cx="8.598958"
           cy="-8.598958"
           rx="8.4575005"
           ry="8.4665003"
           inkscape:label="Background Mask Circle"
           transform="rotate(90)" /></g></mask><mask
       maskUnits="userSpaceOnUse"
       id="mask13030"><g
         id="g13040"
         inkscape:label="Chain2Mask"><rect
           style="display:inline;opacity:1;fill:#ffffff;fill-opacity:1;stroke-width:0.264999;stroke-dasharray:none;stroke-opacity:0.560311"
           id="rect13032"
           width="14.961039"
           height="8.8153334"
           x="-9.7052097"
           y="-20.161251" /><path
           style="display:inline;opacity:1;fill:#000000;fill-opacity:0.993289;stroke-width:0.264999;stroke-dasharray:none;stroke-opacity:0.560311"
           d="m -5.7366273,-17.185448 c 1.4493993,0.89661 3.7105543,2.389242 4.2323569,2.595008 0.52180271,0.205766 2.17503357,0.747397 3.4313096,0.167141 0.0022,-0.19307 -0.8326406,-0.653373 -1.77600598,-1.174424 -1.0625146,-0.58686 -2.26830552,-1.239578 -2.67781422,-1.460507 -0.7730956,-0.417083 -2.977871,-0.39749 -3.2098463,-0.127218 z"
           id="path13034"
           sodipodi:nodetypes="czcssc"
           inkscape:label="Chain2Inner" /><path
           style="display:none;opacity:1;fill:#000000;fill-opacity:0.993289;stroke-width:0.323888;stroke-dasharray:none;stroke-opacity:0.560311"
           d="m -2.0439337,-17.269154 c -0.1967177,-0.459652 -0.6021836,-0.666191 -1.0070291,-0.773662 -0.4048455,-0.10747 -0.7924901,-0.0062 -1.2107084,0.136387 0.7099191,0.02356 1.4914488,0.126334 2.2177375,0.637275 z"
           id="path13036"
           sodipodi:nodetypes="czcc"
           inkscape:label="Chain2Glint1" /><path
           style="display:none;opacity:1;fill:#000000;fill-opacity:0.993289;stroke-width:0.264999;stroke-dasharray:none;stroke-opacity:0.560311"
           d="m -3.5316951,-14.488292 c 1.1431485,0.789802 2.4295234,1.064201 3.55950372,1.112345 -1.04777062,0.274276 -1.45708112,0.304422 -2.08747832,0.10801 -0.6303972,-0.196412 -1.2780446,-0.854916 -1.4720254,-1.220355 z"
           id="path13038"
           sodipodi:nodetypes="cczc"
           inkscape:label="Chain2Glint2" /></g></mask><linearGradient
       inkscape:collect="always"
       xlink:href="#linearGradient21869"
       id="linearGradient21871"
       x1="79.901253"
       y1="44.876968"
       x2="79.901253"
       y2="-21.932354"
       gradientUnits="userSpaceOnUse"
       gradientTransform="matrix(3.3837517,0,0,4.3612896,-269.71915,89.060707)" /><filter
       inkscape:collect="always"
       style="color-interpolation-filters:sRGB"
       id="filter24672"
       x="-0.18362918"
       y="-1.7507206"
       width="1.3672584"
       height="4.5014413"><feGaussianBlur
         inkscape:collect="always"
         stdDeviation="8.2348795"
         id="feGaussianBlur24674" /></filter><filter
       inkscape:collect="always"
       style="color-interpolation-filters:sRGB"
       id="filter27312"
       x="-0.33951059"
       y="-0.33974708"
       width="1.6790212"
       height="1.6794942"><feGaussianBlur
         inkscape:collect="always"
         stdDeviation="2.3703301"
         id="feGaussianBlur27314" /></filter></defs><g
     inkscape:label="Layer 1"
     inkscape:groupmode="layer"
     id="layer1"><rect
       style="font-variation-settings:normal;display:inline;opacity:1;vector-effect:none;fill:url(#linearGradient21871);fill-opacity:1;stroke:none;stroke-width:1.23091;stroke-linecap:butt;stroke-linejoin:miter;stroke-miterlimit:4;stroke-dasharray:none;stroke-dashoffset:0;stroke-opacity:1;-inkscape-stroke:none;paint-order:markers stroke fill;stop-color:#000000;stop-opacity:1"
       id="rect20200"
       width="125.29885"
       height="290.5275"
       x="-3.911536"
       y="-6.0067058"
       inkscape:label="background glow" /><text
       xml:space="preserve"
       style="font-style:normal;font-variant:normal;font-weight:bold;font-stretch:normal;font-size:11.2889px;line-height:normal;font-family:sans-serif;-inkscape-font-specification:'sans-serif Bold';font-variant-ligatures:normal;font-variant-position:normal;font-variant-caps:normal;font-variant-numeric:normal;font-variant-alternates:normal;font-variant-east-asian:normal;font-feature-settings:normal;font-variation-settings:normal;text-indent:0;text-align:start;text-decoration-line:none;text-decoration-style:solid;text-decoration-color:#000000;letter-spacing:normal;word-spacing:normal;text-transform:none;writing-mode:lr-tb;direction:ltr;text-orientation:mixed;dominant-baseline:auto;baseline-shift:baseline;white-space:normal;display:inline;vector-effect:none;fill:#ffffff;fill-opacity:1;stroke:none;stroke-width:0.55;stroke-linecap:butt;stroke-linejoin:miter;stroke-miterlimit:4;stroke-dasharray:none;stroke-dashoffset:0;stroke-opacity:1;-inkscape-stroke:none;paint-order:markers stroke fill;filter:url(#filter24672);stop-color:#000000"
       x="3.8071091"
       y="62.179787"
       id="text1151-1"
       inkscape:label="title glow"><tspan
         id="tspan1149-3"
         style="font-style:normal;font-variant:normal;font-weight:bold;font-stretch:normal;font-size:11.2889px;line-height:normal;font-family:sans-serif;-inkscape-font-specification:'sans-serif Bold';font-variant-ligatures:normal;font-variant-position:normal;font-variant-caps:normal;font-variant-numeric:normal;font-variant-alternates:normal;font-variant-east-asian:normal;font-feature-settings:normal;font-variation-settings:normal;text-indent:0;text-align:start;text-decoration-line:none;text-decoration-style:solid;text-decoration-color:#000000;letter-spacing:normal;word-spacing:normal;text-transform:none;writing-mode:lr-tb;direction:ltr;text-orientation:mixed;dominant-baseline:auto;baseline-shift:baseline;white-space:normal;vector-effect:none;fill:#ffffff;fill-opacity:1;stroke:none;stroke-width:0.55;stroke-linecap:butt;stroke-linejoin:miter;stroke-miterlimit:4;stroke-dasharray:none;stroke-dashoffset:0;stroke-opacity:1;-inkscape-stroke:none;paint-order:markers stroke fill;stop-color:#000000;stop-opacity:1"
         x="3.8071091"
         y="62.179787"
         sodipodi:role="line">Better Video Player</tspan></text><text
       xml:space="preserve"
       style="font-style:normal;font-variant:normal;font-weight:bold;font-stretch:normal;font-size:11.2889px;line-height:normal;font-family:sans-serif;-inkscape-font-specification:'sans-serif Bold';font-variant-ligatures:normal;font-variant-position:normal;font-variant-caps:normal;font-variant-numeric:normal;font-variant-alternates:normal;font-variant-east-asian:normal;font-feature-settings:normal;font-variation-settings:normal;text-indent:0;text-align:start;text-decoration-line:none;text-decoration-style:solid;text-decoration-color:#000000;letter-spacing:normal;word-spacing:normal;text-transform:none;writing-mode:lr-tb;direction:ltr;text-orientation:mixed;dominant-baseline:auto;baseline-shift:baseline;white-space:normal;display:inline;opacity:1;vector-effect:none;fill:#ffffff;fill-opacity:1;stroke:none;stroke-width:0.55;stroke-linecap:butt;stroke-linejoin:miter;stroke-miterlimit:4;stroke-dasharray:none;stroke-dashoffset:0;stroke-opacity:1;-inkscape-stroke:none;paint-order:markers stroke fill;stop-color:#000000;stop-opacity:1"
       x="3.8071091"
       y="62.179787"
       id="text1151"
       inkscape:label="title"><tspan
         id="tspan1149"
         style="font-style:normal;font-variant:normal;font-weight:bold;font-stretch:normal;font-size:11.2889px;line-height:normal;font-family:sans-serif;-inkscape-font-specification:'sans-serif Bold';font-variant-ligatures:normal;font-variant-position:normal;font-variant-caps:normal;font-variant-numeric:normal;font-variant-alternates:normal;font-variant-east-asian:normal;font-feature-settings:normal;font-variation-settings:normal;text-indent:0;text-align:start;text-decoration-line:none;text-decoration-style:solid;text-decoration-color:#000000;letter-spacing:normal;word-spacing:normal;text-transform:none;writing-mode:lr-tb;direction:ltr;text-orientation:mixed;dominant-baseline:auto;baseline-shift:baseline;white-space:normal;vector-effect:none;fill:#ffffff;fill-opacity:1;stroke:none;stroke-width:0.55;stroke-linecap:butt;stroke-linejoin:miter;stroke-miterlimit:4;stroke-dasharray:none;stroke-dashoffset:0;stroke-opacity:1;-inkscape-stroke:none;paint-order:markers stroke fill;stop-color:#000000;stop-opacity:1"
         x="3.8071091"
         y="62.179787"
         sodipodi:role="line">Better Video Player</tspan></text><g
       inkscape:label="Logo"
       id="layer1-8"
       style="display:inline"
       transform="matrix(2.9616517,0,0,2.9616517,32.74165,5.7537137)"><path
         id="path426-7"
         style="display:inline;fill:#e8ffe7;fill-opacity:0.501901;stroke-width:0.55;-inkscape-stroke:none;paint-order:markers stroke fill;filter:url(#filter27312);stop-color:#000000"
         class="UnoptimicedTransforms"
         inkscape:label="glow"
         d="m 16.75627,0.08197055 c 0,0 -8.3285506,1.83585135 -16.46411099,2.01124675 0,0 -0.0539145,9.8992897 0.42116293,14.7329507 C 7.0057018,16.634611 12.626829,15.59359 17.046175,14.725521 16.641877,10.20076 16.637618,3.3560525 16.75627,0.08197055 Z M 15.578048,1.0834598 a 0.19713364,0.22526404 41.33357 0 1 0.186035,0.1860352 l -0.0021,0.7968505 A 0.19713364,0.22526404 41.33357 0 1 15.55166,2.3056074 l -0.447001,0.058394 A 0.19713364,0.22526404 41.33357 0 1 14.894885,2.1800337 l 0.0021,-0.7968506 a 0.19713364,0.22526404 41.33357 0 1 0.210323,-0.2392619 l 0.447518,-0.058911 a 0.19713364,0.22526404 41.33357 0 1 0.02326,-0.00155 z m -1.97404,0.3627686 a 0.19361708,0.22829364 41.275533 0 1 0.181901,0.1829345 l -0.01344,0.7968506 A 0.19361708,0.22829364 41.275533 0 1 13.559566,2.668376 L 13.109465,2.735039 A 0.19361708,0.22829364 41.275533 0 1 12.903792,2.5546878 l 0.01344,-0.7968506 A 0.19361708,0.22829364 41.275533 0 1 13.130135,1.514958 l 0.450102,-0.066663 a 0.19361708,0.22829364 41.275533 0 1 0.02377,-0.00207 z m -1.985409,0.3358968 a 0.19565852,0.22654647 41.043775 0 1 0.185002,0.1839681 l -0.0031,0.7968506 a 0.19565852,0.22654647 41.043775 0 1 -0.210323,0.2418457 l -0.450618,0.064595 a 0.19565852,0.22654647 41.043775 0 1 -0.208773,-0.181901 l 0.0031,-0.7973674 A 0.19565852,0.22654647 41.043775 0 1 11.14421,1.8487878 l 0.451135,-0.064596 a 0.19565852,0.22654647 41.043775 0 1 0.02325,-0.00207 z M 9.637325,2.0895999 A 0.2007022,0.22209049 41.971244 0 1 9.8243937,2.280286 l 0.00207,0.7984009 A 0.2007022,0.22209049 41.971244 0 1 9.6166545,3.3117476 L 9.1717204,3.3582564 A 0.2007022,0.22209049 41.971244 0 1 8.9608805,3.1680871 L 8.9588135,2.370203 A 0.2007022,0.22209049 41.971244 0 1 9.1691366,2.1366255 l 0.4444173,-0.045992 a 0.2007022,0.22209049 41.971244 0 1 0.023771,-0.00103 z M 7.6839559,2.352633 a 0.20212879,0.22079291 41.554561 0 1 0.1901693,0.190686 l 0.012919,0.7978841 A 0.20212879,0.22079291 41.554561 0 1 7.6798218,3.5747806 L 7.236438,3.6212894 A 0.20212879,0.22079291 41.554561 0 1 7.0224976,3.4316369 L 7.0095784,2.6337528 A 0.20212879,0.22079291 41.554561 0 1 7.2168009,2.4001753 l 0.4433838,-0.046509 a 0.20212879,0.22079291 41.554561 0 1 0.023771,-0.00103 z M 5.6980306,2.5722578 a 0.20575943,0.21741347 43.678275 0 1 0.2108398,0.2010213 l -0.00362,0.7968506 A 0.20575943,0.21741347 43.678275 0 1 5.692863,3.7928552 L 5.2489624,3.815076 A 0.20575943,0.21741347 43.678275 0 1 5.0386393,3.6140547 l 0.00362,-0.7973674 A 0.20575943,0.21741347 43.678275 0 1 5.25413,2.5944787 Z M 3.7348429,2.7391727 a 0.21049762,0.2128293 44.322414 0 1 0.2129069,0.208256 l 0.00517,0.8123535 A 0.21049762,0.2128293 44.322414 0 1 3.7425944,3.975273 l -0.4408,0.00775 A 0.21049762,0.2128293 44.322414 0 1 3.0888875,3.7747684 L 3.0837199,2.9624149 A 0.21049762,0.2128293 44.322414 0 1 3.294043,2.7469242 Z m -1.9585368,0.098702 a 0.20773122,0.21553027 43.329185 0 1 0.2139405,0.2015381 l 0.00827,0.7978841 A 0.20773122,0.21553027 43.329185 0 1 1.7892253,4.0595055 L 1.346875,4.0801761 A 0.20773122,0.21553027 43.329185 0 1 1.1334513,3.878638 L 1.1246663,3.0807539 A 0.20773122,0.21553027 43.329185 0 1 1.3339559,2.859062 Z M 15.825061,12.898759 a 0.20027518,0.22247564 37.954768 0 1 0.199471,0.17725 l 0.05633,0.793234 a 0.20027518,0.22247564 37.954768 0 1 -0.193786,0.248047 l -0.442351,0.07855 a 0.20027518,0.22247564 37.954768 0 1 -0.223242,-0.17415 l -0.05581,-0.793233 a 0.20027518,0.22247564 37.954768 0 1 0.19327,-0.248047 l 0.44235,-0.07855 a 0.20027518,0.22247564 37.954768 0 1 0.02377,-0.0031 z m -1.970939,0.380856 a 0.20254898,0.22040751 38.893404 0 1 0.199471,0.181901 l 0.05168,0.797884 a 0.20254898,0.22040751 38.893404 0 1 -0.195853,0.242362 l -0.439767,0.06615 a 0.20254898,0.22040751 38.893404 0 1 -0.222725,-0.179834 l -0.05168,-0.797884 a 0.20254898,0.22040751 38.893404 0 1 0.195854,-0.242363 l 0.439767,-0.06615 a 0.20254898,0.22040751 38.893404 0 1 0.02325,-0.0021 z m -1.986442,0.341064 a 0.20598162,0.21720297 39.029813 0 1 0.200504,0.185518 l 0.06253,0.799952 a 0.20598162,0.21720297 39.029813 0 1 -0.193787,0.238228 l -0.439766,0.05788 a 0.20598162,0.21720297 39.029813 0 1 -0.225826,-0.183452 l -0.06253,-0.799951 a 0.20598162,0.21720297 39.029813 0 1 0.19327,-0.238228 l 0.439767,-0.05788 a 0.20598162,0.21720297 39.029813 0 1 0.02584,-0.0021 z m -1.9621543,0.31936 a 0.20805597,0.2152168 39.942246 0 1 0.2005043,0.19017 l 0.05633,0.790132 a 0.20805597,0.2152168 39.942246 0 1 -0.1953373,0.233578 l -0.4387329,0.04599 A 0.20805597,0.2152168 39.942246 0 1 9.3029785,15.011292 l -0.056844,-0.79065 a 0.20805597,0.2152168 39.942246 0 1 0.195337,-0.23306 l 0.4387329,-0.04651 a 0.20805597,0.2152168 39.942246 0 1 0.025321,-10e-4 z m -1.9337321,0.271302 a 0.2070445,0.21619004 40.237153 0 1 0.1979208,0.190169 l 0.049093,0.798918 a 0.2070445,0.21619004 40.237153 0 1 -0.197404,0.23306 l -0.4392497,0.04651 A 0.2070445,0.21619004 40.237153 0 1 7.3589111,15.290861 L 7.3093021,14.491944 A 0.2070445,0.21619004 40.237153 0 1 7.506706,14.258366 l 0.4397665,-0.04599 a 0.2070445,0.21619004 40.237153 0 1 0.025321,-0.001 z m -1.9885091,0.236161 a 0.21220333,0.21112865 39.968158 0 1 0.2046387,0.19327 l 0.071313,0.786515 a 0.21220333,0.21112865 39.968158 0 1 -0.1917195,0.22841 l -0.4387329,0.03772 A 0.21220333,0.21112865 39.968158 0 1 5.3988241,15.500668 l -0.071313,-0.786516 a 0.21220333,0.21112865 39.968158 0 1 0.1922363,-0.228926 l 0.4382161,-0.03721 a 0.21220333,0.21112865 39.968158 0 1 0.025321,-5.17e-4 z m -1.9781738,0.174666 a 0.21351465,0.20980242 40.427156 0 1 0.2299601,0.195854 l 0.069763,0.787032 A 0.21351465,0.20980242 40.427156 0 1 4.1120809,15.83088 l -0.4408,0.03152 A 0.21351465,0.20980242 40.427156 0 1 3.4413208,15.666549 L 3.3715576,14.879517 A 0.21351465,0.20980242 40.427156 0 1 3.5637939,14.653691 Z M 2.033138,14.737407 a 0.21680152,0.20640412 40.854938 0 1 0.2320272,0.201021 l 0.078031,0.799951 a 0.21680152,0.20640412 40.854938 0 1 -0.1912028,0.220659 l -0.4387329,0.02119 A 0.21680152,0.20640412 40.854938 0 1 1.4812337,15.77972 l -0.077515,-0.800468 a 0.21680152,0.20640412 40.854938 0 1 0.190686,-0.220658 z"
         transform="matrix(0.86043373,0,0,0.86043373,1.1403609,1.3247918)" /><path
         id="path426"
         style="display:inline;fill:#001000;fill-opacity:1;stroke-width:0.55;-inkscape-stroke:none;paint-order:markers stroke fill;stop-color:#000000"
         class="UnoptimicedTransforms"
         inkscape:label="reel"
         d="m 16.75627,0.08197055 c 0,0 -8.3285506,1.83585135 -16.46411099,2.01124675 0,0 -0.0539145,9.8992897 0.42116293,14.7329507 C 7.0057018,16.634611 12.626829,15.59359 17.046175,14.725521 16.641877,10.20076 16.637618,3.3560525 16.75627,0.08197055 Z M 15.578048,1.0834598 a 0.19713364,0.22526404 41.33357 0 1 0.186035,0.1860352 l -0.0021,0.7968505 A 0.19713364,0.22526404 41.33357 0 1 15.55166,2.3056074 l -0.447001,0.058394 A 0.19713364,0.22526404 41.33357 0 1 14.894885,2.1800337 l 0.0021,-0.7968506 a 0.19713364,0.22526404 41.33357 0 1 0.210323,-0.2392619 l 0.447518,-0.058911 a 0.19713364,0.22526404 41.33357 0 1 0.02326,-0.00155 z m -1.97404,0.3627686 a 0.19361708,0.22829364 41.275533 0 1 0.181901,0.1829345 l -0.01344,0.7968506 A 0.19361708,0.22829364 41.275533 0 1 13.559566,2.668376 L 13.109465,2.735039 A 0.19361708,0.22829364 41.275533 0 1 12.903792,2.5546878 l 0.01344,-0.7968506 A 0.19361708,0.22829364 41.275533 0 1 13.130135,1.514958 l 0.450102,-0.066663 a 0.19361708,0.22829364 41.275533 0 1 0.02377,-0.00207 z m -1.985409,0.3358968 a 0.19565852,0.22654647 41.043775 0 1 0.185002,0.1839681 l -0.0031,0.7968506 a 0.19565852,0.22654647 41.043775 0 1 -0.210323,0.2418457 l -0.450618,0.064595 a 0.19565852,0.22654647 41.043775 0 1 -0.208773,-0.181901 l 0.0031,-0.7973674 A 0.19565852,0.22654647 41.043775 0 1 11.14421,1.8487878 l 0.451135,-0.064596 a 0.19565852,0.22654647 41.043775 0 1 0.02325,-0.00207 z M 9.637325,2.0895999 A 0.2007022,0.22209049 41.971244 0 1 9.8243937,2.280286 l 0.00207,0.7984009 A 0.2007022,0.22209049 41.971244 0 1 9.6166545,3.3117476 L 9.1717204,3.3582564 A 0.2007022,0.22209049 41.971244 0 1 8.9608805,3.1680871 L 8.9588135,2.370203 A 0.2007022,0.22209049 41.971244 0 1 9.1691366,2.1366255 l 0.4444173,-0.045992 a 0.2007022,0.22209049 41.971244 0 1 0.023771,-0.00103 z M 7.6839559,2.352633 a 0.20212879,0.22079291 41.554561 0 1 0.1901693,0.190686 l 0.012919,0.7978841 A 0.20212879,0.22079291 41.554561 0 1 7.6798218,3.5747806 L 7.236438,3.6212894 A 0.20212879,0.22079291 41.554561 0 1 7.0224976,3.4316369 L 7.0095784,2.6337528 A 0.20212879,0.22079291 41.554561 0 1 7.2168009,2.4001753 l 0.4433838,-0.046509 a 0.20212879,0.22079291 41.554561 0 1 0.023771,-0.00103 z M 5.6980306,2.5722578 a 0.20575943,0.21741347 43.678275 0 1 0.2108398,0.2010213 l -0.00362,0.7968506 A 0.20575943,0.21741347 43.678275 0 1 5.692863,3.7928552 L 5.2489624,3.815076 A 0.20575943,0.21741347 43.678275 0 1 5.0386393,3.6140547 l 0.00362,-0.7973674 A 0.20575943,0.21741347 43.678275 0 1 5.25413,2.5944787 Z M 3.7348429,2.7391727 a 0.21049762,0.2128293 44.322414 0 1 0.2129069,0.208256 l 0.00517,0.8123535 A 0.21049762,0.2128293 44.322414 0 1 3.7425944,3.975273 l -0.4408,0.00775 A 0.21049762,0.2128293 44.322414 0 1 3.0888875,3.7747684 L 3.0837199,2.9624149 A 0.21049762,0.2128293 44.322414 0 1 3.294043,2.7469242 Z m -1.9585368,0.098702 a 0.20773122,0.21553027 43.329185 0 1 0.2139405,0.2015381 l 0.00827,0.7978841 A 0.20773122,0.21553027 43.329185 0 1 1.7892253,4.0595055 L 1.346875,4.0801761 A 0.20773122,0.21553027 43.329185 0 1 1.1334513,3.878638 L 1.1246663,3.0807539 A 0.20773122,0.21553027 43.329185 0 1 1.3339559,2.859062 Z M 15.825061,12.898759 a 0.20027518,0.22247564 37.954768 0 1 0.199471,0.17725 l 0.05633,0.793234 a 0.20027518,0.22247564 37.954768 0 1 -0.193786,0.248047 l -0.442351,0.07855 a 0.20027518,0.22247564 37.954768 0 1 -0.223242,-0.17415 l -0.05581,-0.793233 a 0.20027518,0.22247564 37.954768 0 1 0.19327,-0.248047 l 0.44235,-0.07855 a 0.20027518,0.22247564 37.954768 0 1 0.02377,-0.0031 z m -1.970939,0.380856 a 0.20254898,0.22040751 38.893404 0 1 0.199471,0.181901 l 0.05168,0.797884 a 0.20254898,0.22040751 38.893404 0 1 -0.195853,0.242362 l -0.439767,0.06615 a 0.20254898,0.22040751 38.893404 0 1 -0.222725,-0.179834 l -0.05168,-0.797884 a 0.20254898,0.22040751 38.893404 0 1 0.195854,-0.242363 l 0.439767,-0.06615 a 0.20254898,0.22040751 38.893404 0 1 0.02325,-0.0021 z m -1.986442,0.341064 a 0.20598162,0.21720297 39.029813 0 1 0.200504,0.185518 l 0.06253,0.799952 a 0.20598162,0.21720297 39.029813 0 1 -0.193787,0.238228 l -0.439766,0.05788 a 0.20598162,0.21720297 39.029813 0 1 -0.225826,-0.183452 l -0.06253,-0.799951 a 0.20598162,0.21720297 39.029813 0 1 0.19327,-0.238228 l 0.439767,-0.05788 a 0.20598162,0.21720297 39.029813 0 1 0.02584,-0.0021 z m -1.9621543,0.31936 a 0.20805597,0.2152168 39.942246 0 1 0.2005043,0.19017 l 0.05633,0.790132 a 0.20805597,0.2152168 39.942246 0 1 -0.1953373,0.233578 l -0.4387329,0.04599 A 0.20805597,0.2152168 39.942246 0 1 9.3029785,15.011292 l -0.056844,-0.79065 a 0.20805597,0.2152168 39.942246 0 1 0.195337,-0.23306 l 0.4387329,-0.04651 a 0.20805597,0.2152168 39.942246 0 1 0.025321,-10e-4 z m -1.9337321,0.271302 a 0.2070445,0.21619004 40.237153 0 1 0.1979208,0.190169 l 0.049093,0.798918 a 0.2070445,0.21619004 40.237153 0 1 -0.197404,0.23306 l -0.4392497,0.04651 A 0.2070445,0.21619004 40.237153 0 1 7.3589111,15.290861 L 7.3093021,14.491944 A 0.2070445,0.21619004 40.237153 0 1 7.506706,14.258366 l 0.4397665,-0.04599 a 0.2070445,0.21619004 40.237153 0 1 0.025321,-0.001 z m -1.9885091,0.236161 a 0.21220333,0.21112865 39.968158 0 1 0.2046387,0.19327 l 0.071313,0.786515 a 0.21220333,0.21112865 39.968158 0 1 -0.1917195,0.22841 l -0.4387329,0.03772 A 0.21220333,0.21112865 39.968158 0 1 5.3988241,15.500668 l -0.071313,-0.786516 a 0.21220333,0.21112865 39.968158 0 1 0.1922363,-0.228926 l 0.4382161,-0.03721 a 0.21220333,0.21112865 39.968158 0 1 0.025321,-5.17e-4 z m -1.9781738,0.174666 a 0.21351465,0.20980242 40.427156 0 1 0.2299601,0.195854 l 0.069763,0.787032 A 0.21351465,0.20980242 40.427156 0 1 4.1120809,15.83088 l -0.4408,0.03152 A 0.21351465,0.20980242 40.427156 0 1 3.4413208,15.666549 L 3.3715576,14.879517 A 0.21351465,0.20980242 40.427156 0 1 3.5637939,14.653691 Z M 2.033138,14.737407 a 0.21680152,0.20640412 40.854938 0 1 0.2320272,0.201021 l 0.078031,0.799951 a 0.21680152,0.20640412 40.854938 0 1 -0.1912028,0.220659 l -0.4387329,0.02119 A 0.21680152,0.20640412 40.854938 0 1 1.4812337,15.77972 l -0.077515,-0.800468 a 0.21680152,0.20640412 40.854938 0 1 0.190686,-0.220658 z"
         transform="matrix(0.86043373,0,0,0.86043373,1.1403605,1.3247918)" /><path
         style="fill:#6cab62;fill-opacity:0.534682;stroke:none;stroke-width:0.473239;-inkscape-stroke:none;paint-order:markers stroke fill;stop-color:#000000"
         d="M 1.9087013,5.0740083 C 8.1666974,4.9029698 14.953818,3.4104914 14.953818,3.4104914 c 0,0 0.0365,5.9386174 0.187412,8.6852946 C 6.0460074,13.936965 2.091946,13.810829 2.091946,13.810829 1.8806631,8.3476586 1.9087013,5.0740083 1.9087013,5.0740083 Z"
         id="path852"
         sodipodi:nodetypes="ccccc"
         inkscape:label="background" /><path
         style="display:inline;fill:#121c25;fill-opacity:0.525773;stroke:none;stroke-width:0.473239;-inkscape-stroke:none;paint-order:markers stroke fill;stop-color:#000000"
         d="M 7.5620359,12.784255 9.7959147,12.442769 9.4971157,10.080834 11.859051,9.7820341 11.560252,7.6477558 9.1840877,7.9323263 8.9564313,5.5134768 6.7581241,5.7909331 7.0071234,8.2738109 4.8443874,8.544153 5.0151297,10.479234 7.2205513,10.166205 Z"
         id="path3225-7"
         inkscape:label="plus drop shadow"
         sodipodi:nodetypes="ccccccccccccc" /><path
         style="fill:#6cb562;fill-opacity:1;stroke:none;stroke-width:0.473239;-inkscape-stroke:none;paint-order:markers stroke fill;stop-color:#000000"
         d="M 8.1600801,12.2523 10.393958,11.910815 10.095159,9.5488796 12.457095,9.2500805 12.158295,7.1158018 9.7821323,7.4003724 9.5544755,4.9815229 7.3561683,5.2589791 7.6051676,7.7418569 5.4424316,8.012199 5.6131739,9.9472791 7.8185955,9.6342507 Z"
         id="path3225"
         inkscape:label="plus"
         sodipodi:nodetypes="ccccccccccccc" /></g><rect
       style="font-variation-settings:normal;display:inline;vector-effect:none;fill:#eff4f8;fill-opacity:1;stroke:none;stroke-width:1.09382;stroke-linecap:butt;stroke-linejoin:miter;stroke-miterlimit:4;stroke-dasharray:none;stroke-dashoffset:0;stroke-opacity:1;-inkscape-stroke:none;paint-order:markers stroke fill;stop-color:#000000"
       id="rect20075-7-22-7-0-77-0"
       width="150.06229"
       height="61.251019"
       x="-13.186397"
       y="66.131607"
       ry="0"
       inkscape:label="reels back bottom" /><path
       id="rect10201-5"
       style="fill:#001000;fill-opacity:1;stroke-width:0.421472;-inkscape-stroke:none;paint-order:markers stroke fill;stop-color:#000000"
       inkscape:label="film bottom"
       d="M -2.9897351,65.667676 V 77.043257 H 132.76986 V 65.667676 Z m 7.0902575,1.577764 h 2.053663 a 0.87456022,0.87456022 0 0 1 0.874529,0.874532 v 3.672389 A 0.87456022,0.87456022 0 0 1 6.1541854,72.66689 H 4.1005224 A 0.87456022,0.87456022 0 0 1 3.2259931,71.792361 V 68.119972 A 0.87456022,0.87456022 0 0 1 4.1005224,67.24544 Z m 7.6058126,0 h 2.053664 a 0.87456022,0.87456022 0 0 1 0.874529,0.874532 v 3.672389 a 0.87456022,0.87456022 0 0 1 -0.874529,0.874529 h -2.053664 a 0.87456022,0.87456022 0 0 1 -0.874529,-0.874529 v -3.672389 a 0.87456022,0.87456022 0 0 1 0.874529,-0.874532 z m 7.605815,0 h 2.053663 a 0.87456022,0.87456022 0 0 1 0.874529,0.874532 v 3.672389 A 0.87456022,0.87456022 0 0 1 21.365813,72.66689 H 19.31215 A 0.87456022,0.87456022 0 0 1 18.437621,71.792361 V 68.119972 A 0.87456022,0.87456022 0 0 1 19.31215,67.24544 Z m 7.605815,0 h 2.053663 a 0.87456022,0.87456022 0 0 1 0.874529,0.874532 v 3.672389 a 0.87456022,0.87456022 0 0 1 -0.874529,0.874529 h -2.053663 a 0.87456022,0.87456022 0 0 1 -0.874529,-0.874529 v -3.672389 a 0.87456022,0.87456022 0 0 1 0.874529,-0.874532 z m 7.605815,0 h 2.053661 a 0.87456022,0.87456022 0 0 1 0.874532,0.874532 v 3.672389 A 0.87456022,0.87456022 0 0 1 36.577441,72.66689 H 34.52378 A 0.87456022,0.87456022 0 0 1 33.649251,71.792361 V 68.119972 A 0.87456022,0.87456022 0 0 1 34.52378,67.24544 Z m 7.605999,0 h 2.053479 a 0.87456022,0.87456022 0 0 1 0.874716,0.874532 v 3.672389 a 0.87456022,0.87456022 0 0 1 -0.874716,0.874529 h -2.053479 a 0.87456022,0.87456022 0 0 1 -0.874716,-0.874529 v -3.672389 a 0.87456022,0.87456022 0 0 1 0.874716,-0.874532 z m 7.605817,0 h 2.053663 a 0.87456022,0.87456022 0 0 1 0.874528,0.874532 v 3.672389 a 0.87456022,0.87456022 0 0 1 -0.874528,0.874529 h -2.053663 a 0.87456022,0.87456022 0 0 1 -0.874532,-0.874529 v -3.672389 a 0.87456022,0.87456022 0 0 1 0.874532,-0.874532 z m 7.605814,0 h 2.053663 a 0.87456022,0.87456022 0 0 1 0.874528,0.874532 v 3.672389 A 0.87456022,0.87456022 0 0 1 59.395073,72.66689 H 57.34141 A 0.87456022,0.87456022 0 0 1 56.466882,71.792361 V 68.119972 A 0.87456022,0.87456022 0 0 1 57.34141,67.24544 Z m 7.605813,0 h 2.053663 a 0.87456022,0.87456022 0 0 1 0.874532,0.874532 v 3.672389 a 0.87456022,0.87456022 0 0 1 -0.874532,0.874529 h -2.053663 a 0.87456022,0.87456022 0 0 1 -0.874528,-0.874529 v -3.672389 a 0.87456022,0.87456022 0 0 1 0.874528,-0.874532 z m 7.605818,0 h 2.053662 a 0.87456022,0.87456022 0 0 1 0.874529,0.874532 v 3.672389 a 0.87456022,0.87456022 0 0 1 -0.874529,0.874529 h -2.053662 a 0.87456022,0.87456022 0 0 1 -0.874532,-0.874529 v -3.672389 a 0.87456022,0.87456022 0 0 1 0.874532,-0.874532 z m 7.605813,0 h 2.053663 a 0.87456022,0.87456022 0 0 1 0.874528,0.874532 v 3.672389 a 0.87456022,0.87456022 0 0 1 -0.874528,0.874529 h -2.053663 a 0.87456022,0.87456022 0 0 1 -0.874528,-0.874529 v -3.672389 a 0.87456022,0.87456022 0 0 1 0.874528,-0.874532 z m 7.606001,0 h 2.053476 a 0.87456022,0.87456022 0 0 1 0.874715,0.874532 v 3.672389 a 0.87456022,0.87456022 0 0 1 -0.874715,0.874529 h -2.053476 a 0.87456022,0.87456022 0 0 1 -0.874716,-0.874529 v -3.672389 a 0.87456022,0.87456022 0 0 1 0.874716,-0.874532 z m 7.605817,0 h 2.05366 a 0.87456022,0.87456022 0 0 1 0.87453,0.874532 v 3.672389 a 0.87456022,0.87456022 0 0 1 -0.87453,0.874529 h -2.05366 a 0.87456022,0.87456022 0 0 1 -0.87453,-0.874529 v -3.672389 a 0.87456022,0.87456022 0 0 1 0.87453,-0.874532 z m 7.605798,0 h 2.05367 a 0.87456022,0.87456022 0 0 1 0.87452,0.874532 v 3.672389 a 0.87456022,0.87456022 0 0 1 -0.87452,0.874529 h -2.05367 a 0.87456022,0.87456022 0 0 1 -0.87453,-0.874529 v -3.672389 a 0.87456022,0.87456022 0 0 1 0.87453,-0.874532 z m 7.60582,0 h 2.05366 a 0.87456022,0.87456022 0 0 1 0.87453,0.874532 v 3.672389 a 0.87456022,0.87456022 0 0 1 -0.87453,0.874529 h -2.05366 a 0.87456022,0.87456022 0 0 1 -0.87453,-0.874529 v -3.672389 a 0.87456022,0.87456022 0 0 1 0.87453,-0.874532 z m 7.60581,0 h 2.05366 a 0.87456022,0.87456022 0 0 1 0.87454,0.874532 v 3.672389 a 0.87456022,0.87456022 0 0 1 -0.87454,0.874529 h -2.05366 a 0.87456022,0.87456022 0 0 1 -0.87453,-0.874529 v -3.672389 a 0.87456022,0.87456022 0 0 1 0.87453,-0.874532 z m 7.60582,0 h 2.05366 a 0.87456022,0.87456022 0 0 1 0.87453,0.874532 v 3.672389 a 0.87456022,0.87456022 0 0 1 -0.87453,0.874529 h -2.05366 a 0.87456022,0.87456022 0 0 1 -0.87453,-0.874529 v -3.672389 a 0.87456022,0.87456022 0 0 1 0.87453,-0.874532 z" /><rect
       style="font-variation-settings:normal;display:inline;vector-effect:none;fill:#f0f4f9;fill-opacity:1;stroke:none;stroke-width:1.09382;stroke-linecap:butt;stroke-linejoin:miter;stroke-miterlimit:4;stroke-dasharray:none;stroke-dashoffset:0;stroke-opacity:1;-inkscape-stroke:none;paint-order:markers stroke fill;stop-color:#000000"
       id="rect20075-7-22-7-0-77"
       width="150.06229"
       height="61.251019"
       x="-11.021159"
       y="-53.081234"
       ry="0"
       inkscape:label="reels back top" /><path
       id="rect10201"
       style="display:inline;fill:#001000;fill-opacity:1;stroke-width:0.421472;-inkscape-stroke:none;paint-order:markers stroke fill;stop-color:#000000"
       inkscape:label="film top"
       d="M -1.8180479,-2.4446244 V 8.9309562 H 133.94136 V -2.4446244 Z m 5.9185703,4.5672125 h 2.053663 a 0.87456022,0.87456022 0 0 1 0.874529,0.8745295 V 6.6695062 A 0.87456022,0.87456022 0 0 1 6.1541854,7.5440356 H 4.1005224 A 0.87456022,0.87456022 0 0 1 3.2259931,6.6695062 V 2.9971176 A 0.87456022,0.87456022 0 0 1 4.1005224,2.1225881 Z m 7.6058126,0 h 2.053664 a 0.87456022,0.87456022 0 0 1 0.874529,0.8745295 V 6.6695062 A 0.87456022,0.87456022 0 0 1 13.759999,7.5440356 H 11.706335 A 0.87456022,0.87456022 0 0 1 10.831806,6.6695062 V 2.9971176 a 0.87456022,0.87456022 0 0 1 0.874529,-0.8745295 z m 7.605815,0 h 2.053663 a 0.87456022,0.87456022 0 0 1 0.874529,0.8745295 V 6.6695062 A 0.87456022,0.87456022 0 0 1 21.365813,7.5440356 H 19.31215 A 0.87456022,0.87456022 0 0 1 18.437621,6.6695062 V 2.9971176 A 0.87456022,0.87456022 0 0 1 19.31215,2.1225881 Z m 7.605815,0 h 2.053663 a 0.87456022,0.87456022 0 0 1 0.874529,0.8745295 V 6.6695062 A 0.87456022,0.87456022 0 0 1 28.971628,7.5440356 H 26.917965 A 0.87456022,0.87456022 0 0 1 26.043436,6.6695062 V 2.9971176 a 0.87456022,0.87456022 0 0 1 0.874529,-0.8745295 z m 7.605815,0 h 2.053661 a 0.87456022,0.87456022 0 0 1 0.874532,0.8745295 V 6.6695062 A 0.87456022,0.87456022 0 0 1 36.577441,7.5440356 H 34.52378 A 0.87456022,0.87456022 0 0 1 33.649251,6.6695062 V 2.9971176 A 0.87456022,0.87456022 0 0 1 34.52378,2.1225881 Z m 7.605999,0 h 2.053479 a 0.87456022,0.87456022 0 0 1 0.874716,0.8745295 V 6.6695062 A 0.87456022,0.87456022 0 0 1 44.183258,7.5440356 H 42.129779 A 0.87456022,0.87456022 0 0 1 41.255063,6.6695062 V 2.9971176 a 0.87456022,0.87456022 0 0 1 0.874716,-0.8745295 z m 7.605817,0 h 2.053663 a 0.87456022,0.87456022 0 0 1 0.874528,0.8745295 V 6.6695062 A 0.87456022,0.87456022 0 0 1 51.789259,7.5440356 H 49.735596 A 0.87456022,0.87456022 0 0 1 48.861064,6.6695062 V 2.9971176 a 0.87456022,0.87456022 0 0 1 0.874532,-0.8745295 z m 7.605814,0 h 2.053663 a 0.87456022,0.87456022 0 0 1 0.874528,0.8745295 V 6.6695062 A 0.87456022,0.87456022 0 0 1 59.395073,7.5440356 H 57.34141 A 0.87456022,0.87456022 0 0 1 56.466882,6.6695062 V 2.9971176 A 0.87456022,0.87456022 0 0 1 57.34141,2.1225881 Z m 7.605813,0 h 2.053663 a 0.87456022,0.87456022 0 0 1 0.874532,0.8745295 V 6.6695062 A 0.87456022,0.87456022 0 0 1 67.000886,7.5440356 H 64.947223 A 0.87456022,0.87456022 0 0 1 64.072695,6.6695062 V 2.9971176 a 0.87456022,0.87456022 0 0 1 0.874528,-0.8745295 z m 7.605818,0 h 2.053662 a 0.87456022,0.87456022 0 0 1 0.874529,0.8745295 V 6.6695062 A 0.87456022,0.87456022 0 0 1 74.606703,7.5440356 H 72.553041 A 0.87456022,0.87456022 0 0 1 71.678509,6.6695062 V 2.9971176 a 0.87456022,0.87456022 0 0 1 0.874532,-0.8745295 z m 7.605813,0 h 2.053663 a 0.87456022,0.87456022 0 0 1 0.874528,0.8745295 V 6.6695062 A 0.87456022,0.87456022 0 0 1 82.212517,7.5440356 H 80.158854 A 0.87456022,0.87456022 0 0 1 79.284326,6.6695062 V 2.9971176 a 0.87456022,0.87456022 0 0 1 0.874528,-0.8745295 z m 7.606001,0 h 2.053476 a 0.87456022,0.87456022 0 0 1 0.874715,0.8745295 V 6.6695062 A 0.87456022,0.87456022 0 0 1 89.818331,7.5440356 H 87.764855 A 0.87456022,0.87456022 0 0 1 86.890139,6.6695062 V 2.9971176 a 0.87456022,0.87456022 0 0 1 0.874716,-0.8745295 z m 7.605817,0 h 2.05366 a 0.87456022,0.87456022 0 0 1 0.87453,0.8745295 v 3.6723886 a 0.87456022,0.87456022 0 0 1 -0.87453,0.8745294 h -2.05366 A 0.87456022,0.87456022 0 0 1 94.496142,6.6695062 V 2.9971176 a 0.87456022,0.87456022 0 0 1 0.87453,-0.8745295 z m 7.605798,0 h 2.05367 a 0.87456022,0.87456022 0 0 1 0.87452,0.8745295 v 3.6723886 a 0.87456022,0.87456022 0 0 1 -0.87452,0.8745294 h -2.05367 A 0.87456022,0.87456022 0 0 1 102.10194,6.6695062 V 2.9971176 a 0.87456022,0.87456022 0 0 1 0.87453,-0.8745295 z m 7.60582,0 h 2.05366 a 0.87456022,0.87456022 0 0 1 0.87453,0.8745295 v 3.6723886 a 0.87456022,0.87456022 0 0 1 -0.87453,0.8745294 h -2.05366 A 0.87456022,0.87456022 0 0 1 109.70776,6.6695062 V 2.9971176 a 0.87456022,0.87456022 0 0 1 0.87453,-0.8745295 z m 7.60581,0 h 2.05366 a 0.87456022,0.87456022 0 0 1 0.87454,0.8745295 v 3.6723886 a 0.87456022,0.87456022 0 0 1 -0.87454,0.8745294 H 118.1881 A 0.87456022,0.87456022 0 0 1 117.31357,6.6695062 V 2.9971176 a 0.87456022,0.87456022 0 0 1 0.87453,-0.8745295 z m 7.60582,0 h 2.05366 a 0.87456022,0.87456022 0 0 1 0.87453,0.8745295 v 3.6723886 a 0.87456022,0.87456022 0 0 1 -0.87453,0.8745294 h -2.05366 A 0.87456022,0.87456022 0 0 1 124.91939,6.6695062 V 2.9971176 a 0.87456022,0.87456022 0 0 1 0.87453,-0.8745295 z" /><rect
       style="font-variation-settings:normal;vector-effect:none;fill:#ffffff;fill-opacity:1;stroke:none;stroke-width:4.40972;stroke-linecap:butt;stroke-linejoin:miter;stroke-miterlimit:4;stroke-dasharray:none;stroke-dashoffset:0;stroke-opacity:1;-inkscape-stroke:none;paint-order:markers stroke fill;stop-color:#000000"
       id="rect20075-7-22"
       width="731.00623"
       height="204.35858"
       x="-299.83682"
       y="74.083336"
       ry="0"
       inkscape:label="border bottom" /><rect
       style="font-variation-settings:normal;vector-effect:none;fill:#ffffff;fill-opacity:1;stroke:none;stroke-width:4.51877;stroke-linecap:butt;stroke-linejoin:miter;stroke-miterlimit:4;stroke-dasharray:none;stroke-dashoffset:0;stroke-opacity:1;-inkscape-stroke:none;paint-order:markers stroke fill;stop-color:#000000"
       id="rect20075-7-22-7"
       width="753.52936"
       height="208.17606"
       x="-302.43851"
       y="-208.17606"
       ry="0"
       inkscape:label="border top" /><rect
       style="font-variation-settings:normal;vector-effect:none;fill:#ffffff;fill-opacity:1;stroke:none;stroke-width:1.96733;stroke-linecap:butt;stroke-linejoin:miter;stroke-miterlimit:4;stroke-dasharray:none;stroke-dashoffset:0;stroke-opacity:1;-inkscape-stroke:none;paint-order:markers stroke fill;stop-color:#000000"
       id="rect20075-7-22-7-0"
       width="302.68488"
       height="98.23262"
       x="116.41667"
       y="-7.0061889"
       ry="0"
       inkscape:label="border right" /><rect
       style="font-variation-settings:normal;vector-effect:none;fill:#ffffff;fill-opacity:1;stroke:none;stroke-width:1.96733;stroke-linecap:butt;stroke-linejoin:miter;stroke-miterlimit:4;stroke-dasharray:none;stroke-dashoffset:0;stroke-opacity:1;-inkscape-stroke:none;paint-order:markers stroke fill;stop-color:#000000"
       id="rect20075-7-22-7-0-7"
       width="302.68488"
       height="98.23262"
       x="-302.68488"
       y="-11.865053"
       ry="0"
       inkscape:label="border left" /></g></svg>
