<?xml version="1.0" encoding="UTF-8" standalone="no"?>
<!-- Created with Inkscape (http://www.inkscape.org/) -->

<svg
   width="65"
   height="65"
   viewBox="0 0 17.197916 17.197917"
   version="1.1"
   id="svg4166"
   inkscape:version="1.2.2 (732a01da63, 2022-12-09)"
   sodipodi:docname="better_video_player_logo_export.svg"
   xml:space="preserve"
   xmlns:inkscape="http://www.inkscape.org/namespaces/inkscape"
   xmlns:sodipodi="http://sodipodi.sourceforge.net/DTD/sodipodi-0.dtd"
   xmlns="http://www.w3.org/2000/svg"
   xmlns:svg="http://www.w3.org/2000/svg"><sodipodi:namedview
     id="namedview4168"
     pagecolor="#cfcfcf"
     bordercolor="#000000"
     borderopacity="0.25"
     inkscape:showpageshadow="2"
     inkscape:pageopacity="0"
     inkscape:pagecheckerboard="true"
     inkscape:deskcolor="#d1d1d1"
     inkscape:document-units="mm"
     showgrid="false"
     inkscape:zoom="8.0000004"
     inkscape:cx="31.499998"
     inkscape:cy="10.312499"
     inkscape:window-width="1278"
     inkscape:window-height="1368"
     inkscape:window-x="-7"
     inkscape:window-y="0"
     inkscape:window-maximized="0"
     inkscape:current-layer="layer1" /><defs
     id="defs4163"><inkscape:path-effect
       effect="fillet_chamfer"
       id="path-effect2587"
       is_visible="true"
       lpeversion="1"
       nodesatellites_param="F,0,0,1,0,0.21166667,0,1 @ F,0,0,1,0,0.21166667,0,1 @ F,0,0,1,0,0.21166667,0,1 @ F,0,0,1,0,0.21166667,0,1"
       unit="px"
       method="auto"
       mode="F"
       radius="0.4"
       chamfer_steps="1"
       flexible="false"
       use_knot_distance="true"
       apply_no_radius="true"
       apply_with_radius="true"
       only_selected="false"
       hide_knots="false" /><linearGradient
       id="A"
       x2="0.5"
       x1="0.5"
       y2="1"
       y1="0"><stop
         stop-color="#111d2e"
         offset="0%"
         id="stop4" /><stop
         stop-color="#051839"
         offset="21.2%"
         id="stop6" /><stop
         stop-color="#0a1b48"
         offset="40.7%"
         id="stop8" /><stop
         stop-color="#132e62"
         offset="58.1%"
         id="stop10" /><stop
         stop-color="#144b7e"
         offset="73.8%"
         id="stop12" /><stop
         stop-color="#136497"
         offset="87.3%"
         id="stop14" /><stop
         stop-color="#1387b8"
         offset="100%"
         id="stop16" /></linearGradient><inkscape:path-effect
       effect="fillet_chamfer"
       id="path-effect2587-5"
       is_visible="true"
       lpeversion="1"
       nodesatellites_param="F,0,0,1,0,0.21166667,0,1 @ F,0,0,1,0,0.21166667,0,1 @ F,0,0,1,0,0.21166667,0,1 @ F,0,0,1,0,0.21166667,0,1"
       unit="px"
       method="auto"
       mode="F"
       radius="0.8"
       chamfer_steps="1"
       flexible="false"
       use_knot_distance="true"
       apply_no_radius="true"
       apply_with_radius="true"
       only_selected="false"
       hide_knots="false" /><inkscape:path-effect
       effect="fillet_chamfer"
       id="path-effect2587-5-8"
       is_visible="true"
       lpeversion="1"
       nodesatellites_param="F,0,0,1,0,0.21166667,0,1 @ F,0,0,1,0,0.21166667,0,1 @ F,0,0,1,0,0.21166667,0,1 @ F,0,0,1,0,0.21166667,0,1"
       unit="px"
       method="auto"
       mode="F"
       radius="0.8"
       chamfer_steps="1"
       flexible="false"
       use_knot_distance="true"
       apply_no_radius="true"
       apply_with_radius="true"
       only_selected="false"
       hide_knots="false" /><inkscape:path-effect
       effect="fillet_chamfer"
       id="path-effect2587-5-8-8"
       is_visible="true"
       lpeversion="1"
       nodesatellites_param="F,0,0,1,0,0.21166667,0,1 @ F,0,0,1,0,0.21166667,0,1 @ F,0,0,1,0,0.21166667,0,1 @ F,0,0,1,0,0.21166667,0,1"
       unit="px"
       method="auto"
       mode="F"
       radius="0.8"
       chamfer_steps="1"
       flexible="false"
       use_knot_distance="true"
       apply_no_radius="true"
       apply_with_radius="true"
       only_selected="false"
       hide_knots="false" /><inkscape:path-effect
       effect="fillet_chamfer"
       id="path-effect2587-5-8-8-8"
       is_visible="true"
       lpeversion="1"
       nodesatellites_param="F,0,0,1,0,0.21166667,0,1 @ F,0,0,1,0,0.21166667,0,1 @ F,0,0,1,0,0.21166667,0,1 @ F,0,0,1,0,0.21166667,0,1"
       unit="px"
       method="auto"
       mode="F"
       radius="0.8"
       chamfer_steps="1"
       flexible="false"
       use_knot_distance="true"
       apply_no_radius="true"
       apply_with_radius="true"
       only_selected="false"
       hide_knots="false" /><inkscape:path-effect
       effect="fillet_chamfer"
       id="path-effect2587-5-8-8-8-9"
       is_visible="true"
       lpeversion="1"
       nodesatellites_param="F,0,0,1,0,0.21166667,0,1 @ F,0,0,1,0,0.21166667,0,1 @ F,0,0,1,0,0.21166667,0,1 @ F,0,0,1,0,0.21166667,0,1"
       unit="px"
       method="auto"
       mode="F"
       radius="0.8"
       chamfer_steps="1"
       flexible="false"
       use_knot_distance="true"
       apply_no_radius="true"
       apply_with_radius="true"
       only_selected="false"
       hide_knots="false" /><inkscape:path-effect
       effect="fillet_chamfer"
       id="path-effect2587-5-8-8-8-9-6"
       is_visible="true"
       lpeversion="1"
       nodesatellites_param="F,0,0,1,0,0.21166667,0,1 @ F,0,0,1,0,0.21166667,0,1 @ F,0,0,1,0,0.21166667,0,1 @ F,0,0,1,0,0.21166667,0,1"
       unit="px"
       method="auto"
       mode="F"
       radius="0.8"
       chamfer_steps="1"
       flexible="false"
       use_knot_distance="true"
       apply_no_radius="true"
       apply_with_radius="true"
       only_selected="false"
       hide_knots="false" /><inkscape:path-effect
       effect="fillet_chamfer"
       id="path-effect2587-5-8-8-8-9-6-7"
       is_visible="true"
       lpeversion="1"
       nodesatellites_param="F,0,0,1,0,0.21166667,0,1 @ F,0,0,1,0,0.21166667,0,1 @ F,0,0,1,0,0.21166667,0,1 @ F,0,0,1,0,0.21166667,0,1"
       unit="px"
       method="auto"
       mode="F"
       radius="0.8"
       chamfer_steps="1"
       flexible="false"
       use_knot_distance="true"
       apply_no_radius="true"
       apply_with_radius="true"
       only_selected="false"
       hide_knots="false" /><inkscape:path-effect
       effect="fillet_chamfer"
       id="path-effect2587-3"
       is_visible="true"
       lpeversion="1"
       nodesatellites_param="F,0,0,1,0,0.21166667,0,1 @ F,0,0,1,0,0.21166667,0,1 @ F,0,0,1,0,0.21166667,0,1 @ F,0,0,1,0,0.21166667,0,1"
       unit="px"
       method="auto"
       mode="F"
       radius="0.8"
       chamfer_steps="1"
       flexible="false"
       use_knot_distance="true"
       apply_no_radius="true"
       apply_with_radius="true"
       only_selected="false"
       hide_knots="false" /><inkscape:path-effect
       effect="fillet_chamfer"
       id="path-effect2587-5-5"
       is_visible="true"
       lpeversion="1"
       nodesatellites_param="F,0,0,1,0,0.21166667,0,1 @ F,0,0,1,0,0.21166667,0,1 @ F,0,0,1,0,0.21166667,0,1 @ F,0,0,1,0,0.21166667,0,1"
       unit="px"
       method="auto"
       mode="F"
       radius="0.8"
       chamfer_steps="1"
       flexible="false"
       use_knot_distance="true"
       apply_no_radius="true"
       apply_with_radius="true"
       only_selected="false"
       hide_knots="false" /><inkscape:path-effect
       effect="fillet_chamfer"
       id="path-effect2587-5-8-5"
       is_visible="true"
       lpeversion="1"
       nodesatellites_param="F,0,0,1,0,0.21166667,0,1 @ F,0,0,1,0,0.21166667,0,1 @ F,0,0,1,0,0.21166667,0,1 @ F,0,0,1,0,0.21166667,0,1"
       unit="px"
       method="auto"
       mode="F"
       radius="0.8"
       chamfer_steps="1"
       flexible="false"
       use_knot_distance="true"
       apply_no_radius="true"
       apply_with_radius="true"
       only_selected="false"
       hide_knots="false" /><inkscape:path-effect
       effect="fillet_chamfer"
       id="path-effect2587-5-8-8-5"
       is_visible="true"
       lpeversion="1"
       nodesatellites_param="F,0,0,1,0,0.21166667,0,1 @ F,0,0,1,0,0.21166667,0,1 @ F,0,0,1,0,0.21166667,0,1 @ F,0,0,1,0,0.21166667,0,1"
       unit="px"
       method="auto"
       mode="F"
       radius="0.8"
       chamfer_steps="1"
       flexible="false"
       use_knot_distance="true"
       apply_no_radius="true"
       apply_with_radius="true"
       only_selected="false"
       hide_knots="false" /><inkscape:path-effect
       effect="fillet_chamfer"
       id="path-effect2587-5-8-8-8-7"
       is_visible="true"
       lpeversion="1"
       nodesatellites_param="F,0,0,1,0,0.21166667,0,1 @ F,0,0,1,0,0.21166667,0,1 @ F,0,0,1,0,0.21166667,0,1 @ F,0,0,1,0,0.21166667,0,1"
       unit="px"
       method="auto"
       mode="F"
       radius="0.8"
       chamfer_steps="1"
       flexible="false"
       use_knot_distance="true"
       apply_no_radius="true"
       apply_with_radius="true"
       only_selected="false"
       hide_knots="false" /><inkscape:path-effect
       effect="fillet_chamfer"
       id="path-effect2587-5-8-8-8-9-65"
       is_visible="true"
       lpeversion="1"
       nodesatellites_param="F,0,0,1,0,0.21166667,0,1 @ F,0,0,1,0,0.21166667,0,1 @ F,0,0,1,0,0.21166667,0,1 @ F,0,0,1,0,0.21166667,0,1"
       unit="px"
       method="auto"
       mode="F"
       radius="0.8"
       chamfer_steps="1"
       flexible="false"
       use_knot_distance="true"
       apply_no_radius="true"
       apply_with_radius="true"
       only_selected="false"
       hide_knots="false" /><inkscape:path-effect
       effect="fillet_chamfer"
       id="path-effect2587-5-8-8-8-9-6-8"
       is_visible="true"
       lpeversion="1"
       nodesatellites_param="F,0,0,1,0,0.21166667,0,1 @ F,0,0,1,0,0.21166667,0,1 @ F,0,0,1,0,0.21166667,0,1 @ F,0,0,1,0,0.21166667,0,1"
       unit="px"
       method="auto"
       mode="F"
       radius="0.8"
       chamfer_steps="1"
       flexible="false"
       use_knot_distance="true"
       apply_no_radius="true"
       apply_with_radius="true"
       only_selected="false"
       hide_knots="false" /><inkscape:path-effect
       effect="fillet_chamfer"
       id="path-effect2587-5-8-8-8-9-6-7-4"
       is_visible="true"
       lpeversion="1"
       nodesatellites_param="F,0,0,1,0,0.21166667,0,1 @ F,0,0,1,0,0.21166667,0,1 @ F,0,0,1,0,0.21166667,0,1 @ F,0,0,1,0,0.21166667,0,1"
       unit="px"
       method="auto"
       mode="F"
       radius="0.8"
       chamfer_steps="1"
       flexible="false"
       use_knot_distance="true"
       apply_no_radius="true"
       apply_with_radius="true"
       only_selected="false"
       hide_knots="false" /></defs><g
     inkscape:label="Layer 1"
     inkscape:groupmode="layer"
     id="layer1"
     style="display:inline"><path
       id="path426"
       style="display:inline;fill:#001000;fill-opacity:1;stroke-width:0.55;-inkscape-stroke:none;paint-order:markers stroke fill;stop-color:#000000"
       class="UnoptimicedTransforms"
       inkscape:label="reel"
       d="M 16.75627 0.081970548 C 16.75627 0.081970548 8.4277194 1.9178219 0.29215901 2.0932173 C 0.29215901 2.0932173 0.23824455 11.992507 0.71332194 16.826168 C 7.0057018 16.634611 12.626829 15.59359 17.046175 14.725521 C 16.641877 10.20076 16.637618 3.3560525 16.75627 0.081970548 z M 15.578048 1.0834598 A 0.19713364 0.22526404 41.33357 0 1 15.764083 1.269495 L 15.762016 2.0663455 A 0.19713364 0.22526404 41.33357 0 1 15.551693 2.3056074 L 15.104692 2.3640018 A 0.19713364 0.22526404 41.33357 0 1 14.894885 2.1800337 L 14.896952 1.3831831 A 0.19713364 0.22526404 41.33357 0 1 15.107275 1.1439212 L 15.554793 1.0850101 A 0.19713364 0.22526404 41.33357 0 1 15.578048 1.0834598 z M 13.604008 1.4462284 A 0.19361708 0.22829364 41.275533 0 1 13.785909 1.6291629 L 13.772473 2.4260135 A 0.19361708 0.22829364 41.275533 0 1 13.559566 2.668376 L 13.109465 2.7350386 A 0.19361708 0.22829364 41.275533 0 1 12.903792 2.5546878 L 12.917228 1.7578372 A 0.19361708 0.22829364 41.275533 0 1 13.130135 1.514958 L 13.580237 1.4482954 A 0.19361708 0.22829364 41.275533 0 1 13.604008 1.4462284 z M 11.618599 1.7821252 A 0.19565852 0.22654647 41.043775 0 1 11.803601 1.9660933 L 11.8005 2.7629439 A 0.19565852 0.22654647 41.043775 0 1 11.590177 3.0047896 L 11.139559 3.0693851 A 0.19565852 0.22654647 41.043775 0 1 10.930786 2.8874841 L 10.933887 2.0901167 A 0.19565852 0.22654647 41.043775 0 1 11.14421 1.8487878 L 11.595345 1.7841922 A 0.19565852 0.22654647 41.043775 0 1 11.618599 1.7821252 z M 9.637325 2.0895999 A 0.2007022 0.22209049 41.971244 0 1 9.8243937 2.280286 L 9.8264608 3.0786869 A 0.2007022 0.22209049 41.971244 0 1 9.6166545 3.3117476 L 9.1717204 3.3582564 A 0.2007022 0.22209049 41.971244 0 1 8.9608805 3.1680871 L 8.9588135 2.370203 A 0.2007022 0.22209049 41.971244 0 1 9.1691366 2.1366255 L 9.6135539 2.0906335 A 0.2007022 0.22209049 41.971244 0 1 9.637325 2.0895999 z M 7.6839559 2.352633 A 0.20212879 0.22079291 41.554561 0 1 7.8741252 2.543319 L 7.8870443 3.3412031 A 0.20212879 0.22079291 41.554561 0 1 7.6798218 3.5747806 L 7.236438 3.6212894 A 0.20212879 0.22079291 41.554561 0 1 7.0224976 3.4316369 L 7.0095784 2.6337528 A 0.20212879 0.22079291 41.554561 0 1 7.2168009 2.4001753 L 7.6601847 2.3536665 A 0.20212879 0.22079291 41.554561 0 1 7.6839559 2.352633 z M 5.6980306 2.5722578 A 0.20575943 0.21741347 43.678275 0 1 5.9088704 2.7732791 L 5.9052531 3.5701297 A 0.20575943 0.21741347 43.678275 0 1 5.692863 3.7928552 L 5.2489624 3.815076 A 0.20575943 0.21741347 43.678275 0 1 5.0386393 3.6140547 L 5.0422567 2.8166873 A 0.20575943 0.21741347 43.678275 0 1 5.25413 2.5944787 L 5.6980306 2.5722578 z M 3.7348429 2.7391727 A 0.21049762 0.2128293 44.322414 0 1 3.9477498 2.9474287 L 3.9529175 3.7597822 A 0.21049762 0.2128293 44.322414 0 1 3.7425944 3.975273 L 3.3017944 3.9830244 A 0.21049762 0.2128293 44.322414 0 1 3.0888875 3.7747684 L 3.0837199 2.9624149 A 0.21049762 0.2128293 44.322414 0 1 3.294043 2.7469242 L 3.7348429 2.7391727 z M 1.7763061 2.8378747 A 0.20773122 0.21553027 43.329185 0 1 1.9902466 3.0394128 L 1.9985148 3.8372969 A 0.20773122 0.21553027 43.329185 0 1 1.7892253 4.0595055 L 1.346875 4.0801761 A 0.20773122 0.21553027 43.329185 0 1 1.1334513 3.878638 L 1.1246663 3.0807539 A 0.20773122 0.21553027 43.329185 0 1 1.3339559 2.859062 L 1.7763061 2.8378747 z M 15.825061 12.898759 A 0.20027518 0.22247564 37.954768 0 1 16.024532 13.076009 L 16.080859 13.869243 A 0.20027518 0.22247564 37.954768 0 1 15.887073 14.11729 L 15.444722 14.195838 A 0.20027518 0.22247564 37.954768 0 1 15.22148 14.021688 L 15.16567 13.228455 A 0.20027518 0.22247564 37.954768 0 1 15.35894 12.980408 L 15.80129 12.90186 A 0.20027518 0.22247564 37.954768 0 1 15.825061 12.898759 z M 13.854122 13.279615 A 0.20254898 0.22040751 38.893404 0 1 14.053593 13.461516 L 14.105269 14.2594 A 0.20254898 0.22040751 38.893404 0 1 13.909416 14.501762 L 13.469649 14.567908 A 0.20254898 0.22040751 38.893404 0 1 13.246924 14.388074 L 13.195247 13.59019 A 0.20254898 0.22040751 38.893404 0 1 13.391101 13.347827 L 13.830868 13.281682 A 0.20254898 0.22040751 38.893404 0 1 13.854122 13.279615 z M 11.86768 13.620679 A 0.20598162 0.21720297 39.029813 0 1 12.068184 13.806197 L 12.130713 14.606149 A 0.20598162 0.21720297 39.029813 0 1 11.936926 14.844377 L 11.49716 14.902255 A 0.20598162 0.21720297 39.029813 0 1 11.271334 14.718803 L 11.208805 13.918852 A 0.20598162 0.21720297 39.029813 0 1 11.402075 13.680624 L 11.841842 13.622746 A 0.20598162 0.21720297 39.029813 0 1 11.86768 13.620679 z M 9.9055257 13.940039 A 0.20805597 0.2152168 39.942246 0 1 10.10603 14.130209 L 10.162358 14.920341 A 0.20805597 0.2152168 39.942246 0 1 9.9670207 15.153919 L 9.5282878 15.199911 A 0.20805597 0.2152168 39.942246 0 1 9.3029785 15.011292 L 9.2461344 14.220642 A 0.20805597 0.2152168 39.942246 0 1 9.4414714 13.987582 L 9.8802043 13.941073 A 0.20805597 0.2152168 39.942246 0 1 9.9055257 13.940039 z M 7.9717936 14.211341 A 0.2070445 0.21619004 40.237153 0 1 8.1697144 14.40151 L 8.218807 15.200428 A 0.2070445 0.21619004 40.237153 0 1 8.021403 15.433488 L 7.5821533 15.479997 A 0.2070445 0.21619004 40.237153 0 1 7.3589111 15.290861 L 7.3093018 14.491944 A 0.2070445 0.21619004 40.237153 0 1 7.5067057 14.258366 L 7.9464722 14.212374 A 0.2070445 0.21619004 40.237153 0 1 7.9717936 14.211341 z M 5.9832845 14.447502 A 0.21220333 0.21112865 39.968158 0 1 6.1879232 14.640772 L 6.2592366 15.427287 A 0.21220333 0.21112865 39.968158 0 1 6.0675171 15.655697 L 5.6287842 15.693421 A 0.21220333 0.21112865 39.968158 0 1 5.3988241 15.500668 L 5.3275106 14.714152 A 0.21220333 0.21112865 39.968158 0 1 5.5197469 14.485226 L 5.957963 14.448019 A 0.21220333 0.21112865 39.968158 0 1 5.9832845 14.447502 z M 4.0051107 14.622168 A 0.21351465 0.20980242 40.427156 0 1 4.2350708 14.818022 L 4.304834 15.605054 A 0.21351465 0.20980242 40.427156 0 1 4.1120809 15.83088 L 3.6712809 15.862403 A 0.21351465 0.20980242 40.427156 0 1 3.4413208 15.666549 L 3.3715576 14.879517 A 0.21351465 0.20980242 40.427156 0 1 3.5637939 14.653691 L 4.0051107 14.622168 z M 2.033138 14.737407 A 0.21680152 0.20640412 40.854938 0 1 2.2651652 14.938428 L 2.3431966 15.738379 A 0.21680152 0.20640412 40.854938 0 1 2.1519938 15.959038 L 1.7132609 15.980225 A 0.21680152 0.20640412 40.854938 0 1 1.4812337 15.77972 L 1.4037191 14.979252 A 0.21680152 0.20640412 40.854938 0 1 1.5944051 14.758594 L 2.033138 14.737407 z "
       transform="translate(-0.06943359,0.14488899)" /><path
       style="fill:#6cab62;fill-opacity:0.534682;stroke:none;stroke-width:0.55;-inkscape-stroke:none;paint-order:markers stroke fill;stop-color:#000000"
       d="M 0.82353509,4.5022455 C 8.0966067,4.3034638 15.984629,2.5688986 15.984629,2.5688986 c 0,0 0.04242,6.9018881 0.217811,10.0940884 C 5.6319311,14.802814 1.0365029,14.656218 1.0365029,14.656218 0.79094902,8.3068968 0.82353509,4.5022455 0.82353509,4.5022455 Z"
       id="path852"
       sodipodi:nodetypes="ccccc"
       inkscape:label="background" /><path
       style="display:inline;fill:#121c25;fill-opacity:0.525773;stroke:none;stroke-width:0.55;-inkscape-stroke:none;paint-order:markers stroke fill;stop-color:#000000"
       d="M 7.3938663,13.463129 9.9900904,13.066253 9.6428249,10.321201 12.387877,9.9739345 12.040611,7.4934665 9.2790223,7.8241957 9.014439,5.0129978 6.4595564,5.3354587 6.7489445,8.2210706 4.2354028,8.5352634 4.4338403,10.784223 6.9969913,10.42042 Z"
       id="path3225-7"
       inkscape:label="plus drop shadow"
       sodipodi:nodetypes="ccccccccccccc" /><path
       style="fill:#6cb562;fill-opacity:1;stroke:none;stroke-width:0.55;-inkscape-stroke:none;paint-order:markers stroke fill;stop-color:#000000"
       d="M 8.088916,12.844889 10.685139,12.448013 10.337874,9.7029613 13.082926,9.3556956 12.73566,6.8752272 9.9740724,7.2059564 9.7094887,4.3947585 7.1546061,4.7172194 7.4439942,7.6028313 4.9304525,7.9170241 5.12889,10.165983 7.692041,9.80218 Z"
       id="path3225"
       inkscape:label="plus"
       sodipodi:nodetypes="ccccccccccccc" /></g></svg>
