<?xml version="1.0" encoding="UTF-8" standalone="no"?>
<!-- Created with Inkscape (http://www.inkscape.org/) -->

<svg
   width="65"
   height="65"
   viewBox="0 0 17.197916 17.197917"
   version="1.1"
   id="svg4166"
   inkscape:version="1.2.2 (732a01da63, 2022-12-09)"
   sodipodi:docname="better_video_player_logo_indev.svg"
   xml:space="preserve"
   xmlns:inkscape="http://www.inkscape.org/namespaces/inkscape"
   xmlns:sodipodi="http://sodipodi.sourceforge.net/DTD/sodipodi-0.dtd"
   xmlns:xlink="http://www.w3.org/1999/xlink"
   xmlns="http://www.w3.org/2000/svg"
   xmlns:svg="http://www.w3.org/2000/svg"><sodipodi:namedview
     id="namedview4168"
     pagecolor="#cfcfcf"
     bordercolor="#000000"
     borderopacity="0.25"
     inkscape:showpageshadow="2"
     inkscape:pageopacity="0"
     inkscape:pagecheckerboard="true"
     inkscape:deskcolor="#d1d1d1"
     inkscape:document-units="mm"
     showgrid="false"
     inkscape:zoom="8.0000004"
     inkscape:cx="24.749999"
     inkscape:cy="35.812498"
     inkscape:window-width="1278"
     inkscape:window-height="1368"
     inkscape:window-x="-7"
     inkscape:window-y="0"
     inkscape:window-maximized="0"
     inkscape:current-layer="layer1" /><defs
     id="defs4163"><inkscape:path-effect
       effect="fillet_chamfer"
       id="path-effect2587"
       is_visible="true"
       lpeversion="1"
       nodesatellites_param="F,0,0,1,0,0.21166667,0,1 @ F,0,0,1,0,0.21166667,0,1 @ F,0,0,1,0,0.21166667,0,1 @ F,0,0,1,0,0.21166667,0,1"
       unit="px"
       method="auto"
       mode="F"
       radius="0.4"
       chamfer_steps="1"
       flexible="false"
       use_knot_distance="true"
       apply_no_radius="true"
       apply_with_radius="true"
       only_selected="false"
       hide_knots="false" /><linearGradient
       id="A"
       x2="0.5"
       x1="0.5"
       y2="1"
       y1="0"><stop
         stop-color="#111d2e"
         offset="0%"
         id="stop4" /><stop
         stop-color="#051839"
         offset="21.2%"
         id="stop6" /><stop
         stop-color="#0a1b48"
         offset="40.7%"
         id="stop8" /><stop
         stop-color="#132e62"
         offset="58.1%"
         id="stop10" /><stop
         stop-color="#144b7e"
         offset="73.8%"
         id="stop12" /><stop
         stop-color="#136497"
         offset="87.3%"
         id="stop14" /><stop
         stop-color="#1387b8"
         offset="100%"
         id="stop16" /></linearGradient><inkscape:path-effect
       effect="fillet_chamfer"
       id="path-effect2587-5"
       is_visible="true"
       lpeversion="1"
       nodesatellites_param="F,0,0,1,0,0.21166667,0,1 @ F,0,0,1,0,0.21166667,0,1 @ F,0,0,1,0,0.21166667,0,1 @ F,0,0,1,0,0.21166667,0,1"
       unit="px"
       method="auto"
       mode="F"
       radius="0.8"
       chamfer_steps="1"
       flexible="false"
       use_knot_distance="true"
       apply_no_radius="true"
       apply_with_radius="true"
       only_selected="false"
       hide_knots="false" /><inkscape:path-effect
       effect="fillet_chamfer"
       id="path-effect2587-5-8"
       is_visible="true"
       lpeversion="1"
       nodesatellites_param="F,0,0,1,0,0.21166667,0,1 @ F,0,0,1,0,0.21166667,0,1 @ F,0,0,1,0,0.21166667,0,1 @ F,0,0,1,0,0.21166667,0,1"
       unit="px"
       method="auto"
       mode="F"
       radius="0.8"
       chamfer_steps="1"
       flexible="false"
       use_knot_distance="true"
       apply_no_radius="true"
       apply_with_radius="true"
       only_selected="false"
       hide_knots="false" /><inkscape:path-effect
       effect="fillet_chamfer"
       id="path-effect2587-5-8-8"
       is_visible="true"
       lpeversion="1"
       nodesatellites_param="F,0,0,1,0,0.21166667,0,1 @ F,0,0,1,0,0.21166667,0,1 @ F,0,0,1,0,0.21166667,0,1 @ F,0,0,1,0,0.21166667,0,1"
       unit="px"
       method="auto"
       mode="F"
       radius="0.8"
       chamfer_steps="1"
       flexible="false"
       use_knot_distance="true"
       apply_no_radius="true"
       apply_with_radius="true"
       only_selected="false"
       hide_knots="false" /><inkscape:path-effect
       effect="fillet_chamfer"
       id="path-effect2587-5-8-8-8"
       is_visible="true"
       lpeversion="1"
       nodesatellites_param="F,0,0,1,0,0.21166667,0,1 @ F,0,0,1,0,0.21166667,0,1 @ F,0,0,1,0,0.21166667,0,1 @ F,0,0,1,0,0.21166667,0,1"
       unit="px"
       method="auto"
       mode="F"
       radius="0.8"
       chamfer_steps="1"
       flexible="false"
       use_knot_distance="true"
       apply_no_radius="true"
       apply_with_radius="true"
       only_selected="false"
       hide_knots="false" /><inkscape:path-effect
       effect="fillet_chamfer"
       id="path-effect2587-5-8-8-8-9"
       is_visible="true"
       lpeversion="1"
       nodesatellites_param="F,0,0,1,0,0.21166667,0,1 @ F,0,0,1,0,0.21166667,0,1 @ F,0,0,1,0,0.21166667,0,1 @ F,0,0,1,0,0.21166667,0,1"
       unit="px"
       method="auto"
       mode="F"
       radius="0.8"
       chamfer_steps="1"
       flexible="false"
       use_knot_distance="true"
       apply_no_radius="true"
       apply_with_radius="true"
       only_selected="false"
       hide_knots="false" /><inkscape:path-effect
       effect="fillet_chamfer"
       id="path-effect2587-5-8-8-8-9-6"
       is_visible="true"
       lpeversion="1"
       nodesatellites_param="F,0,0,1,0,0.21166667,0,1 @ F,0,0,1,0,0.21166667,0,1 @ F,0,0,1,0,0.21166667,0,1 @ F,0,0,1,0,0.21166667,0,1"
       unit="px"
       method="auto"
       mode="F"
       radius="0.8"
       chamfer_steps="1"
       flexible="false"
       use_knot_distance="true"
       apply_no_radius="true"
       apply_with_radius="true"
       only_selected="false"
       hide_knots="false" /><inkscape:path-effect
       effect="fillet_chamfer"
       id="path-effect2587-5-8-8-8-9-6-7"
       is_visible="true"
       lpeversion="1"
       nodesatellites_param="F,0,0,1,0,0.21166667,0,1 @ F,0,0,1,0,0.21166667,0,1 @ F,0,0,1,0,0.21166667,0,1 @ F,0,0,1,0,0.21166667,0,1"
       unit="px"
       method="auto"
       mode="F"
       radius="0.8"
       chamfer_steps="1"
       flexible="false"
       use_knot_distance="true"
       apply_no_radius="true"
       apply_with_radius="true"
       only_selected="false"
       hide_knots="false" /><inkscape:path-effect
       effect="fillet_chamfer"
       id="path-effect2587-3"
       is_visible="true"
       lpeversion="1"
       nodesatellites_param="F,0,0,1,0,0.21166667,0,1 @ F,0,0,1,0,0.21166667,0,1 @ F,0,0,1,0,0.21166667,0,1 @ F,0,0,1,0,0.21166667,0,1"
       unit="px"
       method="auto"
       mode="F"
       radius="0.8"
       chamfer_steps="1"
       flexible="false"
       use_knot_distance="true"
       apply_no_radius="true"
       apply_with_radius="true"
       only_selected="false"
       hide_knots="false" /><inkscape:path-effect
       effect="fillet_chamfer"
       id="path-effect2587-5-5"
       is_visible="true"
       lpeversion="1"
       nodesatellites_param="F,0,0,1,0,0.21166667,0,1 @ F,0,0,1,0,0.21166667,0,1 @ F,0,0,1,0,0.21166667,0,1 @ F,0,0,1,0,0.21166667,0,1"
       unit="px"
       method="auto"
       mode="F"
       radius="0.8"
       chamfer_steps="1"
       flexible="false"
       use_knot_distance="true"
       apply_no_radius="true"
       apply_with_radius="true"
       only_selected="false"
       hide_knots="false" /><inkscape:path-effect
       effect="fillet_chamfer"
       id="path-effect2587-5-8-5"
       is_visible="true"
       lpeversion="1"
       nodesatellites_param="F,0,0,1,0,0.21166667,0,1 @ F,0,0,1,0,0.21166667,0,1 @ F,0,0,1,0,0.21166667,0,1 @ F,0,0,1,0,0.21166667,0,1"
       unit="px"
       method="auto"
       mode="F"
       radius="0.8"
       chamfer_steps="1"
       flexible="false"
       use_knot_distance="true"
       apply_no_radius="true"
       apply_with_radius="true"
       only_selected="false"
       hide_knots="false" /><inkscape:path-effect
       effect="fillet_chamfer"
       id="path-effect2587-5-8-8-5"
       is_visible="true"
       lpeversion="1"
       nodesatellites_param="F,0,0,1,0,0.21166667,0,1 @ F,0,0,1,0,0.21166667,0,1 @ F,0,0,1,0,0.21166667,0,1 @ F,0,0,1,0,0.21166667,0,1"
       unit="px"
       method="auto"
       mode="F"
       radius="0.8"
       chamfer_steps="1"
       flexible="false"
       use_knot_distance="true"
       apply_no_radius="true"
       apply_with_radius="true"
       only_selected="false"
       hide_knots="false" /><inkscape:path-effect
       effect="fillet_chamfer"
       id="path-effect2587-5-8-8-8-7"
       is_visible="true"
       lpeversion="1"
       nodesatellites_param="F,0,0,1,0,0.21166667,0,1 @ F,0,0,1,0,0.21166667,0,1 @ F,0,0,1,0,0.21166667,0,1 @ F,0,0,1,0,0.21166667,0,1"
       unit="px"
       method="auto"
       mode="F"
       radius="0.8"
       chamfer_steps="1"
       flexible="false"
       use_knot_distance="true"
       apply_no_radius="true"
       apply_with_radius="true"
       only_selected="false"
       hide_knots="false" /><inkscape:path-effect
       effect="fillet_chamfer"
       id="path-effect2587-5-8-8-8-9-65"
       is_visible="true"
       lpeversion="1"
       nodesatellites_param="F,0,0,1,0,0.21166667,0,1 @ F,0,0,1,0,0.21166667,0,1 @ F,0,0,1,0,0.21166667,0,1 @ F,0,0,1,0,0.21166667,0,1"
       unit="px"
       method="auto"
       mode="F"
       radius="0.8"
       chamfer_steps="1"
       flexible="false"
       use_knot_distance="true"
       apply_no_radius="true"
       apply_with_radius="true"
       only_selected="false"
       hide_knots="false" /><inkscape:path-effect
       effect="fillet_chamfer"
       id="path-effect2587-5-8-8-8-9-6-8"
       is_visible="true"
       lpeversion="1"
       nodesatellites_param="F,0,0,1,0,0.21166667,0,1 @ F,0,0,1,0,0.21166667,0,1 @ F,0,0,1,0,0.21166667,0,1 @ F,0,0,1,0,0.21166667,0,1"
       unit="px"
       method="auto"
       mode="F"
       radius="0.8"
       chamfer_steps="1"
       flexible="false"
       use_knot_distance="true"
       apply_no_radius="true"
       apply_with_radius="true"
       only_selected="false"
       hide_knots="false" /><inkscape:path-effect
       effect="fillet_chamfer"
       id="path-effect2587-5-8-8-8-9-6-7-4"
       is_visible="true"
       lpeversion="1"
       nodesatellites_param="F,0,0,1,0,0.21166667,0,1 @ F,0,0,1,0,0.21166667,0,1 @ F,0,0,1,0,0.21166667,0,1 @ F,0,0,1,0,0.21166667,0,1"
       unit="px"
       method="auto"
       mode="F"
       radius="0.8"
       chamfer_steps="1"
       flexible="false"
       use_knot_distance="true"
       apply_no_radius="true"
       apply_with_radius="true"
       only_selected="false"
       hide_knots="false" /></defs><g
     inkscape:label="Layer 1"
     inkscape:groupmode="layer"
     id="layer1"
     style="display:inline"><image
       width="66.146217"
       height="26.086414"
       preserveAspectRatio="none"
       xlink:href="curved-film-strip-white-background-space-images-copy-121896391.jpg"
       id="image145"
       x="-16.2819"
       y="-4.5774479"
       inkscape:label="reference"
       style="display:none" /><path
       style="display:inline;fill:#001000;fill-opacity:1;stroke-width:0.55;-inkscape-stroke:none;paint-order:markers stroke fill;stop-color:#000000"
       d="m 0.29232606,2.0930543 c 0,0 -0.0541282,9.8995667 0.42094966,14.7332327 C 7.0056619,16.63473 12.626971,15.593411 17.046322,14.725341 16.642023,10.200575 16.637476,3.3559369 16.756128,0.08185169 c 0,0 -8.3282334,1.83580701 -16.46380194,2.01120261 z"
       id="path426"
       sodipodi:nodetypes="ccccc"
       class="UnoptimicedTransforms"
       transform="translate(-0.06943359,0.14488899)"
       inkscape:label="reel" /><path
       style="fill:#6cab62;fill-opacity:0.534682;stroke:none;stroke-width:0.55;-inkscape-stroke:none;paint-order:markers stroke fill;stop-color:#000000"
       d="M 0.82353509,4.5022455 C 8.0966067,4.3034638 15.984629,2.5688986 15.984629,2.5688986 c 0,0 0.04242,6.9018881 0.217811,10.0940884 C 5.6319311,14.802814 1.0365029,14.656218 1.0365029,14.656218 0.79094902,8.3068968 0.82353509,4.5022455 0.82353509,4.5022455 Z"
       id="path852"
       sodipodi:nodetypes="ccccc"
       inkscape:label="background" /><path
       style="fill:#6cb562;fill-opacity:1;stroke:none;stroke-width:0.92348;-inkscape-stroke:none;paint-order:markers stroke fill;stop-color:#000000"
       id="rect1073"
       width="0.86619025"
       height="1.2215083"
       x="1.0213766"
       y="3.0626047"
       transform="matrix(0.99886804,-0.04756726,0.01073702,0.99994236,0,0)"
       sodipodi:type="rect"
       d="m 1.2330433,3.0626047 h 0.4428569 a 0.21166667,0.21166667 45 0 1 0.2116667,0.2116666 v 0.798175 A 0.21166667,0.21166667 135 0 1 1.6759002,4.2841129 H 1.2330433 A 0.21166667,0.21166667 45 0 1 1.0213766,4.0724463 V 3.2742713 A 0.21166667,0.21166667 135 0 1 1.2330433,3.0626047 Z"
       inkscape:path-effect="#path-effect2587"
       inkscape:label="perf 1" /><path
       style="display:inline;fill:#6cab62;fill-opacity:0.534682;stroke:none;stroke-width:0.92348;-inkscape-stroke:none;paint-order:markers stroke fill;stop-color:#000000"
       id="rect1073-9"
       width="0.86422682"
       height="1.2358524"
       x="2.9945726"
       y="2.947464"
       transform="matrix(0.99984977,-0.01733313,0.00631811,0.99998004,0,0)"
       sodipodi:type="rect"
       d="m 3.2062393,2.947464 h 0.4408935 a 0.21166667,0.21166667 45 0 1 0.2116667,0.2116667 l 0,0.812519 A 0.21166667,0.21166667 135 0 1 3.6471328,4.1833163 H 3.2062393 A 0.21166667,0.21166667 45 0 1 2.9945726,3.9716497 l 0,-0.812519 A 0.21166667,0.21166667 135 0 1 3.2062393,2.947464 Z"
       inkscape:path-effect="#path-effect2587-5"
       inkscape:label="perf 2" /><path
       style="display:inline;fill:#6cb562;fill-opacity:1;stroke:none;stroke-width:0.92348;-inkscape-stroke:none;paint-order:markers stroke fill;stop-color:#000000"
       id="rect1073-9-0"
       width="0.86774981"
       height="1.2205679"
       x="4.9933352"
       y="3.0027504"
       transform="matrix(0.99872004,-0.05057955,-0.00446422,0.99999004,0,0)"
       sodipodi:type="rect"
       d="M 5.2050019,3.0027504 H 5.6494184 A 0.21166667,0.21166667 45 0 1 5.8610851,3.2144171 V 4.0116517 A 0.21166667,0.21166667 135 0 1 5.6494184,4.2233183 H 5.2050019 A 0.21166667,0.21166667 45 0 1 4.9933352,4.0116517 l 0,-0.7972346 A 0.21166667,0.21166667 135 0 1 5.2050019,3.0027504 Z"
       inkscape:path-effect="#path-effect2587-5-8"
       inkscape:label="perf 3" /><path
       style="display:inline;fill:#6cab62;fill-opacity:0.534682;stroke:none;stroke-width:0.92348;-inkscape-stroke:none;paint-order:markers stroke fill;stop-color:#000000"
       id="rect1073-9-0-8"
       width="0.86920696"
       height="1.2214231"
       x="6.921865"
       y="3.2876785"
       transform="matrix(0.99457224,-0.10404832,0.01603078,0.9998715,0,0)"
       sodipodi:type="rect"
       d="M 7.1335317,3.2876785 H 7.5794053 A 0.21166667,0.21166667 45 0 1 7.791072,3.4993452 V 4.297435 A 0.21166667,0.21166667 135 0 1 7.5794053,4.5091016 H 7.1335317 A 0.21166667,0.21166667 45 0 1 6.921865,4.297435 l 0,-0.7980898 A 0.21166667,0.21166667 135 0 1 7.1335317,3.2876785 Z"
       inkscape:path-effect="#path-effect2587-5-8-8"
       inkscape:label="perf 4" /><path
       style="display:inline;fill:#6cb562;fill-opacity:1;stroke:none;stroke-width:0.92348;-inkscape-stroke:none;paint-order:markers stroke fill;stop-color:#000000"
       id="rect1073-9-0-8-3"
       width="0.87037086"
       height="1.2212827"
       x="8.9292231"
       y="3.2252579"
       transform="matrix(0.99465828,-0.10322259,0.00231671,0.99999732,0,0)"
       sodipodi:type="rect"
       d="M 9.1408897,3.2252579 H 9.5879273 A 0.21166667,0.21166667 45 0 1 9.7995939,3.4369245 V 4.2348739 A 0.21166667,0.21166667 135 0 1 9.5879273,4.4465406 H 9.1408897 A 0.21166667,0.21166667 45 0 1 8.9292231,4.2348739 V 3.4369245 A 0.21166667,0.21166667 135 0 1 9.1408897,3.2252579 Z"
       inkscape:path-effect="#path-effect2587-5-8-8-8"
       inkscape:label="perf 5" /><path
       style="display:inline;fill:#6cab62;fill-opacity:0.534682;stroke:none;stroke-width:0.92348;-inkscape-stroke:none;paint-order:markers stroke fill;stop-color:#000000"
       id="rect1073-9-0-8-3-2"
       width="0.87862939"
       height="1.2206682"
       x="10.990446"
       y="3.5797696"
       transform="matrix(0.98992393,-0.14160022,-0.00397936,0.99999208,0,0)"
       sodipodi:type="rect"
       d="m 11.202113,3.5797696 h 0.455296 a 0.21166667,0.21166667 45 0 1 0.211666,0.2116667 V 4.5887711 A 0.21166667,0.21166667 135 0 1 11.657409,4.8004378 H 11.202113 A 0.21166667,0.21166667 45 0 1 10.990446,4.5887711 V 3.7914363 a 0.21166667,0.21166667 135 0 1 0.211667,-0.2116667 z"
       inkscape:path-effect="#path-effect2587-5-8-8-8-9"
       inkscape:label="perf 6" /><path
       style="display:inline;fill:#6cb562;fill-opacity:1;stroke:none;stroke-width:0.92348;-inkscape-stroke:none;paint-order:markers stroke fill;stop-color:#000000"
       id="rect1073-9-0-8-3-2-6"
       width="0.87838435"
       height="1.2203393"
       x="13.053468"
       y="3.6035986"
       transform="matrix(0.98921359,-0.14648031,-0.01699998,0.99985549,0,0)"
       sodipodi:type="rect"
       d="m 13.265134,3.6035986 h 0.455051 a 0.21166667,0.21166667 45 0 1 0.211667,0.2116667 V 4.6122712 A 0.21166667,0.21166667 135 0 1 13.720185,4.8239379 H 13.265134 A 0.21166667,0.21166667 45 0 1 13.053468,4.6122712 V 3.8152653 a 0.21166667,0.21166667 135 0 1 0.211666,-0.2116667 z"
       inkscape:path-effect="#path-effect2587-5-8-8-8-9-6"
       inkscape:label="perf 7" /><path
       style="display:inline;fill:#6cab62;fill-opacity:0.53;stroke:none;stroke-width:0.92348;-inkscape-stroke:none;paint-order:markers stroke fill;stop-color:#000000"
       id="rect1073-9-0-8-3-2-6-4"
       width="0.87435001"
       height="1.2202947"
       x="14.963614"
       y="3.2634289"
       transform="matrix(0.99149825,-0.13012005,-0.0025075,0.99999686,0,0)"
       sodipodi:type="rect"
       d="m 15.175281,3.2634289 h 0.451017 a 0.21166667,0.21166667 45 0 1 0.211666,0.2116667 l 0,0.7969614 A 0.21166667,0.21166667 135 0 1 15.626298,4.4837236 H 15.175281 A 0.21166667,0.21166667 45 0 1 14.963614,4.272057 V 3.4750956 a 0.21166667,0.21166667 135 0 1 0.211667,-0.2116667 z"
       inkscape:path-effect="#path-effect2587-5-8-8-8-9-6-7"
       inkscape:label="perf 8" /><path
       style="display:inline;fill:#6cab62;fill-opacity:1;stroke:none;stroke-width:0.92348;-inkscape-stroke:none;paint-order:markers stroke fill;stop-color:#000000"
       id="rect1073-2"
       width="0.86263132"
       height="1.2271957"
       x="-0.13560949"
       y="14.977435"
       transform="matrix(0.99885867,-0.04776351,0.09675661,0.99530807,0,0)"
       sodipodi:type="rect"
       d="m 0.07605718,14.977435 h 0.43929798 a 0.21166667,0.21166667 45 0 1 0.21166667,0.211667 v 0.803862 A 0.21166667,0.21166667 135 0 1 0.51535516,16.204631 H 0.07605718 a 0.21166667,0.21166667 45 0 1 -0.21166667,-0.211667 v -0.803862 a 0.21166667,0.21166667 135 0 1 0.21166667,-0.211667 z"
       inkscape:path-effect="#path-effect2587-3"
       inkscape:label="perf 9" /><path
       style="display:inline;fill:#6cab62;fill-opacity:0.534682;stroke:none;stroke-width:0.92348;-inkscape-stroke:none;paint-order:markers stroke fill;stop-color:#000000"
       id="rect1073-9-9"
       width="0.86567676"
       height="1.2133868"
       x="1.9601437"
       y="15.011517"
       transform="matrix(0.99747758,-0.07098226,0.08846454,0.99607933,0,0)"
       sodipodi:type="rect"
       d="m 2.1718104,15.011517 h 0.4423434 a 0.21166667,0.21166667 45 0 1 0.2116666,0.211666 v 0.790054 A 0.21166667,0.21166667 135 0 1 2.6141538,16.224903 H 2.1718104 A 0.21166667,0.21166667 45 0 1 1.9601437,16.013237 v -0.790054 a 0.21166667,0.21166667 135 0 1 0.2116667,-0.211666 z"
       inkscape:path-effect="#path-effect2587-5-5"
       inkscape:label="perf 10" /><path
       style="display:inline;fill:#6cab62;fill-opacity:1;stroke:none;stroke-width:0.92348;-inkscape-stroke:none;paint-order:markers stroke fill;stop-color:#000000"
       id="rect1073-9-0-9"
       width="0.86331576"
       height="1.2129298"
       x="3.8960683"
       y="15.041561"
       transform="matrix(0.99636557,-0.08518006,0.09023775,0.99592025,0,0)"
       sodipodi:type="rect"
       d="m 4.107735,15.041561 h 0.4399824 a 0.21166667,0.21166667 45 0 1 0.2116667,0.211667 v 0.789596 A 0.21166667,0.21166667 135 0 1 4.5477174,16.254491 H 4.107735 A 0.21166667,0.21166667 45 0 1 3.8960683,16.042824 V 15.253228 A 0.21166667,0.21166667 135 0 1 4.107735,15.041561 Z"
       inkscape:path-effect="#path-effect2587-5-8-5"
       inkscape:label="perf 11" /><path
       style="display:inline;fill:#6cab62;fill-opacity:0.534682;stroke:none;stroke-width:0.92348;-inkscape-stroke:none;paint-order:markers stroke fill;stop-color:#000000"
       id="rect1073-9-0-8-0"
       width="0.86510843"
       height="1.2235811"
       x="6.3323193"
       y="15.116089"
       transform="matrix(0.99452055,-0.10454126,0.06148322,0.99810812,0,0)"
       sodipodi:type="rect"
       d="M 6.5439859,15.116089 H 6.985761 a 0.21166667,0.21166667 45 0 1 0.2116667,0.211667 v 0.800247 A 0.21166667,0.21166667 135 0 1 6.985761,16.33967 H 6.5439859 A 0.21166667,0.21166667 45 0 1 6.3323193,16.128003 v -0.800247 a 0.21166667,0.21166667 135 0 1 0.2116666,-0.211667 z"
       inkscape:path-effect="#path-effect2587-5-8-8-5"
       inkscape:label="perf 12" /><path
       style="display:inline;fill:#6cab62;fill-opacity:1;stroke:none;stroke-width:0.92348;-inkscape-stroke:none;paint-order:markers stroke fill;stop-color:#000000"
       id="rect1073-9-0-8-3-0"
       width="0.86433595"
       height="1.2157466"
       x="8.133934"
       y="15.046956"
       transform="matrix(0.99447254,-0.10499703,0.07129804,0.99745506,0,0)"
       sodipodi:type="rect"
       d="M 8.3456007,15.046956 H 8.7866033 A 0.21166667,0.21166667 45 0 1 8.99827,15.258623 v 0.792413 A 0.21166667,0.21166667 135 0 1 8.7866033,16.262703 H 8.3456007 A 0.21166667,0.21166667 45 0 1 8.133934,16.051036 v -0.792413 a 0.21166667,0.21166667 135 0 1 0.2116667,-0.211667 z"
       inkscape:path-effect="#path-effect2587-5-8-8-8-7"
       inkscape:label="perf 13" /><path
       style="display:inline;fill:#6cab62;fill-opacity:0.534682;stroke:none;stroke-width:0.92348;-inkscape-stroke:none;paint-order:markers stroke fill;stop-color:#000000"
       id="rect1073-9-0-8-3-2-3"
       width="0.86690319"
       height="1.2257293"
       x="10.028374"
       y="15.205811"
       transform="matrix(0.99146965,-0.13033774,0.07761106,0.99698371,0,0)"
       sodipodi:type="rect"
       d="m 10.24004,15.205811 h 0.44357 a 0.21166667,0.21166667 45 0 1 0.211667,0.211666 v 0.802396 A 0.21166667,0.21166667 135 0 1 10.68361,16.43154 h -0.44357 a 0.21166667,0.21166667 45 0 1 -0.211666,-0.211667 v -0.802396 a 0.21166667,0.21166667 135 0 1 0.211666,-0.211666 z"
       inkscape:path-effect="#path-effect2587-5-8-8-8-9-65"
       inkscape:label="perf 14" /><path
       style="display:inline;fill:#6cab62;fill-opacity:1;stroke:none;stroke-width:0.92348;-inkscape-stroke:none;paint-order:markers stroke fill;stop-color:#000000"
       id="rect1073-9-0-8-3-2-6-40"
       width="0.86801589"
       height="1.2226962"
       x="12.258603"
       y="15.372799"
       transform="matrix(0.98895291,-0.14823002,0.06433771,0.99792818,0,0)"
       sodipodi:type="rect"
       d="m 12.47027,15.372799 h 0.444682 a 0.21166667,0.21166667 45 0 1 0.211667,0.211667 l 0,0.799362 a 0.21166667,0.21166667 135 0 1 -0.211667,0.211667 H 12.47027 a 0.21166667,0.21166667 45 0 1 -0.211667,-0.211667 v -0.799362 a 0.21166667,0.21166667 135 0 1 0.211667,-0.211667 z"
       inkscape:path-effect="#path-effect2587-5-8-8-8-9-6-8"
       inkscape:label="perf 15" /><path
       style="display:inline;fill:#6cab62;fill-opacity:0.53;stroke:none;stroke-width:0.92348;-inkscape-stroke:none;paint-order:markers stroke fill;stop-color:#000000"
       id="rect1073-9-0-8-3-2-6-4-8"
       width="0.87254524"
       height="1.2187232"
       x="14.194753"
       y="15.678349"
       transform="matrix(0.98465183,-0.17453017,0.07043803,0.99751616,0,0)"
       sodipodi:type="rect"
       d="m 14.406419,15.678349 h 0.449212 a 0.21166667,0.21166667 45 0 1 0.211667,0.211666 v 0.79539 a 0.21166667,0.21166667 135 0 1 -0.211667,0.211667 h -0.449212 a 0.21166667,0.21166667 45 0 1 -0.211666,-0.211667 v -0.79539 a 0.21166667,0.21166667 135 0 1 0.211666,-0.211666 z"
       inkscape:path-effect="#path-effect2587-5-8-8-8-9-6-7-4"
       inkscape:label="perf 16" /><g
       id="g3249"
       inkscape:label="curvature paths"
       style="display:none"><path
         style="fill:#6c2662;fill-opacity:0.534682;stroke:none;stroke-width:0.55;-inkscape-stroke:none;paint-order:markers stroke fill;stop-color:#000000"
         d="m 2.6458332,4.1341143 c -0.014695,0.073472 -0.061444,0.2979798 -0.066146,0.363802 -0.022528,0.3153921 0,0.6431267 0,0.9591146 0,1.0023417 -0.00617,-0.1620951 0.033073,1.2898438 0.00357,0.1322432 -0.01055,0.2650045 0,0.3968749 0.011563,0.1445403 0.054104,0.2854466 0.066146,0.429948 0.11836,1.42032 -0.1596637,-0.9078074 0.033073,0.8268226 0.016013,0.1441154 0.054583,0.2854076 0.066146,0.4299479 0.010549,0.1318705 -0.00629,0.2647331 0,0.396875 0.023707,0.4978125 0.09767,1.0305659 0.1653646,1.5213539 0.015362,0.111372 0.049469,0.219547 0.066146,0.330729 0.045956,0.306372 0.048247,0.620212 0.099219,0.926042 0.016708,0.100256 0.05427,0.196713 0.066146,0.297656 0.010306,0.08759 -0.0055,0.176561 0,0.264584 0.038051,0.608807 0.170929,1.233076 0.3307292,1.81901 0.021116,0.07743 0.048735,0.153163 0.066146,0.23151 0.00956,0.04305 -0.019722,0.09285 0,0.132292 0.00493,0.0099 0.022048,0 0.033073,0"
         id="path3145" /><path
         style="fill:#6c2662;fill-opacity:0.534682;stroke:none;stroke-width:0.55;-inkscape-stroke:none;paint-order:markers stroke fill;stop-color:#000000"
         d="m 5.0932288,3.9687497 c 0,0.1322917 0.00551,0.2646981 0,0.396875 -0.049103,1.178465 -0.028291,-0.6403681 -0.066146,1.0252604 -0.014528,0.6392447 -0.019079,1.279104 0,1.9182291 0.027308,0.9148149 0.1017569,1.4889507 0.1984375,2.4143226 0.09678,0.9263262 0.1948114,1.8525212 0.2976562,2.7781252 0.047704,0.429335 0.094341,0.863703 0.1653646,1.289843 0.023667,0.141998 0.081659,0.289473 0.099219,0.429948 0.00684,0.0547 -0.015142,0.112364 0,0.165365 0.03674,0.12859 0.066146,-0.01163 0.066146,0.198437"
         id="path3147" /><path
         style="fill:#6c2662;fill-opacity:0.534682;stroke:none;stroke-width:0.55;-inkscape-stroke:none;paint-order:markers stroke fill;stop-color:#000000"
         d="m 7.2429684,3.6049476 c -0.011025,0.088195 -0.027854,0.1758561 -0.033073,0.2645833 -0.019233,0.3269607 0,0.66498 0,0.9921875 0,0.3930462 -0.00869,0.7277185 0.033073,1.1244792 0.022199,0.2108914 0.071555,0.4181409 0.099219,0.6283854 0.059402,0.4514538 0.1139516,0.903556 0.1653646,1.3559896 0.027497,0.2419773 0.031705,0.4865168 0.066146,0.7276038 0.031799,0.2225929 0.098101,0.4392205 0.1322916,0.6614584 0.032026,0.2081699 0.038669,0.4195662 0.066146,0.6283854 0.080058,0.6084438 0.1000416,0.5868568 0.1984375,1.1575518 0.077605,0.450111 0.128987,0.904563 0.1984372,1.35599 0.052148,0.338957 0.1269116,0.658399 0.1984375,0.992187 0.023214,0.108334 0.00265,0.224199 0.033073,0.330729 0.010919,0.03822 0.051384,0.06231 0.066146,0.09922 0.00819,0.02047 -0.00535,0.04476 0,0.06615 0.02168,0.08671 0.1322917,0.329023 0.1322917,0.396875"
         id="path3157" /><path
         style="fill:#6c2662;fill-opacity:0.534682;stroke:none;stroke-width:0.55;-inkscape-stroke:none;paint-order:markers stroke fill;stop-color:#000000"
         d="M 10.021093,3.4065101 C 9.994812,3.7218979 9.974778,3.8295421 9.98802,4.1341143 c 0.022236,0.5114271 0.057575,0.4753157 0.099219,1.0583333 0.01808,0.2531536 0.02205,0.5071181 0.03307,0.7606771 0.03307,0.2866318 0.0731,0.5725469 0.09922,0.8598958 0.01799,0.1979271 0.01227,0.3976608 0.03307,0.5953125 0.06858,0.6514891 0.19017,1.3001876 0.264583,1.9513018 0.0069,0.060716 0.05076,0.7675712 0.06615,0.8598962 0.02242,0.134507 0.07248,0.263159 0.09922,0.396875 0.03945,0.197268 0.06242,0.397531 0.09922,0.595312 0.133703,0.718653 0.272747,1.429795 0.396875,2.14974 0.04085,0.236903 0.118404,0.459725 0.165365,0.694531 0.01363,0.06816 0.06615,0.161617 0.06615,0.23151"
         id="path3159" /><path
         style="fill:#6c2662;fill-opacity:0.534682;stroke:none;stroke-width:0.55;-inkscape-stroke:none;paint-order:markers stroke fill;stop-color:#000000"
         d="m 12.633853,2.9434893 c 0,0.5953125 0,1.190625 0,1.7859375 0,0.6283854 -0.02326,1.2572013 0,1.8851562 0.03252,0.8781298 0.0731,0.8894058 0.165365,1.7197914 0.05582,0.502412 0.07471,1.0227429 0.165365,1.5213541 0.09847,0.5416125 0.244736,1.0759525 0.330729,1.6205725 0.01557,0.09861 0.01572,0.199346 0.03307,0.297657 0.0316,0.179051 0.100694,0.350115 0.132291,0.529166 0.01735,0.09831 0.01142,0.200204 0.03307,0.297657 0.02269,0.102095 0.07526,0.19585 0.09922,0.297656 0.02036,0.08652 0.01309,0.177978 0.03307,0.264583 0.07843,0.339858 0.06615,0.0259 0.06615,0.264583"
         id="path3161" /><path
         style="fill:#6c2662;fill-opacity:0.534682;stroke:none;stroke-width:0.55;-inkscape-stroke:none;paint-order:markers stroke fill;stop-color:#000000"
         d="m 14.816666,2.6458332 c -0.02645,0.8676829 -0.06529,1.7428354 -0.03307,2.6127602 0.02126,0.5739977 0.109326,1.1456654 0.132291,1.7197917 0.0048,0.1211704 -0.0061,0.2426858 0,0.363802 0.06228,1.2455155 0.0034,-0.5666586 0.06615,0.5622396 0.0061,0.1100733 0,0.220486 0,0.3307289 0.01103,0.176389 0.01952,0.3529542 0.03307,0.5291667 0.03477,0.4519498 0.08932,0.9047601 0.132292,1.3559897 0.02946,0.309353 0.106645,0.618282 0.132292,0.926041 0.0064,0.0769 -0.0051,0.154512 0,0.231511 0.02146,0.3219 0.10559,0.638699 0.132291,0.959114 0.0055,0.06592 -0.006,0.132564 0,0.198438 0.01294,0.14239 0.0712,0.289848 0.09922,0.429948"
         id="path3165" /><path
         style="fill:#6c2662;fill-opacity:0.534682;stroke:none;stroke-width:0.55;-inkscape-stroke:none;paint-order:markers stroke fill;stop-color:#000000"
         d="m 16.238801,3.5057289 c -0.07717,0.011025 -0.157004,0.010147 -0.23151,0.033073 -0.07068,0.021749 -0.128937,0.073946 -0.198438,0.099219 -0.189092,0.068761 -0.402668,0.1011497 -0.595312,0.1653646 -0.229199,0.076399 -0.323248,0.135545 -0.56224,0.1984375 -0.250938,0.066036 -0.506577,0.1127921 -0.760677,0.1653646 -0.650121,0.1345081 -1.293554,0.188101 -1.951302,0.2645833 -0.221461,0.025752 -0.440972,0.066146 -0.661458,0.099219 -0.253559,0.033073 -0.506605,0.070347 -0.760677,0.099219 -0.231071,0.026257 -0.463684,0.037994 -0.6945314,0.066146 C 8.860782,4.8136555 7.9114818,4.9606972 6.9453121,5.0601559 5.967369,5.1608264 4.9823361,5.1885566 4.0018226,5.2585934 3.3391483,5.3059274 2.677578,5.3731786 2.0174478,5.423958 c -0.4899428,0.037688 -0.9959936,0 -1.48828117,0"
         id="path3169" /><path
         style="fill:#6c2662;fill-opacity:0.534682;stroke:none;stroke-width:0.55;-inkscape-stroke:none;paint-order:markers stroke fill;stop-color:#000000"
         d="M 16.139582,5.6223955 C 15.883305,5.6956175 15.645998,5.7662005 15.378905,5.820833 14.276777,6.0462683 13.151869,6.129225 12.038541,6.2838538 11.277225,6.3895922 10.520281,6.5283505 9.7565098,6.614583 9.1742592,6.680321 8.5888263,6.7168653 8.0036455,6.7468747 c -0.1541378,0.00791 -0.3087947,-0.00593 -0.4630209,0 -0.3751315,0.014428 -0.7496032,0.049106 -1.1244791,0.066146 -0.1211424,0.00551 -0.2430809,-0.011496 -0.3638021,0 -0.1119198,0.01066 -0.2189207,0.054376 -0.3307292,0.066146 -0.098674,0.010388 -0.1986086,-0.00583 -0.2976562,0 -0.2647251,0.015573 -0.5286587,0.051418 -0.79375,0.066146 -0.1981319,0.011007 -0.3972174,-0.011652 -0.5953125,0 -0.1774547,0.010438 -0.3517987,0.054321 -0.5291666,0.066146 -0.1539984,0.010266 -0.3088143,-0.00642 -0.4630209,0 -0.4980662,0.020754 -0.9899634,0.033073 -1.488281,0.033073 -0.300775,0 -0.62604013,-0.033333 -0.92604162,0 -0.16878265,0.018754 -0.32464089,0.033073 -0.49609372,0.033073"
         id="path3171" /><path
         style="fill:#6c2662;fill-opacity:0.534682;stroke:none;stroke-width:0.55;-inkscape-stroke:none;paint-order:markers stroke fill;stop-color:#000000"
         d="m 16.073437,7.7390621 c -0.869949,0.2141337 -1.729309,0.4987171 -2.612761,0.6614581 -0.77201,0.1422125 -0.525264,0.054471 -1.190625,0.1653646 -0.166344,0.027724 -0.329036,0.076176 -0.496093,0.099219 -0.153283,0.021143 -0.309234,0.015986 -0.463021,0.033073 C 10.74757,8.7607729 10.186374,8.8594175 9.6242181,8.9296869 9.1198704,8.9927305 8.6060964,8.9900883 8.102864,9.0619785 7.5936471,9.1347239 7.9480938,9.1366627 7.408333,9.1611973 6.953541,9.1818692 7.1343956,9.1294608 6.6807288,9.1942702 6.5694324,9.210169 6.4611821,9.2437388 6.3499997,9.260416 5.8338195,9.3378432 6.2078308,9.2651679 5.7546872,9.2934889 5.3785775,9.3169945 5.0075599,9.4059199 4.630208,9.4257806 c -0.351536,0.018502 -0.7072815,0.008 -1.0583333,0.033073 -0.077755,0.00555 -0.1537293,0.027888 -0.2315104,0.033073 -0.3050897,0.020339 -0.6202037,0 -0.9260415,0 -0.5181424,0 -1.0362847,0 -1.55442703,0"
         id="path3173" /><path
         style="fill:#6c2662;fill-opacity:0.534682;stroke:none;stroke-width:0.55;-inkscape-stroke:none;paint-order:markers stroke fill;stop-color:#000000"
         d="m 16.205728,9.6242181 c -0.05512,0.044097 -0.102227,0.1007229 -0.165364,0.1322917 -0.05028,0.025141 -0.111133,0.018283 -0.165365,0.033073 -0.144663,0.039454 -0.287696,0.084874 -0.429948,0.1322916 -0.727085,0.2423616 -1.490643,0.3546896 -2.248958,0.4630206 -0.539544,0.07708 -1.078397,0.17342 -1.620573,0.231511 -0.761126,0.08155 -1.526326,0.168106 -2.2820311,0.297656 -0.4640908,0.07956 -0.9229904,0.194672 -1.3890622,0.264583 -0.7247249,0.108709 -1.4571482,0.160917 -2.1828125,0.264583 -0.1112964,0.0159 -0.2190437,0.05326 -0.3307291,0.06615 -0.5926288,0.06838 -0.4315346,0.01065 -0.9921875,0.03307 -0.12167,0.0049 -0.2421602,0.02754 -0.3638021,0.03307 -0.2202585,0.01001 -0.4414604,-0.01467 -0.6614583,0 -0.2320428,0.01547 -0.4624882,0.05068 -0.6945312,0.06615 -0.3188598,0.02126 -0.7539536,-0.05073 -1.0583332,0 -0.024316,0.0041 -0.04276,0.02528 -0.066146,0.03307 -0.1004254,0.03347 -0.78761016,0 -0.8929687,0"
         id="path3177" /><path
         style="fill:#6c2662;fill-opacity:0.534682;stroke:none;stroke-width:0.55;-inkscape-stroke:none;paint-order:markers stroke fill;stop-color:#000000"
         d="m 16.304947,11.211718 c -0.103763,0.04151 -0.346267,0.139896 -0.429948,0.165365 -0.60799,0.18504 -1.233278,0.321211 -1.852083,0.46302 -1.770186,0.405668 -3.555432,0.733818 -5.3578125,0.959115 -0.6409367,0.08012 -1.2768564,0.107058 -1.9182288,0.165365 -0.2097543,0.01907 -0.4182655,0.05165 -0.6283855,0.06615 -0.1099817,0.0076 -0.2209826,-0.01045 -0.3307291,0 -0.1227003,0.01169 -0.24101,0.05547 -0.3638021,0.06615 -0.1317942,0.01146 -0.2647082,-0.0057 -0.396875,0 -0.4517641,0.01964 -0.9043985,0.04357 -1.3559896,0.06615 -0.3984053,0.01992 -0.7964376,0.106013 -1.1906248,0.132292 -0.5605794,0.03737 -1.123782,0.03307 -1.68671864,0.03307"
         id="path3179" /><path
         style="fill:#6c2662;fill-opacity:0.534682;stroke:none;stroke-width:0.55;-inkscape-stroke:none;paint-order:markers stroke fill;stop-color:#000000"
         d="m 8.5989577,3.4065101 c -0.024588,0.477343 0.034592,0.9488321 0.066146,1.4221354 0.022558,0.338359 -0.00386,0.7259018 0.033073,1.0583333 0.011224,0.1010174 0.055506,0.1965757 0.066146,0.2976563 0.031957,0.3035927 -6.615e-4,0.6224439 0.033073,0.9260416 0.087784,0.7900525 0.082652,0.3525581 0.1653646,0.9591143 0.016452,0.1206511 0.016621,0.2431513 0.033073,0.3638021 0.095095,0.6973631 0.030529,0.050882 0.1322917,0.6614583 0.012917,0.077501 0.059088,0.564864 0.066146,0.6283854 0.1237824,1.1140412 0.00262,0.1149705 0.1322917,0.8929692 0.049242,0.295451 0.052584,0.597617 0.099219,0.892968 0.036591,0.23174 0.079295,0.49795 0.1322917,0.727604 0.075218,0.325947 0.066353,0.06821 0.099219,0.396875 0.016735,0.167348 0.029089,0.329337 0.066146,0.496094 0.015126,0.06806 0.054683,0.129662 0.066146,0.198438 0.011152,0.06692 -0.021741,0.166284 0,0.23151 0.00493,0.01479 0.026101,0.01913 0.033073,0.03307 0.020204,0.0404 -0.00707,0.163056 0,0.198437 0.027045,0.135224 0.066146,0.218363 0.066146,0.363802"
         id="path3185" /><path
         style="fill:#6c2662;fill-opacity:0.534682;stroke:none;stroke-width:0.55;-inkscape-stroke:none;paint-order:markers stroke fill;stop-color:#000000"
         d="m 6.1515622,4.1341143 c -0.038277,0.6655178 0.086705,1.3233693 0.1322916,1.9843749 0.00834,0.12098 -0.00577,0.2426719 0,0.3638021 0.00439,0.2109671 0.055628,0.418029 0.066146,0.6283854 0.00606,0.121116 -0.00606,0.2426859 0,0.3638021 0.027055,0.5410943 0.034787,0.060507 0.066146,0.5622393 0.0055,0.088023 -0.010938,0.17707 0,0.2645833 0.011277,0.090207 0.050347,0.1750582 0.066146,0.2645834 0.078602,0.4454112 0.1054968,0.9069813 0.1653646,1.3559895 0.046883,0.3516207 0.1359456,0.7053067 0.1653646,1.0583337 0.00549,0.06592 -0.00936,0.132956 0,0.198437 0.012856,0.09 0.048317,0.17544 0.066146,0.264583 0.020862,0.104306 0.051659,0.399516 0.066146,0.496094 0.076131,0.507537 0.1682229,1.015054 0.2315105,1.521354 0.036548,0.292386 0.1322916,0.560202 0.1322916,0.859896"
         id="path3193" /><path
         style="fill:#6c2662;fill-opacity:0.534682;stroke:none;stroke-width:0.55;-inkscape-stroke:none;paint-order:markers stroke fill;stop-color:#000000"
         d="m 3.9026039,4.0679684 c 0.028682,0.5602595 -0.038591,1.1271422 0,1.6867188 0.010726,0.1555377 0.055419,0.3074831 0.066146,0.4630208 0.041655,0.603999 -0.00467,1.2151862 0.033073,1.8190101 0.022066,0.3530764 0.077183,0.7057567 0.099219,1.0583333 0.02545,0.4072152 0.037119,0.817321 0.066146,1.2236976 0.01892,0.264873 0.083604,0.528294 0.099219,0.79375 0.016092,0.273548 0.00582,0.554307 0.033073,0.826823 0.031151,0.311512 0.1342901,0.615295 0.1653646,0.926042 0.00548,0.05485 -0.00499,0.110469 0,0.165364 0.016285,0.179142 0.079438,0.351141 0.099219,0.529167 0.00487,0.04383 -0.010695,0.08951 0,0.132292 0.011956,0.04783 0.054188,0.08446 0.066146,0.132291 0.010695,0.04278 -0.00624,0.08864 0,0.132292 0.011507,0.08055 0.053275,0.220431 0.066146,0.297656 0.020018,0.120115 0.00961,0.217656 0.066146,0.330729"
         id="path3195" /><path
         style="fill:#6c2662;fill-opacity:0.534682;stroke:none;stroke-width:0.55;-inkscape-stroke:none;paint-order:markers stroke fill;stop-color:#000000"
         d="m 1.6867186,4.2002601 c 0,1.2788193 0,2.5576387 0,3.836458 0,0.3827354 -0.025453,0.7757552 0,1.1575521 0.00519,0.077781 0.027888,0.1537295 0.033073,0.2315104 0.0161,0.2414947 -0.014213,0.4859782 0,0.7276044 0.020134,0.342282 0.074848,0.684066 0.099219,1.02526 0.022823,0.31952 0.01622,0.638917 0.033073,0.959115 0.00867,0.164688 0.045766,0.333057 0.066146,0.496093 0.038275,0.306201 0.035476,0.619343 0.066146,0.926042 0.034555,0.345553 0.099219,0.677795 0.099219,1.02526"
         id="path3201" /><path
         style="fill:#6c2662;fill-opacity:0.534682;stroke:none;stroke-width:0.55;-inkscape-stroke:none;paint-order:markers stroke fill;stop-color:#000000"
         d="m 11.443228,3.3072914 c 0.01386,0.285765 -0.01784,0.5743797 0,0.8598958 0.02616,0.4184446 0.08921,0.8403521 0.132292,1.2567708 0.04173,0.4033462 0.05751,0.8248713 0.132292,1.2236979 0.01479,0.078883 0.05619,0.1518719 0.06615,0.2315104 0.0123,0.098453 -0.0066,0.1986571 0,0.2976563 0.0089,0.1338193 0.05501,0.2632217 0.06614,0.396875 0.0055,0.065917 -0.006,0.1325631 0,0.1984375 0.02099,0.2308481 0.07823,0.4636828 0.09922,0.6945309 0.02594,0.2853367 0.03432,0.5734283 0.06615,0.8598959 0.05235,0.4711406 0.01959,-0.2083158 0.06615,0.3968749 0.0194,0.252217 0.01018,0.5088252 0.03307,0.7606772 0.02212,0.243371 0.06874,0.483788 0.09922,0.727604 0.0717,0.161971 0.01658,0.331185 0.03307,0.496094 0.05254,0.525427 0.0109,-0.144278 0.06615,0.297656 0.02739,0.219088 0.04638,0.450099 0.09922,0.661458 0.01901,0.07606 -0.0344,0.195775 0,0.264584 0.06154,0.123084 0.09922,0.380756 0.09922,0.529166"
         id="path3207" /><path
         style="fill:#6c2662;fill-opacity:0.534682;stroke:none;stroke-width:0.55;-inkscape-stroke:none;paint-order:markers stroke fill;stop-color:#000000"
         d="m 14.75052,12.832291 c -0.0068,-0.208175 -0.03362,-0.422366 -0.06615,-0.628385 -0.0541,-0.342615 -0.153586,-0.681402 -0.198437,-1.025261 -0.01859,-0.142532 -0.01595,-0.287232 -0.03307,-0.429948 -0.01598,-0.133161 -0.0441,-0.264583 -0.06615,-0.396875 -0.02205,-0.15434 -0.04828,-0.308141 -0.06615,-0.4630206 C 14.260884,9.3715003 14.216088,8.851856 14.155207,8.3343744 14.125433,8.0812885 14.073533,7.8280836 14.055989,7.5736976 14.040042,7.342474 14.037838,7.1104582 14.022916,6.8791663 13.989875,6.3670319 14.000188,6.7276405 13.923697,6.217708 13.859839,5.7919879 13.856182,5.3558577 13.824478,4.9278643 13.80973,4.728751 13.768826,4.5319346 13.758332,4.3325518 13.741275,4.0084737 13.730352,3.697847 13.692187,3.3734372 c -0.0066,-0.055828 -0.02687,-0.1094952 -0.03307,-0.1653646 -0.0085,-0.076698 0.01091,-0.1551157 0,-0.2315104 -0.01313,-0.09189 -0.03307,-0.1199909 -0.03307,-0.1984375"
         id="path3209" /><path
         style="fill:#6c2662;fill-opacity:0.534682;stroke:none;stroke-width:0.55;-inkscape-stroke:none;paint-order:markers stroke fill;stop-color:#000000"
         d="m 15.941145,6.3499997 c -0.22254,0.033041 -0.377946,0.2102416 -0.595313,0.2645833 -0.07563,0.018907 -0.156556,0.011658 -0.23151,0.033073 -0.08073,0.023066 -0.150387,0.077586 -0.23151,0.099219 -0.08588,0.022902 -0.177429,0.015642 -0.264584,0.033073 -0.322313,0.064463 -0.634079,0.1741511 -0.959114,0.2315104 -0.308643,0.054466 -0.615915,0.087988 -0.926042,0.1322916 -0.738969,0.1055669 0.09494,0.029317 -0.694531,0.1322917 -0.131635,0.017169 -0.265819,0.011935 -0.396875,0.033073 -0.332976,0.053705 -0.659498,0.1429886 -0.992187,0.198437 C 10.194652,7.5833562 9.747955,7.6109435 9.2934889,7.6729163 9.0384841,7.7076897 8.7880152,7.7719205 8.5328119,7.805208 7.8105444,7.8994166 7.078102,7.9925909 6.3499997,8.0367181 c -0.5641317,0.03419 -1.1238402,0.0086 -1.6867188,0.033073 -0.430422,0.018714 -0.8601133,0.075345 -1.2898437,0.099219 -0.79529,0 0.1302972,-0.014031 -0.5291667,0.033073 -0.1319553,0.00942 -0.2653923,-0.01461 -0.3968748,0 -0.2623357,0.029149 -0.52952,0.06986 -0.79375,0.099219 -0.1018589,0.011319 -0.2308862,-0.024961 -0.3307291,0 -0.015125,0.00378 -0.017785,0.030015 -0.033073,0.033073 -0.036573,0.00732 -0.1857324,-0.022889 -0.2315104,0 -0.052025,0.026014 -0.037497,0.033073 -0.0992188,0.033073"
         id="path3213" /><path
         style="fill:#6c2662;fill-opacity:0.534682;stroke:none;stroke-width:0.55;-inkscape-stroke:none;paint-order:markers stroke fill;stop-color:#000000"
         d="m 16.238801,4.5309893 c -0.65188,0.096563 -1.272275,0.3590731 -1.918229,0.4960937 -0.674667,0.1431113 -1.365419,0.2546067 -2.050521,0.3307292 -0.568726,0.063192 -0.742044,0.059252 -1.289843,0.1322916 -0.23181,0.030908 -0.463533,0.062745 -0.694532,0.099219 -0.222101,0.035069 -0.4375286,0.1119343 -0.6614579,0.1322916 -0.1317482,0.011978 -0.2650045,-0.010549 -0.396875,0 -0.1445403,0.011562 -0.2857709,0.050698 -0.4299479,0.066146 -0.3295769,0.035312 -0.6626103,0.030834 -0.9921872,0.066146 -0.144177,0.015446 -0.285373,0.055025 -0.4299479,0.066146 -0.1428941,0.010991 -0.2870542,-0.010991 -0.429948,0 -0.409599,0.031508 -0.8106936,0.1150832 -1.2236979,0.1322917 -0.2313095,0.00964 -0.4633407,-0.012168 -0.6945312,0 -0.727511,0.03829 -1.4526276,0.099219 -2.1828125,0.099219 -0.1415642,0 -0.7708215,-0.040716 -0.8929685,0 -0.014791,0.00493 -0.018282,0.028143 -0.033073,0.033073 -0.126539,0.04218 -0.6463982,0 -0.8268228,0"
         id="path3215" /><path
         style="fill:#6c2662;fill-opacity:0.534682;stroke:none;stroke-width:0.55;-inkscape-stroke:none;paint-order:markers stroke fill;stop-color:#000000"
         d="m 16.139582,8.6651035 c -0.215477,0.063917 -0.438165,0.1590331 -0.661458,0.1984375 -0.109107,0.019254 -0.221723,0.013253 -0.330729,0.033073 -0.134164,0.024395 -0.262792,0.074389 -0.396875,0.099219 -0.317336,0.058766 -0.640774,0.079235 -0.959115,0.1322917 -1.059466,0.1986499 -0.01074,0.01165 -1.02526,0.1653645 -1.120402,0.169758 -0.08708,0.025538 -1.124479,0.1984375 -0.297838,0.04964 -0.323083,0.02554 -0.661458,0.066146 -0.793115,0.095174 -0.06161,0.039918 -0.892969,0.1322916 -0.8431782,0.093687 -1.7010875,0.1269315 -2.5466144,0.1653646 -0.4453958,0.020246 -0.2067986,0.041347 -0.6283854,0.066146 -0.088042,0.00518 -0.1765411,-0.00518 -0.2645833,0 -0.4976574,0.029274 -0.9912038,0.1342981 -1.4882812,0.1653651 -0.088023,0.0055 -0.1766131,-0.0063 -0.2645834,0 -0.1891477,0.01351 -0.3741819,0.08212 -0.5622395,0.09922 -0.1975708,0.01796 -0.3975651,0.01659 -0.5953125,0.03307 -0.1336532,0.01114 -0.2633091,0.054 -0.396875,0.06615 -0.2320549,0.0211 -0.462756,0.04297 -0.6945311,0.06615 -0.098726,0.0099 -0.1992037,-0.01231 -0.2976563,0 -0.5076489,0.06346 -1.0123708,0.132292 -1.52135405,0.132292"
         id="path3217" /><path
         style="fill:#6c2662;fill-opacity:0.534682;stroke:none;stroke-width:0.55;-inkscape-stroke:none;paint-order:markers stroke fill;stop-color:#000000"
         d="m 16.106509,10.583333 c -0.0441,0 -0.08879,-0.0072 -0.132291,0 -0.245336,0.04089 -0.483715,0.116586 -0.727604,0.165364 -0.572977,0.114596 -1.145875,0.222151 -1.719792,0.330729 -0.210322,0.03979 -0.41661,0.101149 -0.628385,0.132292 -0.163968,0.02411 -0.330935,0.01931 -0.496094,0.03307 -0.469021,0.03909 -0.139108,0.0246 -0.661458,0.09922 -0.219359,0.03134 -0.441905,0.03621 -0.661459,0.06615 -0.530817,0.07238 -1.057787,0.183089 -1.5874996,0.264583 -0.2030653,0.03124 -0.6960317,0.108659 -0.8929687,0.132292 -0.2527027,0.03032 -0.508299,0.03323 -0.7606768,0.06615 -0.3219199,0.04199 -0.6400596,0.109061 -0.9591146,0.165365 -0.4249179,0.07498 -0.1029785,0.005 -0.4960937,0.03307 -0.2115,0.01511 -0.4175985,0.083 -0.6283854,0.09922 -0.2309059,0.01776 -0.4633934,0.01766 -0.6945313,0.03307 -0.5405988,0.03604 -1.0801654,0.126764 -1.6205729,0.165364 -0.1664038,0.01188 -0.3296351,0.05505 -0.4960937,0.06615 -0.1429983,0.0095 -0.2871269,-0.0119 -0.4299478,0 -0.4717104,0.03931 -0.042374,0.03307 -0.363802,0.03307 -0.1791568,0 -0.3857641,-0.02941 -0.5622396,0 -0.034388,0.0057 -0.065034,0.02624 -0.099219,0.03307 -0.095403,0.01908 -0.2022536,-0.01908 -0.2976563,0 -0.076029,0.0152 -0.1173446,0.03307 -0.19843747,0.03307"
         id="path3219" /><path
         style="fill:#6c2662;fill-opacity:0.534682;stroke:none;stroke-width:0.55;-inkscape-stroke:none;paint-order:markers stroke fill;stop-color:#000000"
         d="m 16.205728,11.972395 c -0.804972,0.156626 -1.583345,0.437582 -2.38125,0.628386 -0.400688,0.09582 -1.101807,0.209844 -1.521354,0.297656 -0.243444,0.05095 -0.483994,0.115209 -0.727604,0.165364 -0.770425,0.158617 -0.04512,-0.0085 -0.727604,0.09922 -0.384975,0.06079 -0.767572,0.137509 -1.1575521,0.165365 -0.3526991,0.02519 -0.7063155,0.02214 -1.0583333,0.06614 -0.4214198,0.05268 -0.8375819,0.13556 -1.2567705,0.198438 -0.5476513,0.08215 -1.1087344,0.09627 -1.6536459,0.198437 -0.089352,0.01675 -0.174472,0.05413 -0.2645833,0.06615 -0.076493,0.0102 -0.1545365,-0.0055 -0.2315104,0 -0.077756,0.0056 -0.1537864,0.02709 -0.2315104,0.03307 -0.1538856,0.01184 -0.3090225,-0.01027 -0.4630208,0 -0.2337134,0.01558 -0.4587523,0.03307 -0.6945313,0.03307 -0.2127131,0 -0.449427,-0.02356 -0.6614583,0 -0.045176,0.005 -0.087188,0.02743 -0.1322917,0.03307 -0.2170938,0.02714 -0.4443642,-0.02714 -0.6614581,0 -0.4665149,0.05831 -0.9487247,0.03307 -1.42213538,0.03307"
         id="path3221" /></g><path
       style="display:inline;fill:#121c25;fill-opacity:0.525773;stroke:none;stroke-width:0.55;-inkscape-stroke:none;paint-order:markers stroke fill;stop-color:#000000"
       d="M 7.3938663,13.463129 9.9900904,13.066253 9.6428249,10.321201 12.387877,9.9739345 12.040611,7.4934665 9.2790223,7.8241957 9.014439,5.0129978 6.4595564,5.3354587 6.7489445,8.2210706 4.2354028,8.5352634 4.4338403,10.784223 6.9969913,10.42042 Z"
       id="path3225-7"
       inkscape:label="plus drop shadow"
       sodipodi:nodetypes="ccccccccccccc" /><path
       style="fill:#6cb562;fill-opacity:1;stroke:none;stroke-width:0.55;-inkscape-stroke:none;paint-order:markers stroke fill;stop-color:#000000"
       d="M 8.088916,12.844889 10.685139,12.448013 10.337874,9.7029613 13.082926,9.3556956 12.73566,6.8752272 9.9740724,7.2059564 9.7094887,4.3947585 7.1546061,4.7172194 7.4439942,7.6028313 4.9304525,7.9170241 5.12889,10.165983 7.692041,9.80218 Z"
       id="path3225"
       inkscape:label="plus"
       sodipodi:nodetypes="ccccccccccccc" /></g></svg>
